<svg width="481" height="475" viewBox="0 0 481 475" fill="none" xmlns="http://www.w3.org/2000/svg">
<rect x="1.5" y="1.5" width="478" height="472" stroke="#BDBDBD"/>
<path d="M1.00002 1L1 474" stroke="#BDBDBD"/>
<path d="M60.875 1L60.875 474" stroke="#BDBDBD"/>
<path d="M120.75 1L120.75 474" stroke="#BDBDBD"/>
<path d="M180.625 1L180.625 474" stroke="#BDBDBD"/>
<path d="M240.5 1L240.5 474" stroke="#BDBDBD"/>
<path d="M300.375 1L300.375 474" stroke="#BDBDBD"/>
<path d="M360.25 1L360.25 474" stroke="#BDBDBD"/>
<path d="M420.125 1L420.125 474" stroke="#BDBDBD"/>
<path d="M480 1L480 474" stroke="#BDBDBD"/>
<path d="M1 474L480 474" stroke="#BDBDBD"/>
<path d="M1 414.875L480 414.875" stroke="#BDBDBD"/>
<path d="M1 355.75L480 355.75" stroke="#BDBDBD"/>
<path d="M1 296.625L480 296.625" stroke="#BDBDBD"/>
<path d="M1 237.5L480 237.5" stroke="#BDBDBD"/>
<path d="M1 178.375L480 178.375" stroke="#BDBDBD"/>
<path d="M1 119.25L480 119.25" stroke="#BDBDBD"/>
<path d="M1 60.125L480 60.125" stroke="#BDBDBD"/>
<path d="M1 0.999978L480 1" stroke="#BDBDBD"/>
</svg>
