<svg width="40" height="40" viewBox="0 0 40 40" fill="none" xmlns="http://www.w3.org/2000/svg">
<g filter="url(#filter0_b)">
<rect width="40" height="40" fill="white" fill-opacity="0.1"/>
</g>
<path d="M28.5001 14.6248C25.5001 9.99985 19.3751 8.62485 14.6251 11.4998C10.0001 14.3748 8.50009 20.6248 11.5001 25.2498L11.7501 25.6248L10.7501 29.3748L14.5001 28.3748L14.8751 28.6248C16.5001 29.4998 18.2501 29.9998 20.0001 29.9998C21.8751 29.9998 23.7501 29.4998 25.3751 28.4998C30.0001 25.4998 31.3751 19.3748 28.5001 14.6248ZM25.8751 24.2498C25.3751 24.9998 24.7501 25.4998 23.8751 25.6248C23.3751 25.6248 22.7501 25.8748 20.2501 24.8748C18.1251 23.8748 16.3751 22.2498 15.1251 20.3748C14.3751 19.4998 14.0001 18.3748 13.8751 17.2498C13.8751 16.2498 14.2501 15.3748 14.8751 14.7498C15.1251 14.4998 15.3751 14.3748 15.6251 14.3748H16.2501C16.5001 14.3748 16.7501 14.3748 16.8751 14.8748C17.1251 15.4998 17.7501 16.9998 17.7501 17.1248C17.8751 17.2498 17.8751 17.4998 17.7501 17.6248C17.8751 17.8748 17.7501 18.1248 17.6251 18.2498C17.5001 18.3748 17.3751 18.6248 17.2501 18.7498C17.0001 18.8748 16.8751 19.1248 17.0001 19.3748C17.5001 20.1248 18.1251 20.8748 18.7501 21.4998C19.5001 22.1248 20.2501 22.6248 21.1251 22.9998C21.3751 23.1248 21.6251 23.1248 21.7501 22.8748C21.8751 22.6248 22.5001 21.9998 22.7501 21.7498C23.0001 21.4998 23.1251 21.4998 23.3751 21.6248L25.3751 22.6248C25.6251 22.7498 25.8751 22.8748 26.0001 22.9998C26.1251 23.3748 26.1251 23.8748 25.8751 24.2498Z" fill="black"/>
<defs>
<filter id="filter0_b" x="-20" y="-20" width="80" height="80" filterUnits="userSpaceOnUse" color-interpolation-filters="sRGB">
<feFlood flood-opacity="0" result="BackgroundImageFix"/>
<feGaussianBlur in="BackgroundImage" stdDeviation="10"/>
<feComposite in2="SourceAlpha" operator="in" result="effect1_backgroundBlur"/>
<feBlend mode="normal" in="SourceGraphic" in2="effect1_backgroundBlur" result="shape"/>
</filter>
</defs>
</svg>
