<svg width="40" height="40" viewBox="0 0 40 40" fill="none" xmlns="http://www.w3.org/2000/svg">
<g filter="url(#filter0_b)">
<rect width="40" height="40" fill="white" fill-opacity="0.1"/>
</g>
<path d="M31.1109 13.1246C30.2937 13.4784 29.4044 13.733 28.4883 13.8322C29.4394 13.2651 30.1516 12.3692 30.4913 11.3126C29.5989 11.8454 28.6212 12.2191 27.6017 12.4169C27.1756 11.9597 26.6602 11.5955 26.0877 11.3469C25.5152 11.0984 24.8979 10.9708 24.2741 10.9722C21.7504 10.9722 19.7207 13.0254 19.7207 15.545C19.7207 15.8988 19.7634 16.2526 19.8329 16.593C16.0539 16.3947 12.6836 14.5827 10.443 11.8085C10.0347 12.5084 9.82075 13.3053 9.82339 14.1163C9.82339 15.7031 10.6272 17.1023 11.8531 17.9252C11.1307 17.8966 10.4252 17.6974 9.79401 17.3435V17.3998C9.79401 19.6219 11.359 21.4633 13.4447 21.8869C13.0531 21.989 12.6503 22.0412 12.2456 22.0423C11.9492 22.0423 11.6688 22.0128 11.3857 21.9726C11.9626 23.7846 13.6424 25.1007 15.6427 25.1436C14.0777 26.3739 12.1175 27.0976 9.98897 27.0976C9.60707 27.0976 9.25455 27.0842 8.88867 27.0413C10.9077 28.3413 13.3032 29.0918 15.883 29.0918C24.2581 29.0918 28.8409 22.1281 28.8409 16.0837C28.8409 15.8854 28.8409 15.687 28.8275 15.4887C29.7142 14.8373 30.4913 14.0305 31.1109 13.1246Z" fill="black"/>
<defs>
<filter id="filter0_b" x="-20" y="-20" width="80" height="80" filterUnits="userSpaceOnUse" color-interpolation-filters="sRGB">
<feFlood flood-opacity="0" result="BackgroundImageFix"/>
<feGaussianBlur in="BackgroundImage" stdDeviation="10"/>
<feComposite in2="SourceAlpha" operator="in" result="effect1_backgroundBlur"/>
<feBlend mode="normal" in="SourceGraphic" in2="effect1_backgroundBlur" result="shape"/>
</filter>
</defs>
</svg>
