<svg xmlns="http://www.w3.org/2000/svg" xmlns:xlink="http://www.w3.org/1999/xlink" width="500" height="500" viewBox="0 0 500 500"><defs><rect id="a" width="500" height="500" x="0" y="0"/></defs><g fill="none" fill-rule="evenodd"><mask id="b" fill="#fff"><use xlink:href="#a"/></mask><g mask="url(#b)"><g transform="translate(-174 -202)"><path fill="#00F3FF" fill-rule="nonzero" d="M123.5969,305.128 L131.8701,296.8544 C133.4021,295.3224 135.052,294.191 136.8198,293.4603 C138.5876,292.7296 140.4261,292.4468 142.3353,292.6118 C144.2444,292.7296 146.2126,293.3307 148.2396,294.4149 C150.2431,295.4756 152.2701,297.0312 154.3207,299.0818 C156.3713,301.1324 157.9387,303.171 159.023,305.198 C160.0836,307.202 160.6847,309.17 160.8261,311.103 C160.9675,312.988 160.6729,314.815 159.9422,316.583 C159.2115,318.35 158.0802,320 156.5481,321.532 L148.2749,329.806 L123.5969,305.128 Z M153.9318,318.916 C154.9453,317.903 155.7114,316.807 156.2299,315.628 C156.7249,314.426 156.9488,313.189 156.9016,311.916 C156.8545,310.643 156.5245,309.37 155.9117,308.097 C155.2989,306.777 154.3796,305.505 153.154,304.279 L149.1235,300.2485 C147.8978,299.0229 146.6368,298.1154 145.3405,297.5262 C144.0441,296.8898 142.7595,296.548 141.4867,296.5009 C140.2139,296.4537 138.9883,296.6894 137.8098,297.208 C136.6077,297.703 135.4999,298.4572 134.4864,299.4707 L129.1831,304.774 L148.6285,324.219 L153.9318,318.916 Z M171.99479,306.086 L147.3168,281.4077 L162.3781,266.3464 L164.99443,268.9627 L152.9029,281.0542 L161.1761,289.3273 L172.56047,277.9429 L175.17677,280.5592 L163.7923,291.9436 L172.34834,300.4996 L184.4399,288.4081 L187.0562,291.0244 L171.99479,306.086 Z M192.6072,285.4733 L167.9292,260.7953 L182.63702,246.0875 L185.2533,248.7038 L173.515343,260.4417 L181.78849,268.7149 L192.5012,258.0022 L195.1175,260.6185 L184.4048,271.3312 L195.5771,282.5035 L192.6072,285.4733 Z M211.1898,266.8908 L208.7149,264.4159 L212.1797,260.9511 L192.4514,241.2228 L188.9866,244.6876 L186.5117,242.2128 L196.4112,232.3133 L198.8861,234.7881 L195.4213,238.253 L215.1496,257.9812 L218.6144,254.5164 L221.0893,256.9913 L211.1898,266.8908 Z M235.6341,243.295 C232.4993,246.4298 228.9991,247.8087 225.1336,247.4315 C221.2445,247.0308 217.2258,244.7563 213.0774,240.608 C208.9291,236.4596 206.6192,232.4055 206.1478,228.4457 C205.6528,224.4623 206.9727,220.9032 210.1076,217.7684 C212.1817,215.6942 214.3856,214.4332 216.719,213.9854 C219.076,213.514 221.5038,213.7497 224.0022,214.6925 L223.0476,218.5462 C221.2799,217.7684 219.5121,217.5091 217.7443,217.7684 C215.953,218.0041 214.2913,218.888 212.7592,220.4201 C211.6986,221.4807 210.9443,222.6357 210.4965,223.8849 C210.0722,225.1105 209.9426,226.3951 210.1076,227.7386 C210.2726,229.035 210.7204,230.3549 211.4511,231.6984 C212.1582,233.0183 213.1481,234.3147 214.4209,235.5875 L218.0979,239.2644 C220.6435,241.81 223.2244,243.2125 225.8407,243.4717 C228.457,243.731 230.8376,242.7882 232.9825,240.6433 C234.5617,239.0641 235.4809,237.3435 235.7402,235.4814 C235.9759,233.5958 235.6695,231.7338 234.8209,229.8953 L238.6747,229.0114 C239.6411,231.5334 239.9003,234.0319 239.4525,236.5067 C238.9811,238.958 237.7083,241.2208 235.6341,243.295 Z M252.7494,202.986556 L240.269,215.467 L251.4413,226.6393 L248.4714,229.6091 L223.7934,204.9311 L226.7632,201.961252 L237.6527,212.8507 L250.1331,200.37026 L239.2437,189.4808 L242.2135,186.511 L266.8916,211.189 L263.9217,214.1588 L252.7494,202.986556 Z M288.919,189.1615 L279.161,184.3532 L269.1908,194.32339 L273.9991,204.08147 L270.9939,207.08667 L254.9426,173.7819 L258.7256,169.9989 L292.03,186.0502 L288.919,189.1615 Z M259.6095,174.6305 L259.4327,174.8072 L267.2816,191 L275.802,182.4794 L259.6095,174.6305 Z M294.952,183.129 L292.477,180.6541 L295.941,177.1893 L276.213,157.461 L272.7484,160.9259 L270.2735,158.451 L280.173,148.5515 L282.648,151.0264 L279.183,154.4912 L298.911,174.2195 L302.376,170.7546 L304.851,173.2295 L294.952,183.129 Z M301.188,146.7699 L292.738,144.2597 L292.632,144.3657 L313.173,164.9072 L310.274,167.8063 L285.596,143.1283 L289.026,139.6988 L313.103,145.7446 L321.553,148.2548 L321.659,148.1488 L301.117,127.6073 L304.016,124.7082 L328.694,149.3862 L325.265,152.8157 L301.188,146.7699 Z"/><path fill="#F4F3F6" fill-rule="nonzero" d="M203.5,383.617 L211.7731,375.343 C213.3052,373.811 214.9551,372.68 216.7229,371.949 C218.4907,371.219 220.3291,370.936 222.2383,371.101 C224.1475,371.219 226.1156,371.82 228.1427,372.904 C230.1461,373.965 232.1732,375.52 234.2238,377.571 C236.2744,379.621 237.8418,381.66 238.926,383.687 C239.9867,385.691 240.5877,387.659 240.7292,389.592 C240.8706,391.477 240.576,393.304 239.8453,395.072 C239.1146,396.839 237.9832,398.489 236.4512,400.021 L228.178,408.295 L203.5,383.617 Z M233.8349,397.405 C234.8484,396.392 235.6144,395.296 236.133,394.117 C236.6279,392.915 236.8519,391.678 236.8047,390.405 C236.7576,389.132 236.4276,387.859 235.8148,386.586 C235.2019,385.266 234.2827,383.994 233.0571,382.768 L229.0266,378.737 C227.8009,377.512 226.5399,376.604 225.2435,376.015 C223.9472,375.379 222.6626,375.037 221.3898,374.99 C220.117,374.943 218.8914,375.178 217.7128,375.697 C216.5108,376.192 215.403,376.946 214.3894,377.96 L209.0861,383.263 L228.5316,402.708 L233.8349,397.405 Z M251.8979,384.575 L227.2198,359.897 L242.2812,344.835 L244.8975,347.452 L232.806,359.543 L241.0791,367.816 L252.4635,356.432 L255.0798,359.048 L243.6954,370.433 L252.2514,378.989 L264.3429,366.897 L266.9592,369.513 L251.8979,384.575 Z M272.5103,363.962 L247.8323,339.284 L262.5401,324.576 L265.1564,327.193 L253.4184,338.931 L261.6916,347.204 L272.4042,336.491 L275.021,339.107 L264.3079,349.82 L275.48,360.992 L272.5103,363.962 Z M291.093,345.38 L288.618,342.905 L292.083,339.44 L272.3545,319.712 L268.8897,323.177 L266.4148,320.702 L276.314,310.802 L278.789,313.277 L275.324,316.742 L295.053,336.47 L298.517,333.005 L300.992,335.48 L291.093,345.38 Z M315.537,321.784 C312.402,324.919 308.902,326.298 305.037,325.92 C301.148,325.52 297.129,323.245 292.98,319.097 C288.832,314.949 286.522,310.894 286.051,306.935 C285.556,302.951 286.876,299.3922 290.011,296.2574 C292.085,294.1832 294.289,292.9222 296.622,292.4743 C298.979,292.0029 301.407,292.2386 303.905,293.1814 L302.951,297.0352 C301.183,296.2574 299.415,295.9981 297.647,296.2574 C295.856,296.4931 294.194,297.3769 292.662,298.909 C291.602,299.9697 290.847,301.1246 290.4,302.374 C289.975,303.599 289.846,304.884 290.011,306.228 C290.176,307.524 290.623,308.844 291.354,310.187 C292.061,311.507 293.051,312.804 294.324,314.076 L298.001,317.753 C300.547,320.299 303.127,321.701 305.744,321.961 C308.36,322.22 310.741,321.277 312.886,319.132 C314.465,317.553 315.384,315.832 315.643,313.97 C315.879,312.085 315.573,310.223 314.724,308.384 L318.578,307.5 C319.544,310.022 319.803,312.521 319.356,314.996 C318.884,317.447 317.611,319.71 315.537,321.784 Z M332.652,281.4755 L320.172,293.9559 L331.344,305.128 L328.374,308.098 L303.696,283.4201 L306.666,280.4502 L317.556,291.3396 L330.036,278.8592 L319.147,267.9698 L322.117,264.9999 L346.795,289.6779 L343.825,292.6478 L332.652,281.4755 Z M368.822,267.6505 L359.064,262.8421 L349.094,272.8123 L353.902,282.5704 L350.897,285.5756 L334.846,252.2709 L338.629,248.4879 L371.933,264.5392 L368.822,267.6505 Z M339.513,253.1194 L339.336,253.2962 L347.185,269.4889 L355.705,260.9683 L339.513,253.1194 Z M374.855,261.618 L372.38,259.1431 L375.845,255.6783 L356.116,235.95 L352.651,239.4148 L350.177,236.9399 L360.076,227.0404 L362.551,229.5153 L359.086,232.9801 L378.814,252.7084 L382.279,249.2436 L384.754,251.7185 L374.855,261.618 Z M381.091,225.2589 L372.641,222.7486 L372.535,222.8547 L393.076,243.3962 L390.177,246.2953 L365.499,221.6173 L368.929,218.1878 L393.006,224.2336 L401.456,226.7438 L401.562,226.6377 L381.02,206.09627 L383.919,203.19713 L408.597,227.8752 L405.168,231.3046 L381.091,225.2589 Z"/><rect width="302" height="105" x="154.147" y="251.956" stroke="#FC1CAE" stroke-width="3" transform="rotate(-45 305.147 304.456)"/><path fill="#F4F3F6" fill-rule="nonzero" d="M42.28,697.572 L50.553,689.299 C52.085,687.767 53.735,686.635 55.503,685.905 C57.27,685.174 59.109,684.891 61.018,685.056 C62.927,685.174 64.895,685.775 66.922,686.859 C68.926,687.92 70.953,689.475 73.003,691.526 C75.0541,693.577 76.6215,695.616 77.7057,697.643 C78.7664,699.646 79.3674,701.614 79.5088,703.547 C79.6503,705.433 79.3556,707.259 78.6249,709.027 C77.8943,710.795 76.7629,712.445 75.2308,713.977 L66.958,722.25 L42.28,697.572 Z M72.615,711.36 C73.628,710.347 74.3941,709.251 74.9126,708.072 C75.4076,706.87 75.6315,705.633 75.5844,704.36 C75.5372,703.087 75.2073,701.814 74.5944,700.542 C73.982,699.222 73.062,697.949 71.837,696.723 L67.806,692.693 C66.581,691.467 65.32,690.56 64.023,689.97 C62.727,689.334 61.442,688.992 60.169,688.945 C58.897,688.898 57.671,689.134 56.493,689.652 C55.29,690.147 54.183,690.901 53.169,691.915 L47.866,697.218 L67.311,716.664 L72.615,711.36 Z M90.6775,698.53 L66,673.852 L81.0609,658.791 L83.6772,661.407 L71.586,673.498 L79.8588,681.772 L91.2432,670.387 L93.8595,673.003 L82.4751,684.388 L91.0311,692.944 L103.1226,680.852 L105.7389,683.469 L90.6775,698.53 Z M111.29,677.918 L86.6119,653.24 L101.3198,638.532 L103.9361,641.148 L92.1981,652.886 L100.4712,661.159 L111.1839,650.447 L113.8002,653.063 L103.0875,663.775 L114.2598,674.948 L111.29,677.918 Z M129.8725,659.335 L127.3976,656.86 L130.8625,653.395 L111.1342,633.667 L107.6694,637.132 L105.1945,634.657 L115.094,624.758 L117.5689,627.232 L114.104,630.697 L133.8323,650.426 L137.2971,646.961 L139.772,649.436 L129.8725,659.335 Z M154.3169,635.739 C151.182,638.874 147.6818,640.253 143.8163,639.876 C139.9272,639.475 135.9085,637.201 131.7602,633.052 C127.6118,628.904 125.3019,624.85 124.8305,620.89 C124.3355,616.907 125.6555,613.348 128.7903,610.213 C130.8645,608.138 133.0683,606.877 135.4018,606.43 C137.7588,605.958 140.1865,606.193963 142.685,607.137 L141.7304,610.99 C139.9626,610.213 138.1948,609.953 136.4271,610.213 C134.6357,610.448 132.974,611.332 131.442,612.864 C130.3813,613.925 129.627,615.08 129.1792,616.329 C128.755,617.555 128.6253,618.839 128.7903,620.183 C128.9553,621.479 129.4031,622.799 130.1338,624.143 C130.8409,625.463 131.8309,626.759 133.1037,628.032 L136.7806,631.709 C139.3262,634.254 141.9071,635.657 144.5234,635.916 C147.1397,636.175 149.5203,635.232 151.6652,633.088 C153.2444,631.508 154.1637,629.788 154.4229,627.926 C154.6586,626.04 154.3522,624.178 153.5037,622.34 L157.3574,621.456 C158.3238,623.978 158.5831,626.476 158.1352,628.951 C157.6638,631.402 156.391,633.665 154.3169,635.739 Z M171.43216,595.431 L158.9517,607.911 L170.12401,619.084 L167.15416,622.053 L142.4761,597.375 L145.446,594.406 L156.3354,605.295 L168.81586,592.815 L157.9264,581.925 L160.8963,578.955 L185.5743,603.633 L182.60445,606.603 L171.43216,595.431 Z M207.6018,581.606 L197.8437,576.797 L187.8735,586.768 L192.6818,596.526 L189.6766,599.531 L173.625295,566.226 L177.40832,562.443 L210.713,578.495 L207.6018,581.606 Z M178.2922,567.075 L178.11542,567.252 L185.9643,583.444 L194.4849,574.924 L178.2922,567.075 Z M213.6343,575.573 L211.1594,573.098 L214.6242,569.634 L194.8959,549.905 L191.4311,553.37 L188.9563,550.895 L198.8557,540.996 L201.3306,543.471 L197.8658,546.935 L217.5941,566.664 L221.0589,563.199 L223.5338,565.674 L213.6343,575.573 Z M219.8706,539.214 L211.4207,536.704 L211.3146,536.81 L231.8561,557.351 L228.957,560.251 L204.2789,535.573 L207.7084,532.143 L231.7854,538.189 L240.2353,540.699 L240.3414,540.593 L219.7999,520.052 L222.6991,517.152 L247.3771,541.83 L243.9476,545.26 L219.8706,539.214 Z"/><rect width="302" height="105" x="-7.074" y="565.911" stroke="#FC1CAE" stroke-width="3" transform="rotate(-45 143.926 618.411)"/><path fill="#00F3FF" fill-rule="nonzero" d="M276.332,457.863 L284.605,449.59 C286.137,448.058 287.787,446.926 289.555,446.195 C291.323,445.465 293.161,445.182 295.07,445.347 C296.979,445.465 298.948,446.066 300.975,447.15 C302.978,448.211 305.005,449.766 307.056,451.817 C309.106,453.868 310.674,455.906 311.758,457.933 C312.819,459.937 313.42,461.905 313.561,463.838 C313.702,465.723 313.408,467.55 312.677,469.318 C311.947,471.086 310.815,472.736 309.283,474.268 L301.01,482.541 L276.332,457.863 Z M306.667,471.651 C307.68,470.638 308.446,469.542 308.965,468.363 C309.46,467.161 309.684,465.924 309.637,464.651 C309.589,463.378 309.26,462.105 308.647,460.833 C308.034,459.513 307.115,458.24 305.889,457.014 L301.858,452.984 C300.633,451.758 299.372,450.851 298.075,450.261 C296.779,449.625 295.494,449.283 294.222,449.236 C292.949,449.189 291.723,449.425 290.545,449.943 C289.343,450.438 288.235,451.192 287.221,452.206 L281.918,457.509 L301.363,476.955 L306.667,471.651 Z M324.73,458.821 L300.052,434.143 L315.113,419.082 L317.729,421.698 L305.638,433.789 L313.911,442.063 L325.295,430.678 L327.912,433.294 L316.527,444.679 L325.083,453.235 L337.175,441.143 L339.791,443.76 L324.73,458.821 Z M345.342,438.208 L320.664,413.53 L335.372,398.823 L337.988,401.439 L326.25,413.177 L334.523,421.45 L345.236,410.737 L347.852,413.354 L337.14,424.066 L348.312,435.239 L345.342,438.208 Z M363.925,419.626 L361.45,417.151 L364.915,413.686 L345.186,393.958 L341.722,397.423 L339.247,394.948 L349.146,385.048 L351.621,387.523 L348.156,390.988 L367.885,410.716 L371.349,407.252 L373.824,409.726 L363.925,419.626 Z M388.369,396.03 C385.234,399.165 381.734,400.544 377.869,400.167 C373.979,399.766 369.961,397.491 365.812,393.343 C361.664,389.195 359.354,385.141 358.883,381.181 C358.388,377.198 359.708,373.638 362.843,370.504 C364.917,368.429 367.121,367.168 369.454,366.721 C371.811,366.249 374.239,366.484963 376.737,367.428 L375.783,371.281 C374.015,370.504 372.247,370.244 370.479,370.504 C368.688,370.739 367.026,371.623 365.494,373.155 C364.434,374.216 363.679,375.371 363.231,376.62 C362.807,377.846 362.678,379.13 362.843,380.474 C363.008,381.77 363.455,383.09 364.186,384.434 C364.893,385.754 365.883,387.05 367.156,388.323 L370.833,392 C373.378,394.545 375.959,395.948 378.576,396.207 C381.192,396.466 383.573,395.523 385.717,393.378 C387.297,391.799 388.216,390.079 388.475,388.217 C388.711,386.331 388.404,384.469 387.556,382.63 L391.41,381.747 C392.376,384.269 392.635,386.767 392.187,389.242 C391.716,391.693 390.443,393.956 388.369,396.03 Z M405.484,355.722 L393.004,368.202 L404.176,379.374 L401.206,382.344 L376.528,357.666 L379.498,354.696 L390.388,365.586 L402.868,353.105 L391.979,342.216 L394.949,339.246 L419.627,363.924 L416.657,366.894 L405.484,355.722 Z M441.654,341.897 L431.896,337.088 L421.926,347.059 L426.734,356.817 L423.729,359.822 L407.678,326.517 L411.461,322.734 L444.765,338.785 L441.654,341.897 Z M412.344,327.366 L412.168,327.542 L420.017,343.735 L428.537,335.215 L412.344,327.366 Z M447.687,335.864 L445.212,333.389 L448.676,329.924 L428.948,310.196 L425.483,313.661 L423.008,311.186 L432.908,301.2867 L435.383,303.762 L431.918,307.226 L451.646,326.955 L455.111,323.49 L457.586,325.965 L447.687,335.864 Z M453.923,299.5051 L445.473,296.9949 L445.367,297.1009 L465.908,317.642 L463.009,320.542 L438.331,295.8635 L441.761,292.434 L465.838,298.4798 L474.288,300.99 L474.394,300.8839 L453.852,280.3425 L456.751,277.4433 L481.429,302.121 L478,305.551 L453.923,299.5051 Z"/><path fill="#F4F3F6" fill-rule="nonzero" d="M516.041,223.8103 L524.314,215.5372 C525.846,214.0051 527.496,212.8737 529.264,212.1431 C531.032,211.41238 532.87,211.12953 534.779,211.29453 C536.689,211.41238 538.657,212.0134 540.684,213.0976 C542.687,214.1583 544.714,215.7139 546.765,217.7646 C548.816,219.8152 550.383,221.854 551.467,223.881 C552.528,225.8845 553.129,227.8526 553.27,229.7854 C553.412,231.671 553.117,233.4977 552.386,235.2654 C551.656,237.0332 550.524,238.6831 548.992,240.2152 L540.719,248.4883 L516.041,223.8103 Z M546.376,237.5989 C547.39,236.5854 548.156,235.4894 548.674,234.3109 C549.169,233.1088 549.393,231.8713 549.346,230.5985 C549.299,229.3257 548.969,228.053 548.356,226.7802 C547.743,225.4602 546.824,224.1874 545.598,222.9618 L541.568,218.9313 C540.342,217.7056 539.081,216.7982 537.785,216.2089 C536.488,215.5725 535.204,215.2308 533.931,215.1836 C532.658,215.1365 531.432,215.3722 530.254,215.8907 C529.052,216.3857 527.944,217.1399 526.931,218.1535 L521.627,223.4568 L541.073,242.9022 L546.376,237.5989 Z M564.439,224.7685 L539.761,200.09048 L554.822,185.0291 L557.439,187.6454 L545.347,199.73692 L553.62,208.01007 L565.005,196.62565 L567.621,199.24195 L556.237,210.62637 L564.793,219.1824 L576.884,207.09083 L579.5,209.70713 L564.439,224.7685 Z M585.051,204.15606 L560.373,179.478 L575.081,164.7702 L577.698,167.3865 L565.96,179.1245 L574.233,187.3976 L584.945,176.685 L587.562,179.3013 L576.849,190.0139 L588.021,201.186215 L585.051,204.15606 Z M603.634,185.5735 L601.159,183.0986 L604.624,179.6338 L584.896,159.9055 L581.431,163.3704 L578.956,160.8955 L588.855,150.996 L591.33,153.4709 L587.866,156.9357 L607.594,176.664 L611.059,173.1992 L613.533,175.674 L603.634,185.5735 Z M628.078,161.9777 C624.943,165.1125 621.443,166.4914 617.578,166.1143 C613.689,165.7136 609.67,163.4391 605.522,159.2907 C601.373,155.1423 599.063,151.0883 598.592,147.1285 C598.097,143.1451 599.417,139.586 602.552,136.4511 C604.626,134.377 606.83,133.116 609.163,132.6681 C611.52,132.1967 613.948,132.4324 616.446,133.3752 L615.492,137.229 C613.724,136.4511 611.956,136.1919 610.189,136.4511 C608.397,136.6868 606.735,137.5707 605.203,139.1028 C604.143,140.1635 603.389,141.3184 602.941,142.5676 C602.516,143.7933 602.387,145.0778 602.552,146.4213 C602.717,147.7177 603.165,149.0376 603.895,150.3811 C604.602,151.7011 605.592,152.9974 606.865,154.2702 L610.542,157.9472 C613.088,160.4928 615.669,161.8952 618.285,162.1545 C620.901,162.4137 623.282,161.4709 625.427,159.326 C627.006,157.7468 627.925,156.0262 628.184,154.1642 C628.42,152.2785 628.114,150.4165 627.265,148.578 L631.119,147.6941 C632.085,150.2162 632.345,152.7146 631.897,155.1895 C631.425,157.6408 630.153,159.9035 628.078,161.9777 Z M645.194,121.6693 L632.713,134.1497 L643.885,145.322 L640.916,148.2919 L616.238,123.6138 L619.207,120.644 L630.097,131.5334 L642.577,119.053 L631.688,108.1636 L634.658,105.1937 L659.336,129.8717 L656.366,132.8416 L645.194,121.6693 Z M681.363,107.8443 L671.605,103.0359 L661.635,113.0061 L666.443,122.7642 L663.438,125.7694 L647.387,92.465 L651.17,88.682 L684.475,104.733 L681.363,107.8443 Z M652.054,93.313 L651.877,93.49 L659.726,109.6827 L668.246,101.162 L652.054,93.313 Z M687.396,101.812 L684.921,99.337 L688.386,95.872 L668.657,76.144 L665.193,79.609 L662.718,77.134 L672.617,67.234 L675.092,69.709 L671.627,73.174 L691.356,92.902 L694.82,89.437 L697.295,91.912 L687.396,101.812 Z M693.632,65.453 L685.182,62.942 L685.076,63.048 L705.618,83.59 L702.718,86.489 L678.04,61.811 L681.47,58.382 L705.547,64.427 L713.997,66.938 L714.103,66.832 L693.561,46.29 L696.461,43.391 L721.139,68.069 L717.709,71.498 L693.632,65.453 Z"/><rect width="302" height="105" x="466.687" y="92.15" stroke="#FC1CAE" stroke-width="3" transform="rotate(-45 617.687 144.65)"/><path fill="#F4F3F6" fill-rule="nonzero" d="M195.0148,850.307 L203.2879,842.034 C204.82,840.502 206.4699,839.37 208.2377,838.64 C210.0054,837.909 211.8439,837.626 213.7531,837.791 C215.6623,837.909 217.6304,838.51 219.6574,839.594 C221.6609,840.655 223.6879,842.211 225.7386,844.261 C227.7892,846.312 229.3566,848.351 230.4408,850.378 C231.5015,852.381 232.1025,854.349 232.2439,856.282 C232.3854,858.168 232.0907,859.994 231.3601,861.762 C230.6294,863.53 229.498,865.18 227.9659,866.712 L219.6928,874.985 L195.0148,850.307 Z M225.3496,864.096 C226.3632,863.082 227.1292,861.986 227.6477,860.807 C228.1427,859.605 228.3666,858.368 228.3195,857.095 C228.2724,855.822 227.9424,854.55 227.3295,853.277 C226.7167,851.957 225.7975,850.684 224.5718,849.458 L220.5413,845.428 C219.3157,844.202 218.0547,843.295 216.7583,842.706 C215.4619,842.069 214.1774,841.727 212.9046,841.68 C211.6318,841.633 210.4061,841.869 209.2276,842.387 C208.0255,842.882 206.9177,843.637 205.9042,844.65 L200.6009,849.953 L220.0463,869.399 L225.3496,864.096 Z M243.4126,851.265 L218.7346,826.587 L233.796,811.526 L236.4123,814.142 L224.3208,826.234 L232.5939,834.507 L243.9783,823.122 L246.5946,825.739 L235.2102,837.123 L243.7662,845.679 L255.8577,833.587 L258.474,836.204 L243.4126,851.265 Z M264.0251,830.653 L239.347,805.975 L254.0549,791.267 L256.6712,793.883 L244.9332,805.621 L253.2063,813.894 L263.919,803.182 L266.5353,805.798 L255.8226,816.511 L266.9949,827.683 L264.0251,830.653 Z M282.608,812.07 L280.133,809.595 L283.598,806.13 L263.8693,786.402 L260.4045,789.867 L257.9296,787.392 L267.8291,777.493 L270.304,779.968 L266.8391,783.432 L286.567,803.161 L290.032,799.696 L292.507,802.171 L282.608,812.07 Z M307.052,788.474 C303.917,791.609 300.417,792.988 296.551,792.611 C292.662,792.21 288.644,789.936 284.495,785.787 C280.347,781.639 278.037,777.585 277.566,773.625 C277.071,769.642 278.391,766.083 281.525,762.948 C283.6,760.874 285.803,759.613 288.137,759.165 C290.494,758.693 292.922,758.928963 295.42,759.872 L294.465,763.726 C292.698,762.948 290.93,762.689 289.162,762.948 C287.371,763.183 285.709,764.067 284.177,765.599 C283.116,766.66 282.362,767.815 281.914,769.064 C281.49,770.29 281.36,771.574 281.525,772.918 C281.69,774.214 282.138,775.534 282.869,776.878 C283.576,778.198 284.566,779.494 285.839,780.767 L289.516,784.444 C292.061,786.989 294.642,788.392 297.259,788.651 C299.875,788.91 302.255,787.968 304.4,785.823 C305.98,784.243 306.899,782.523 307.158,780.661 C307.394,778.775 307.087,776.913 306.239,775.075 L310.093,774.191 C311.059,776.713 311.318,779.211 310.87,781.686 C310.399,784.137 309.126,786.4 307.052,788.474 Z M324.167,748.166 L311.687,760.646 L322.859,771.819 L319.889,774.789 L295.211,750.11 L298.181,747.141 L309.071,758.03 L321.551,745.55 L310.662,734.66 L313.631,731.69 L338.309,756.368 L335.34,759.338 L324.167,748.166 Z M360.337,734.341 L350.579,729.533 L340.609,739.503 L345.417,749.261 L342.412,752.266 L326.36,718.961 L330.143,715.178 L363.448,731.23 L360.337,734.341 Z M331.027,719.81 L330.851,719.987 L338.699,736.179 L347.22,727.659 L331.027,719.81 Z M366.369,728.308 L363.895,725.834 L367.359,722.369 L347.631,702.64 L344.166,706.105 L341.691,703.63 L351.591,693.731 L354.066,696.206 L350.601,699.671 L370.329,719.399 L373.794,715.934 L376.269,718.409 L366.369,728.308 Z M372.606,691.949 L364.156,689.439 L364.05,689.545 L384.591,710.087 L381.692,712.986 L357.014,688.308 L360.444,684.878 L384.52,690.924 L392.97,693.434 L393.076,693.328 L372.535,672.787 L375.434,669.888 L400.112,694.566 L396.683,697.995 L372.606,691.949 Z"/><rect width="302" height="105" x="145.661" y="718.646" stroke="#FC1CAE" stroke-width="3" transform="rotate(-45 296.661 771.146)"/><path fill="#00F3FF" fill-rule="nonzero" d="M429.067,610.598 L437.34,602.325 C438.872,600.793 440.522,599.661 442.29,598.931 C444.058,598.2 445.896,597.917 447.805,598.082 C449.715,598.2 451.683,598.801 453.71,599.885 C455.713,600.946 457.74,602.501 459.791,604.552 C461.841,606.603 463.409,608.642 464.493,610.669 C465.554,612.672 466.155,614.64 466.296,616.573 C466.438,618.459 466.143,620.285 465.412,622.053 C464.682,623.821 463.55,625.471 462.018,627.003 L453.745,635.276 L429.067,610.598 Z M459.402,624.386 C460.415,623.373 461.181,622.277 461.7,621.098 C462.195,619.896 462.419,618.659 462.372,617.386 C462.325,616.113 461.995,614.84 461.382,613.568 C460.769,612.248 459.85,610.975 458.624,609.749 L454.594,605.719 C453.368,604.493 452.107,603.586 450.811,602.996 C449.514,602.36 448.23,602.018 446.957,601.971 C445.684,601.924 444.458,602.16 443.28,602.678 C442.078,603.173 440.97,603.927 439.956,604.941 L434.653,610.244 L454.099,629.69 L459.402,624.386 Z M477.465,611.556 L452.787,586.878 L467.848,571.817 L470.465,574.433 L458.373,586.524 L466.646,594.798 L478.031,583.413 L480.647,586.029 L469.262,597.414 L477.818,605.97 L489.91,593.878 L492.526,596.495 L477.465,611.556 Z M498.077,590.944 L473.399,566.266 L488.107,551.558 L490.723,554.174 L478.985,565.912 L487.259,574.185 L497.971,563.473 L500.588,566.089 L489.875,576.801 L501.047,587.974 L498.077,590.944 Z M516.66,572.361 L514.185,569.886 L517.65,566.421 L497.922,546.693 L494.457,550.158 L491.982,547.683 L501.881,537.784 L504.356,540.258 L500.891,543.723 L520.62,563.452 L524.084,559.987 L526.559,562.462 L516.66,572.361 Z M541.104,548.765 C537.969,551.9 534.469,553.279 530.604,552.902 C526.715,552.501 522.696,550.227 518.548,546.078 C514.399,541.93 512.089,537.876 511.618,533.916 C511.123,529.933 512.443,526.374 515.578,523.239 C517.652,521.164 519.856,519.903 522.189,519.456 C524.546,518.984 526.974,519.219963 529.472,520.163 L528.518,524.016 C526.75,523.239 524.982,522.979 523.214,523.239 C521.423,523.474 519.761,524.358 518.229,525.89 C517.169,526.951 516.414,528.106 515.967,529.355 C515.542,530.581 515.413,531.865 515.578,533.209 C515.743,534.505 516.19,535.825 516.921,537.169 C517.628,538.489 518.618,539.785 519.891,541.058 L523.568,544.735 C526.114,547.28 528.694,548.683 531.311,548.942 C533.927,549.201 536.308,548.258 538.453,546.114 C540.032,544.534 540.951,542.814 541.21,540.952 C541.446,539.066 541.14,537.204 540.291,535.366 L544.145,534.482 C545.111,537.004 545.37,539.502 544.923,541.977 C544.451,544.428 543.178,546.691 541.104,548.765 Z M558.22,508.457 L545.739,520.937 L556.911,532.11 L553.942,535.079 L529.263,510.401 L532.233,507.432 L543.123,518.321 L555.603,505.841 L544.714,494.951 L547.684,491.981 L572.362,516.659 L569.392,519.629 L558.22,508.457 Z M594.389,494.632 L584.631,489.823 L574.661,499.794 L579.469,509.552 L576.464,512.557 L560.413,479.252 L564.196,475.469 L597.5,491.521 L594.389,494.632 Z M565.08,480.101 L564.903,480.278 L572.752,496.47 L581.272,487.95 L565.08,480.101 Z M600.422,488.599 L597.947,486.124 L601.412,482.66 L581.683,462.931 L578.218,466.396 L575.744,463.921 L585.643,454.022 L588.118,456.497 L584.653,459.961 L604.381,479.69 L607.846,476.225 L610.321,478.7 L600.422,488.599 Z M606.658,452.24 L598.208,449.73 L598.102,449.836 L618.643,470.377 L615.744,473.277 L591.066,448.599 L594.496,445.169 L618.573,451.215 L627.023,453.725 L627.129,453.619 L606.587,433.078 L609.486,430.178 L634.164,454.856 L630.735,458.286 L606.658,452.24 Z"/><path fill="#F4F3F6" fill-rule="nonzero" d="M668.776,376.545 L677.049,368.272 C678.582,366.74 680.231,365.609 681.999,364.878 C683.767,364.148 685.605,363.865 687.515,364.03 C689.424,364.148 691.392,364.749 693.419,365.833 C695.422,366.893 697.449,368.449 699.5,370.5 C701.551,372.55 703.118,374.589 704.202,376.616 C705.263,378.62 705.864,380.588 706.005,382.521 C706.147,384.406 705.852,386.233 705.122,388.001 C704.391,389.768 703.26,391.418 701.727,392.95 L693.454,401.224 L668.776,376.545 Z M699.111,390.334 C700.125,389.321 700.891,388.225 701.409,387.046 C701.904,385.844 702.128,384.607 702.081,383.334 C702.034,382.061 701.704,380.788 701.091,379.515 C700.478,378.195 699.559,376.923 698.333,375.697 L694.303,371.666 C693.077,370.441 691.816,369.533 690.52,368.944 C689.223,368.308 687.939,367.966 686.666,367.919 C685.393,367.872 684.168,368.107 682.989,368.626 C681.787,369.121 680.679,369.875 679.666,370.889 L674.362,376.192 L693.808,395.637 L699.111,390.334 Z M717.174,377.504 L692.496,352.826 L707.558,337.764 L710.174,340.381 L698.082,352.472 L706.355,360.745 L717.74,349.361 L720.356,351.977 L708.972,363.362 L717.528,371.918 L729.619,359.826 L732.236,362.442 L717.174,377.504 Z M737.787,356.891 L713.109,332.213 L727.816,317.505 L730.433,320.122 L718.695,331.86 L726.968,340.133 L737.681,329.42 L740.297,332.036 L729.584,342.749 L740.756,353.921 L737.787,356.891 Z M756.369,338.309 L753.894,335.834 L757.359,332.369 L737.631,312.641 L734.166,316.106 L731.691,313.631 L741.591,303.731 L744.065,306.206 L740.601,309.671 L760.329,329.399 L763.794,325.934 L766.269,328.409 L756.369,338.309 Z M780.814,314.713 C777.679,317.848 774.178,319.227 770.313,318.849 C766.424,318.449 762.405,316.174 758.257,312.026 C754.108,307.877 751.799,303.823 751.327,299.8636 C750.832,295.8803 752.152,292.3211 755.287,289.1863 C757.361,287.1121 759.565,285.8511 761.898,285.4033 C764.255,284.9319 766.683,285.1676 769.182,286.1104 L768.227,289.9641 C766.459,289.1863 764.691,288.927 762.924,289.1863 C761.132,289.422 759.471,290.3059 757.939,291.838 C756.878,292.8986 756.124,294.0536 755.676,295.3028 C755.252,296.5284 755.122,297.813 755.287,299.1565 C755.452,300.4529 755.9,301.7728 756.63,303.116 C757.338,304.436 758.328,305.733 759.6,307.005 L763.277,310.682 C765.823,313.228 768.404,314.63 771.02,314.89 C773.636,315.149 776.017,314.206 778.162,312.061 C779.741,310.482 780.66,308.761 780.92,306.899 C781.155,305.014 780.849,303.152 780,301.3132 L783.854,300.4293 C784.82,302.951 785.08,305.45 784.632,307.925 C784.16,310.376 782.888,312.639 780.814,314.713 Z M797.929,274.4045 L785.448,286.8849 L796.621,298.0572 L793.651,301.027 L768.973,276.349 L771.943,273.3792 L782.832,284.2686 L795.313,271.7882 L784.423,260.8987 L787.393,257.9289 L812.071,282.6069 L809.101,285.5768 L797.929,274.4045 Z M834.098,260.5794 L824.34,255.7711 L814.37,265.7413 L819.178,275.4994 L816.173,278.5046 L800.122,245.1998 L803.905,241.4168 L837.21,257.4682 L834.098,260.5794 Z M804.789,246.0484 L804.612,246.2252 L812.461,262.4179 L820.982,253.8973 L804.789,246.0484 Z M840.131,254.5469 L837.656,252.072 L841.121,248.6072 L821.393,228.8789 L817.928,232.3438 L815.453,229.8689 L825.352,219.9694 L827.827,222.4443 L824.362,225.9091 L844.091,245.6374 L847.556,242.1725 L850.03,244.6474 L840.131,254.5469 Z M846.367,218.1878 L837.917,215.6776 L837.811,215.7837 L858.353,236.3251 L855.454,239.2242 L830.776,214.5462 L834.205,211.11675 L858.282,217.1625 L866.732,219.6727 L866.838,219.5667 L846.297,199.02523 L849.196,196.12609 L873.874,220.8041 L870.444,224.2336 L846.367,218.1878 Z"/><rect width="302" height="105" x="619.423" y="244.885" stroke="#FC1CAE" stroke-width="3" transform="rotate(-45 770.423 297.385)"/><path fill="#00F3FF" fill-rule="nonzero" d="M116.5259,770.404 L124.799,762.131 C126.3311,760.599 127.981,759.467 129.7488,758.736 C131.5165,758.006 133.355,757.723 135.2642,757.888 C137.1734,758.006 139.1415,758.607 141.1685,759.691 C143.172,760.752 145.1991,762.307 147.2497,764.358 C149.3003,766.409 150.8677,768.447 151.9519,770.474 C153.0126,772.478 153.6136,774.446 153.755,776.379 C153.8965,778.264 153.6018,780.091 152.8712,781.859 C152.1405,783.627 151.0091,785.277 149.4771,786.809 L141.2039,795.082 L116.5259,770.404 Z M146.8608,784.192 C147.8743,783.179 148.6403,782.083 149.1589,780.904 C149.6538,779.702 149.8777,778.465 149.8306,777.192 C149.7835,775.919 149.4535,774.646 148.8407,773.374 C148.2278,772.054 147.3086,770.781 146.0829,769.555 L142.0524,765.525 C140.8268,764.299 139.5658,763.392 138.2694,762.802 C136.973,762.166 135.6885,761.824 134.4157,761.777 C133.1429,761.73 131.9172,761.966 130.7387,762.484 C129.5366,762.979 128.4288,763.733 127.4153,764.747 L122.112,770.05 L141.5575,789.496 L146.8608,784.192 Z M164.92374,771.362 L140.2457,746.684 L155.3071,731.623 L157.9234,734.239 L145.8319,746.33 L154.105,754.604 L165.48943,743.219 L168.10572,745.835 L156.7213,757.22 L165.2773,765.776 L177.36882,753.684 L179.98512,756.301 L164.92374,771.362 Z M185.5362,750.75 L160.8582,726.071 L175.56598,711.364 L178.18227,713.98 L166.4443,725.718 L174.717448,733.991 L185.4301,723.278 L188.0464,725.895 L177.33374,736.607 L188.506,747.78 L185.5362,750.75 Z M204.1187,732.167 L201.6439,729.692 L205.1087,726.227 L185.3804,706.499 L181.91557,709.964 L179.4407,707.489 L189.3402,697.589 L191.8151,700.064 L188.3502,703.529 L208.0785,723.257 L211.5433,719.793 L214.0182,722.267 L204.1187,732.167 Z M228.5631,708.571 C225.4282,711.706 221.9281,713.085 218.0625,712.708 C214.1735,712.307 210.1547,710.032 206.0064,705.884 C201.858,701.736 199.5481,697.682 199.0767,693.722 C198.5817,689.739 199.9017,686.179 203.0365,683.045 C205.1107,680.97 207.3145,679.709 209.648,679.262 C212.005,678.79 214.4327,679.025963 216.9312,679.969 L215.9766,683.822 C214.2088,683.045 212.441,682.785 210.6733,683.045 C208.8819,683.28 207.2202,684.164 205.6882,685.696 C204.6275,686.757 203.8733,687.912 203.4254,689.161 C203.0012,690.387 202.8715,691.671 203.0365,693.015 C203.2015,694.311 203.6493,695.631 204.38,696.975 C205.0871,698.295 206.0771,699.591 207.3499,700.864 L211.0268,704.541 C213.5724,707.086 216.1534,708.489 218.7696,708.748 C221.3859,709.007 223.7665,708.064 225.9114,705.919 C227.4906,704.34 228.4099,702.62 228.6691,700.758 C228.9048,698.872 228.5984,697.01 227.7499,695.171 L231.6036,694.288 C232.57,696.81 232.8293,699.308 232.3815,701.783 C231.91,704.234 230.6373,706.497 228.5631,708.571 Z M245.6784,668.263 L233.1979,680.743 L244.3702,691.915 L241.4004,694.885 L216.7224,670.207 L219.6922,667.237 L230.5816,678.127 L243.0621,665.646 L232.1726,654.757 L235.1425,651.787 L259.8205,676.465 L256.8507,679.435 L245.6784,668.263 Z M281.848,654.438 L272.0899,649.629 L262.1197,659.6 L266.928,669.358 L263.9228,672.363 L247.8715,639.058 L251.6545,635.275 L284.959,651.326 L281.848,654.438 Z M252.5384,639.907 L252.3616,640.083 L260.2105,656.276 L268.7312,647.756 L252.5384,639.907 Z M287.88,648.405 L285.406,645.93 L288.87,642.465 L269.1422,622.737 L265.6773,626.202 L263.2025,623.727 L273.102,613.828 L275.577,616.303 L272.112,619.767 L291.84,639.496 L295.305,636.031 L297.78,638.506 L287.88,648.405 Z M294.117,612.046 L285.667,609.536 L285.561,609.642 L306.102,630.183 L303.203,633.083 L278.525,608.404 L281.955,604.975 L306.032,611.021 L314.482,613.531 L314.588,613.425 L294.046,592.884 L296.945,589.984 L321.623,614.662 L318.194,618.092 L294.117,612.046 Z"/><path fill="#F4F3F6" fill-rule="nonzero" d="M356.235,536.352 L364.508,528.078 C366.04,526.546 367.69,525.415 369.458,524.684 C371.226,523.954 373.064,523.671 374.973,523.836 C376.882,523.954 378.851,524.555 380.878,525.639 C382.881,526.7 384.908,528.255 386.959,530.306 C389.009,532.356 390.577,534.395 391.661,536.422 C392.722,538.426 393.323,540.394 393.464,542.327 C393.606,544.212 393.311,546.039 392.58,547.807 C391.85,549.574 390.718,551.224 389.186,552.756 L380.913,561.03 L356.235,536.352 Z M386.57,550.14 C387.583,549.127 388.349,548.031 388.868,546.852 C389.363,545.65 389.587,544.413 389.54,543.14 C389.493,541.867 389.163,540.594 388.55,539.321 C387.937,538.001 387.018,536.729 385.792,535.503 L381.762,531.472 C380.536,530.247 379.275,529.339 377.979,528.75 C376.682,528.114 375.398,527.772 374.125,527.725 C372.852,527.678 371.626,527.913 370.448,528.432 C369.246,528.927 368.138,529.681 367.124,530.695 L361.821,535.998 L381.267,555.443 L386.57,550.14 Z M404.633,537.31 L379.955,512.632 L395.016,497.57 L397.632,500.187 L385.541,512.278 L393.814,520.551 L405.199,509.167 L407.815,511.783 L396.43,523.168 L404.986,531.724 L417.078,519.632 L419.694,522.248 L404.633,537.31 Z M425.245,516.697 L400.567,492.019 L415.275,477.311 L417.891,479.928 L406.153,491.666 L414.427,499.939 L425.139,489.226 L427.756,491.842 L417.043,502.555 L428.215,513.727 L425.245,516.697 Z M443.828,498.115 L441.353,495.64 L444.818,492.175 L425.09,472.447 L421.625,475.912 L419.15,473.437 L429.049,463.537 L431.524,466.012 L428.059,469.477 L447.788,489.205 L451.252,485.74 L453.727,488.215 L443.828,498.115 Z M468.272,474.519 C465.137,477.654 461.637,479.033 457.772,478.655 C453.883,478.255 449.864,475.98 445.715,471.832 C441.567,467.684 439.257,463.629 438.786,459.67 C438.291,455.686 439.611,452.127 442.746,448.992 C444.82,446.918 447.024,445.657 449.357,445.209 C451.714,444.738 454.142,444.974 456.64,445.916 L455.686,449.77 C453.918,448.992 452.15,448.733 450.382,448.992 C448.591,449.228 446.929,450.112 445.397,451.644 C444.337,452.705 443.582,453.86 443.135,455.109 C442.71,456.334 442.581,457.619 442.746,458.963 C442.911,460.259 443.358,461.579 444.089,462.922 C444.796,464.242 445.786,465.539 447.059,466.811 L450.736,470.488 C453.282,473.034 455.862,474.436 458.479,474.696 C461.095,474.955 463.476,474.012 465.621,471.867 C467.2,470.288 468.119,468.567 468.378,466.705 C468.614,464.82 468.308,462.958 467.459,461.119 L471.313,460.235 C472.279,462.757 472.538,465.256 472.091,467.731 C471.619,470.182 470.346,472.445 468.272,474.519 Z M485.387,434.21 L472.907,446.691 L484.079,457.863 L481.109,460.833 L456.431,436.155 L459.401,433.185 L470.291,444.075 L482.771,431.594 L471.882,420.705 L474.852,417.735 L499.53,442.413 L496.56,445.383 L485.387,434.21 Z M521.557,420.385 L511.799,415.577 L501.829,425.547 L506.637,435.305 L503.632,438.311 L487.581,405.006 L491.364,401.223 L524.668,417.274 L521.557,420.385 Z M492.248,405.854 L492.071,406.031 L499.92,422.224 L508.44,413.703 L492.248,405.854 Z M527.59,414.353 L525.115,411.878 L528.58,408.413 L508.851,388.685 L505.386,392.15 L502.912,389.675 L512.811,379.775 L515.286,382.25 L511.821,385.715 L531.549,405.443 L535.014,401.979 L537.489,404.453 L527.59,414.353 Z M533.826,377.994 L525.376,375.484 L525.27,375.59 L545.811,396.131 L542.912,399.03 L518.234,374.352 L521.664,370.923 L545.741,376.969 L554.191,379.479 L554.297,379.373 L533.755,358.831 L536.654,355.932 L561.332,380.61 L557.903,384.04 L533.826,377.994 Z"/><rect width="302" height="105" x="306.881" y="404.691" stroke="#FC1CAE" stroke-width="3" transform="rotate(-45 457.881 457.191)"/><path fill="#00F3FF" fill-rule="nonzero" d="M590.287,296.6423 L598.56,288.3691 C600.093,286.8371 601.742,285.7057 603.51,284.975 C605.278,284.2443 607.116,283.9615 609.026,284.1265 C610.935,284.2443 612.903,284.8454 614.93,285.9296 C616.933,286.9903 618.961,288.5459 621.011,290.5965 C623.062,292.6471 624.629,294.686 625.713,296.713 C626.774,298.7165 627.375,300.6846 627.517,302.617 C627.658,304.503 627.363,306.33 626.633,308.097 C625.902,309.865 624.771,311.515 623.239,313.047 L614.965,321.32 L590.287,296.6423 Z M620.622,310.431 C621.636,309.417 622.402,308.321 622.92,307.143 C623.415,305.941 623.639,304.703 623.592,303.431 C623.545,302.158 623.215,300.8849 622.602,299.6121 C621.989,298.2922 621.07,297.0194 619.844,295.7938 L615.814,291.7633 C614.588,290.5376 613.327,289.6301 612.031,289.0409 C610.735,288.4045 609.45,288.0627 608.177,288.0156 C606.904,287.9684 605.679,288.2041 604.5,288.7227 C603.298,289.2177 602.19,289.9719 601.177,290.9854 L595.873,296.2887 L615.319,315.734 L620.622,310.431 Z M638.685,297.6005 L614.007,272.9224 L629.069,257.8611 L631.685,260.4774 L619.593,272.5689 L627.866,280.842 L639.251,269.4576 L641.867,272.0739 L630.483,283.4583 L639.039,292.0143 L651.13,279.9228 L653.747,282.5391 L638.685,297.6005 Z M659.298,276.988 L634.62,252.31 L649.327,237.6022 L651.944,240.2185 L640.206,251.9565 L648.479,260.2296 L659.192,249.5169 L661.808,252.1332 L651.095,262.8459 L662.268,274.0182 L659.298,276.988 Z M677.88,258.4055 L675.405,255.9306 L678.87,252.4658 L659.142,232.7375 L655.677,236.2023 L653.202,233.7275 L663.102,223.828 L665.577,226.3028 L662.112,229.7677 L681.84,249.4959 L685.305,246.0311 L687.78,248.506 L677.88,258.4055 Z M702.325,234.8097 C699.19,237.9445 695.69,239.3234 691.824,238.9462 C687.935,238.5455 683.916,236.271 679.768,232.1227 C675.619,227.9743 673.31,223.9202 672.838,219.9604 C672.343,215.9771 673.663,212.418 676.798,209.28311 C678.872,207.20893 681.076,205.94792 683.409,205.50009 C685.766,205.02869 688.194,205.26439 690.693,206.2072 L689.738,210.06093 C687.97,209.28311 686.203,209.02384 684.435,209.28311 C682.643,209.51881 680.982,210.4027 679.45,211.93476 C678.389,212.9954 677.635,214.1504 677.187,215.3996 C676.763,216.6252 676.633,217.9098 676.798,219.2533 C676.963,220.5497 677.411,221.8696 678.141,223.2131 C678.849,224.533 679.839,225.8294 681.111,227.1022 L684.788,230.7792 C687.334,233.3247 689.915,234.7272 692.531,234.9864 C695.147,235.2457 697.528,234.3029 699.673,232.158 C701.252,230.5788 702.171,228.8582 702.431,226.9961 C702.666,225.1105 702.36,223.2485 701.511,221.41 L705.365,220.5261 C706.331,223.0481 706.591,225.5466 706.143,228.0214 C705.672,230.4727 704.399,232.7355 702.325,234.8097 Z M719.44,194.50127 L706.959,206.9817 L718.132,218.154 L715.162,221.1238 L690.484,196.44581 L693.454,193.47596 L704.343,204.36541 L716.824,191.885 L705.934,180.9955 L708.904,178.0257 L733.582,202.703705 L730.612,205.67355 L719.44,194.50127 Z M755.609,180.6762 L745.851,175.8679 L735.881,185.8381 L740.69,195.59618 L737.684,198.60138 L721.633,165.2967 L725.416,161.5136 L758.721,177.565 L755.609,180.6762 Z M726.3,166.1452 L726.123,166.322 L733.972,182.5147 L742.493,173.9941 L726.3,166.1452 Z M761.642,174.6437 L759.167,172.1688 L762.632,168.704 L742.904,148.9757 L739.439,152.4406 L736.964,149.9657 L746.863,140.0662 L749.338,142.5411 L745.873,146.0059 L765.602,165.7342 L769.067,162.2694 L771.541,164.7442 L761.642,174.6437 Z M767.878,138.2846 L759.428,135.7744 L759.322,135.8805 L779.864,156.4219 L776.965,159.321 L752.287,134.643 L755.716,131.2136 L779.793,137.2593 L788.243,139.7695 L788.349,139.6635 L767.808,119.122 L770.707,116.2229 L795.385,140.9009 L791.955,144.3304 L767.878,138.2846 Z"/><path fill="#F4F3F6" fill-rule="nonzero" d="M508.97,689.087 L517.243,680.813 C518.775,679.281 520.425,678.15 522.193,677.419 C523.961,676.689 525.799,676.406 527.708,676.571 C529.618,676.689 531.586,677.29 533.613,678.374 C535.616,679.435 537.643,680.99 539.694,683.041 C541.744,685.091 543.312,687.13 544.396,689.157 C545.457,691.161 546.058,693.129 546.199,695.062 C546.341,696.947 546.046,698.774 545.315,700.542 C544.585,702.31 543.453,703.959 541.921,705.491 L533.648,713.765 L508.97,689.087 Z M539.305,702.875 C540.318,701.862 541.085,700.766 541.603,699.587 C542.098,698.385 542.322,697.148 542.275,695.875 C542.228,694.602 541.898,693.329 541.285,692.056 C540.672,690.737 539.753,689.464 538.527,688.238 L534.497,684.208 C533.271,682.982 532.01,682.074 530.714,681.485 C529.417,680.849 528.133,680.507 526.86,680.46 C525.587,680.413 524.361,680.648 523.183,681.167 C521.981,681.662 520.873,682.416 519.86,683.43 L514.556,688.733 L534.002,708.179 L539.305,702.875 Z M557.368,690.045 L532.69,665.367 L547.751,650.305 L550.368,652.922 L538.276,665.013 L546.549,673.286 L557.934,661.902 L560.55,664.518 L549.166,675.903 L557.722,684.459 L569.813,672.367 L572.429,674.983 L557.368,690.045 Z M577.98,669.432 L553.302,644.754 L568.01,630.047 L570.626,632.663 L558.889,644.401 L567.162,652.674 L577.874,641.961 L580.491,644.578 L569.778,655.29 L580.95,666.463 L577.98,669.432 Z M596.563,650.85 L594.088,648.375 L597.553,644.91 L577.825,625.182 L574.36,628.647 L571.885,626.172 L581.784,616.272 L584.259,618.747 L580.794,622.212 L600.523,641.94 L603.988,638.475 L606.462,640.95 L596.563,650.85 Z M621.007,627.254 C617.872,630.389 614.372,631.768 610.507,631.391 C606.618,630.99 602.599,628.715 598.451,624.567 C594.302,620.419 591.992,616.365 591.521,612.405 C591.026,608.421 592.346,604.862 595.481,601.727 C597.555,599.653 599.759,598.392 602.092,597.944 C604.449,597.473 606.877,597.708667 609.375,598.652 L608.421,602.505 C606.653,601.727 604.885,601.468 603.117,601.727 C601.326,601.963 599.664,602.847 598.132,604.379 C597.072,605.44 596.317,606.595 595.87,607.844 C595.445,609.07 595.316,610.354 595.481,611.698 C595.646,612.994 596.094,614.314 596.824,615.657 C597.531,616.977 598.521,618.274 599.794,619.547 L603.471,623.223 C606.017,625.769 608.598,627.172 611.214,627.431 C613.83,627.69 616.211,626.747 618.356,624.602 C619.935,623.023 620.854,621.303 621.113,619.44 C621.349,617.555 621.043,615.693 620.194,613.854 L624.048,612.97 C625.014,615.492 625.274,617.991 624.826,620.466 C624.354,622.917 623.081,625.18 621.007,627.254 Z M638.123,586.946 L625.642,599.426 L636.814,610.598 L633.845,613.568 L609.167,588.89 L612.136,585.92 L623.026,596.81 L635.506,584.329 L624.617,573.44 L627.587,570.47 L652.265,595.148 L649.295,598.118 L638.123,586.946 Z M674.292,573.121 L664.534,568.312 L654.564,578.282 L659.372,588.041 L656.367,591.046 L640.316,557.741 L644.099,553.958 L677.403,570.009 L674.292,573.121 Z M644.983,558.59 L644.806,558.766 L652.655,574.959 L661.175,566.438 L644.983,558.59 Z M680.325,567.088 L677.85,564.613 L681.315,561.148 L661.586,541.42 L658.122,544.885 L655.647,542.41 L665.546,532.511 L668.021,534.985 L664.556,538.45 L684.285,558.179 L687.749,554.714 L690.224,557.189 L680.325,567.088 Z M686.561,530.729 L678.111,528.219 L678.005,528.325 L698.547,548.866 L695.647,551.765 L670.969,527.087 L674.399,523.658 L698.476,529.704 L706.926,532.214 L707.032,532.108 L686.49,511.566 L689.389,508.667 L714.068,533.345 L710.638,536.775 L686.561,530.729 Z"/><rect width="302" height="105" x="459.616" y="557.426" stroke="#FC1CAE" stroke-width="3" transform="rotate(-45 610.616 609.926)"/></g></g></g></svg>