<svg xmlns="http://www.w3.org/2000/svg" xmlns:xlink="http://www.w3.org/1999/xlink" width="500" height="499" viewBox="0 0 500 499"><defs><rect id="a" width="500" height="500" x="0" y="0"/></defs><g fill="none" fill-rule="evenodd" transform="translate(0 -1)"><mask id="b" fill="#fff"><use xlink:href="#a"/></mask><use xlink:href="#a" fill="#FFF" fill-rule="nonzero" opacity="0"/><g mask="url(#b)"><g transform="translate(-259 1)"><g style="mix-blend-mode:color" transform="translate(0 140)"><polygon fill="#00F3FF" fill-rule="nonzero" points="1010.565 0 1010.565 359 651.565 359"/><polygon fill="#00F3FF" fill-rule="nonzero" points="684.782 0 684.782 359 325.782 359"/><polygon fill="#FC1CAE" fill-rule="nonzero" points="359 0 359 359 0 359"/></g><path fill="#FFF" fill-rule="nonzero" d="M387.828,418.649 L394.314,423.668 L367.907,457.797 L352.4638,445.829 C350.9195,444.593 349.6841,443.281 348.8347,441.813 C347.9854,440.346 347.4449,438.879 347.2904,437.258 C347.136,435.636 347.3676,434.015 347.9082,432.393 C348.4487,430.695 349.298,429.073 350.5335,427.529 C352.3094,425.212 354.4714,423.591 356.7879,422.664 C359.182,421.815 361.652,421.815 364.355,422.741 L368.138,403.438 L375.319,408.997 L371.536,427.065 L377.636,431.776 L387.828,418.649 Z M365.127,430.772 C363.892,429.845 362.656,429.382 361.421,429.536 C360.185,429.614 359.104,430.308 358.1005,431.544 L356.3246,433.783 C355.398,435.019 355.0119,436.254 355.2436,437.412 C355.4752,438.648 356.1701,439.729 357.4056,440.655 L365.745,447.064 L373.389,437.181 L365.127,430.772 Z"/><polygon fill="#FFF" fill-rule="nonzero" points="363.891 398.96 331.847 427.761 312.852 406.604 318.257 401.739 331.692 416.874 339.491 409.924 327.523 396.566 332.928 391.701 344.896 405.06 353.081 397.724 339.568 382.667 344.973 377.803"/><path fill="#FFF" fill-rule="nonzero" d="M304.0501,395.021 L293.5489,378.034 C292.6223,376.489 292.0046,375.022 291.6958,373.555 C291.3869,372.088 291.3869,370.621 291.6958,369.308 C292.0046,367.996 292.5451,366.683 293.4717,365.525 C294.3983,364.367 295.5565,363.363 296.9464,362.513 C298.3362,361.664 299.6489,361.124 300.8071,360.892 C301.9653,360.66 303.1236,360.66 304.1273,360.892 C305.1311,361.124 306.0577,361.51 306.8299,362.127 C307.602,362.745 308.297,363.44 308.8375,364.212 L309.1463,363.981 C308.683,363.208 308.297,362.205 307.9881,361.124 C307.7564,359.965 307.6792,358.807 307.9109,357.649 C308.1425,356.414 308.6058,355.255 309.3007,354.02 C310.0729,352.862 311.2311,351.781 312.7754,350.777 C314.2425,349.85 315.7868,349.233 317.3311,348.924 C318.8754,348.615 320.4197,348.615 321.8868,348.846 C323.3538,349.078 324.7437,349.619 325.9792,350.468 C327.2146,351.317 328.2956,352.398 329.145,353.788 L340.65,372.397 L304.0501,395.021 Z M315.0919,378.651 L309.8413,370.081 C309.0691,368.845 308.1425,368.073 306.9843,367.764 C305.9033,367.455 304.6679,367.687 303.4324,368.459 L301.8109,369.463 C300.5755,370.235 299.8805,371.162 299.5717,372.243 C299.34,373.401 299.5717,374.559 300.3438,375.794 L305.5944,384.365 L315.0919,378.651 Z M330.612,369.077 L324.6665,359.348 C323.8171,358.035 322.8906,357.186 321.7323,356.877 C320.5741,356.568 319.4159,356.8 318.1032,357.572 L316.3273,358.653 C315.0146,359.425 314.2425,360.429 314.0108,361.587 C313.7792,362.745 314.0881,363.981 314.8602,365.37 L320.8058,375.022 L330.612,369.077 Z"/><polygon fill="#FFF" fill-rule="nonzero" points="321.037 338.577 280.886 354.329 270.539 327.844 277.257 325.219 284.669 344.059 294.398 340.276 287.835 323.597 294.553 320.972 301.116 337.65 311.385 333.635 303.973 314.795 310.69 312.169"/><polygon fill="#FFF" fill-rule="nonzero" points="308.915 305.298 266.756 314.486 264.98 306.533 300.035 298.889 296.406 282.288 303.433 280.743"/><path fill="#FFF" fill-rule="nonzero" d="M302.8918,261.98 C303.1234,265.686 302.5829,268.852 301.4247,271.477 C300.2665,274.103 298.645,276.419 296.5602,278.349 L290.9235,273.176 C292.545,271.632 293.7804,269.856 294.5526,268.003 C295.3247,266.15 295.7108,264.065 295.5564,261.825 C295.402,259.355 294.7842,257.424 293.626,256.266 C292.4678,255.031 291.0007,254.49 289.1476,254.567 C287.6805,254.644 286.5995,255.108 285.7501,255.957 C284.9007,256.807 284.3602,258.428 284.0514,260.667 L283.6653,264.76 C282.7387,273.408 278.8008,277.963 271.8514,278.349 C269.9211,278.427 268.14511,278.195 266.5236,277.577 C264.90209,276.96 263.51222,275.956 262.354,274.643 C261.19577,273.33 260.19198,271.786 259.497046,269.856 C258.802112,268.003 258.416037,265.841 258.261608,263.37 C258.107178,260.127 258.493252,257.27 259.419831,254.799 C260.34641,252.328 261.81349,250.166 263.82108,248.313 L269.3805,253.563 C268.14511,254.722 267.14132,256.034 266.44638,257.656 C265.67423,259.2 265.44259,261.131 265.5198,263.447 C265.67423,265.763 266.21474,267.539 267.14132,268.62 C268.06789,269.779 269.3805,270.242 270.9248,270.165 C272.5464,270.087 273.7046,269.547 274.4767,268.543 C275.1717,267.539 275.7122,265.995 275.9438,263.91 L276.4843,259.895 C277.0248,255.494 278.2603,252.174 280.1134,250.012 C281.9666,247.85 284.7463,246.614 288.2982,246.46 C290.383,246.383 292.2361,246.614 293.9349,247.232 C295.6336,247.85 297.1007,248.853 298.4133,250.166 C299.726,251.479 300.7298,253.1 301.5019,255.108 C302.2741,257.115 302.7374,259.355 302.8918,261.98 Z"/><polygon fill="#FFF" fill-rule="nonzero" points="303.046 225.534 260.578 217.967 261.968 209.937 297.332 216.191 300.267 199.436 307.37 200.671"/><polygon fill="#FFF" fill-rule="nonzero" points="308.682 197.119 302.428 195.112 304.127 189.707 275.557 180.518 273.858 185.923 267.604 183.916 273.549 165.23 279.804 167.237 278.028 172.719 306.597 181.908 308.373 176.426 314.628 178.433"/><polygon fill="#FFF" fill-rule="nonzero" points="305.517 150.867 308.992 159.052 320.343 164.766 316.714 172.024 278.183 152.721 281.812 145.462 300.807 154.96 300.962 154.651 296.483 145.54 289.534 130.097 293.704 121.68 303.046 143.146 332.774 139.903 328.527 148.628"/><polygon fill="#FFF" fill-rule="nonzero" points="335.553 136.661 301.115 110.717 318.257 88.016 324.048 92.34 311.848 108.478 320.187 114.732 330.997 100.447 336.789 104.771 325.978 119.056 334.781 125.696 346.981 109.559 352.772 113.883"/><polygon fill="#FFF" fill-rule="nonzero" points="373.62 54.581 373.388 54.736 374.933 62.225 377.867 80.525 360.957 72.958 354.162 69.561 353.93 69.715 372.771 94.269 366.671 98.98 340.418 64.773 347.753 59.137 369.373 69.097 369.605 68.943 365.435 45.547 372.462 40.142 398.715 74.348 392.615 79.058"/><polygon fill="#FFF" fill-rule="nonzero" points="405.82 70.718 386.902 31.956 412.46 19.525 415.626 26.011 397.403 34.89 401.959 44.31 418.097 36.435 421.263 42.921 405.125 50.797 409.912 60.68 428.135 51.8 431.301 58.286"/><path fill="#FFF" fill-rule="nonzero" d="M467.592 48.712C464.812 49.3297 462.187 49.4069 459.793 48.9436 457.399 48.4804 455.16 47.5538 453.153 46.0867 451.145 44.6196 449.446 42.612 448.056 40.1412 446.667 37.6703 445.585 34.6589 444.813 31.107 444.041 27.5551 443.81 24.3121 444.041 21.3779 444.273 18.4438 445.045 15.8957 446.203 13.6565 447.361 11.4172 448.983 9.6413 450.991 8.1742 452.998 6.70712 455.392 5.70333 458.172 5.08561 461.955 4.23625 465.275 4.39068 468.132 5.47168 470.989 6.55269 473.46 8.56028 475.699 11.4944L469.677 16.5906C468.673 14.8147 467.36 13.502 465.739 12.6527 464.117 11.8033 462.109 11.6489 459.716 12.1122 456.704 12.7299 454.62 14.2742 453.23 16.6678 451.917 19.0615 451.608 22.0729 452.38 25.702L453.77 32.3425C454.542 35.9716 456.009 38.5969 458.172 40.2184 460.334 41.7627 462.882 42.226 465.893 41.6082 468.287 41.0677 470.063 40.0639 471.298 38.4424 472.533 36.8209 473.306 34.9678 473.537 32.9602L480.795 35.3538C479.946 38.8285 478.402 41.6855 476.24 44.0019 474.309 46.3956 471.375 47.9399 467.592 48.712ZM496.238 44.0796 488.053 44.3112 486.972 1.22536 506.43.68485C508.438.60764 510.214.9165 511.758 1.457 513.302 1.9975 514.692 2.92408 515.773 4.00509 516.932 5.16331 517.781 6.55318 518.399 8.17469 519.016 9.7962 519.402 11.6494 519.402 13.6569 519.48 16.5911 518.862 19.2164 517.626 21.3784 516.314 23.5404 514.383 25.162 511.758 26.0885L521.024 43.3847 511.913 43.6163 503.496 27.2468 495.775 27.4784 496.238 44.0796ZM506.121 20.3746C507.666 20.2974 508.901 19.9114 509.828 18.9848 510.677 18.1354 511.14 16.9 511.063 15.3557L510.986 12.4987C510.909 10.9544 510.445 9.719 509.519 8.94684 508.592 8.17469 507.357 7.78862 505.813 7.78862L495.311 8.09748 495.62 20.6063 506.121 20.3746Z"/><polygon fill="#FFF" fill-rule="nonzero" points="527.279 44.234 533.919 1.612 562.025 6.013 560.867 13.117 540.869 10.028 539.247 20.375 556.929 23.154 555.771 30.258 538.089 27.479 536.39 38.366 556.389 41.532 555.23 48.635"/><path fill="#FFF" fill-rule="nonzero" d="M587.119,59.0589 L587.505,47.5539 L573.066,42.4577 L566.194,51.7235 L558.395,49.021 L586.27,13.0389 L595.844,16.3591 L595.149,61.7614 L587.119,59.0589 Z M588.586,21.6869 L588.277,21.6097 L577.236,36.5122 L587.968,40.2957 L588.586,21.6869 Z"/><polygon fill="#FFF" fill-rule="nonzero" points="627.504 39.06 610.516 70.641 603.335 66.78 620.323 35.2 609.59 29.408 612.987 23.077 641.711 38.52 638.314 44.851"/><polygon fill="#FFF" fill-rule="nonzero" points="625.341 79.366 651.825 45.392 674.218 62.842 669.739 68.556 653.756 56.124 647.424 64.309 661.554 75.351 657.076 81.065 642.946 70.023 636.151 78.671 652.134 91.103 647.656 96.817"/><polygon fill="#FFF" fill-rule="nonzero" points="700.934 102.532 672.905 124.924 667.809 118.515 695.915 96.123 688.271 86.548 693.907 82.07 714.215 107.551 708.578 112.029"/><polygon fill="#FFF" fill-rule="nonzero" points="711.59 153.029 703.174 137.123 687.113 145.694 683.252 138.513 721.319 118.283 725.18 125.464 709.583 133.726 717.999 149.632 733.596 141.37 737.457 148.551 699.39 168.781 695.529 161.6"/><polygon fill="#FFF" fill-rule="nonzero" points="702.169 176.503 743.325 163.686 751.741 190.788 744.869 192.95 738.846 173.569 728.886 176.658 734.214 193.799 727.341 195.961 722.014 178.82 711.512 182.063 717.535 201.444 710.663 203.606"/><polygon fill="#FFF" fill-rule="nonzero" points="714.138 224.145 757.147 221.21 759 248.853 751.819 249.317 750.506 229.781 740.082 230.476 741.241 247.463 734.06 247.927 732.901 230.939 714.756 232.175"/><path fill="#FFF" fill-rule="nonzero" d="M757.996,270.474 L731.666,267.463 C728.346,267.077 725.721,267.463 723.868,268.544 C722.014,269.625 720.933,271.71 720.624,274.798 C720.238,277.887 720.856,280.126 722.4,281.593 C723.945,283.06 726.338,283.987 729.736,284.373 L756.066,287.384 L755.14,295.337 L729.89,292.48 C726.724,292.094 724.022,291.477 721.86,290.627 C719.621,289.778 717.845,288.62 716.455,287.153 C715.065,285.686 714.138,283.832 713.675,281.67 C713.212,279.508 713.135,276.883 713.443,273.872 C713.752,270.86 714.447,268.312 715.374,266.382 C716.3,264.374 717.613,262.83 719.312,261.672 C721.011,260.514 723.018,259.819 725.335,259.51 C727.728,259.201 730.431,259.201 733.597,259.587 L758.846,262.444 L757.996,270.474 Z"/><polygon fill="#FFF" fill-rule="nonzero" points="739.773 324.91 705.412 314.486 707.806 306.687 742.167 317.111 745.718 305.374 752.668 307.459 743.17 338.654 736.221 336.569"/><path fill="#FFF" fill-rule="nonzero" d="M734.909 357.185 711.359 345.14C708.347 343.595 705.799 343.055 703.715 343.441 701.63 343.827 699.854 345.371 698.464 348.151 697.074 350.931 696.842 353.247 697.692 355.178 698.618 357.108 700.549 358.807 703.56 360.351L727.111 372.397 723.482 379.578 700.858 367.995C698.001 366.528 695.761 365.061 693.986 363.44 692.21 361.818 690.974 360.119 690.202 358.266 689.43 356.413 689.198 354.328 689.584 352.166 689.97 350.004 690.743 347.533 692.132 344.831 693.522 342.128 694.989 339.966 696.611 338.499 698.232 336.955 700.008 335.951 701.939 335.488 703.869 335.025 706.031 335.025 708.348 335.565 710.664 336.106 713.212 337.109 716.069 338.576L738.693 350.159 734.909 357.185ZM675.685 372.86 680.704 366.451 714.601 393.09 702.633 408.379C701.397 409.923 700.085 411.159 698.618 412.008 697.151 412.857 695.606 413.321 694.062 413.475 692.44 413.63 690.819 413.398 689.197 412.857 687.499 412.317 685.877 411.39 684.333 410.155 682.016 408.302 680.395 406.217 679.546 403.823 678.696 401.43 678.696 398.959 679.7 396.256L660.474 392.396 666.11 385.292 684.101 389.23 688.889 383.13 675.685 372.86ZM687.653 395.639C686.649 396.874 686.263 398.109 686.34 399.345 686.418 400.58 687.113 401.661 688.348 402.665L690.587 404.441C691.823 405.445 693.058 405.754 694.216 405.599 695.452 405.368 696.533 404.673 697.459 403.437L703.945 395.175 694.062 387.454 687.653 395.639Z"/><polygon fill="#FFF" fill-rule="nonzero" points="655.841 396.643 684.41 428.918 663.099 447.759 658.311 442.354 673.523 428.918 666.573 421.12 653.138 433.011 648.351 427.606 661.786 415.715 654.528 407.453 639.317 420.888 634.529 415.483"/><path fill="#FFF" fill-rule="nonzero" d="M543.121,440.082 C539.728,424.81 525.663,413.311 510.047,413.001 C509.245,412.983 508.989,413.147 508.989,414.004 C509.026,423.116 509.008,432.227 509.008,441.339 C509.008,441.649 509.135,441.995 508.843,442.342 C507.585,441.084 506.344,439.827 505.085,438.606 C504.684,438.223 504.502,437.822 504.483,437.257 C504.337,433.977 504.173,430.715 504.009,427.435 C503.991,427.034 504.082,426.669 504.21,426.286 C505.25,423.188 506.271,420.072 507.311,416.974 C507.731,415.698 508.15,414.405 508.606,413.038 C505.888,413.111 503.352,413.439 500.817,414.022 C500.178,414.168 499.923,414.459 499.74,415.042 C499.211,416.719 498.609,418.377 498.098,420.054 C497.88,420.783 497.679,420.965 496.949,420.564 C495.326,419.671 493.647,418.888 491.987,418.068 C491.695,417.922 491.44,417.758 491.075,417.976 C488.74,419.416 486.551,421.02 484.599,422.951 C484.818,423.261 485.128,423.316 485.383,423.462 C488.777,425.157 492.17,426.851 495.563,428.546 C495.946,428.728 496.292,428.874 496.311,429.439 C496.365,431.298 496.475,433.139 496.603,434.979 C496.639,435.508 496.457,435.653 495.946,435.617 C494.195,435.508 492.425,435.417 490.656,435.362 C490.054,435.344 489.743,435.107 489.488,434.578 C488.156,431.863 486.788,429.148 485.438,426.432 C484.964,425.485 484.471,424.555 483.979,423.553 C481.99,425.576 480.367,427.763 478.926,430.095 C478.707,430.46 478.871,430.715 479.017,431.006 C479.874,432.719 480.713,434.432 481.607,436.109 C481.899,436.674 481.771,436.856 481.206,437.038 C479.382,437.603 477.576,438.241 475.77,438.824 C475.478,438.916 475.186,438.952 475.095,439.335 C474.438,442.014 474.036,444.729 474,447.572 C474.383,447.462 474.675,447.371 474.949,447.28 C479.035,445.932 483.121,444.583 487.208,443.216 C487.591,443.089 487.956,442.979 488.357,442.998 C491.695,443.162 495.034,443.326 498.372,443.49 C498.773,443.508 499.12,443.599 499.43,443.909 C500.616,445.13 501.82,446.333 503.042,447.517 C503.425,447.9 503.389,448.1 503.024,448.447 C501.856,449.558 500.725,450.706 499.613,451.854 C499.23,452.255 498.81,452.438 498.263,452.474 C495.709,452.583 493.155,452.693 490.619,452.875 C488.831,453.003 487.135,452.857 485.456,452.182 C484.106,451.636 482.702,451.235 481.315,450.779 C478.907,449.996 476.481,449.212 474,448.392 C474.036,451.144 474.401,453.75 475.022,456.319 C475.131,456.793 475.332,457.03 475.806,457.176 C477.594,457.741 479.363,458.379 481.169,458.925 C481.771,459.107 481.936,459.29 481.607,459.909 C480.713,461.586 479.874,463.317 479.017,465.012 C478.889,465.267 478.707,465.504 478.926,465.85 C480.367,468.201 481.99,470.406 483.997,472.429 C484.179,472.101 484.307,471.828 484.453,471.554 C486.15,468.165 487.864,464.793 489.543,461.385 C489.78,460.893 490.09,460.657 490.637,460.638 C492.37,460.584 494.103,460.492 495.836,460.383 C496.438,460.347 496.712,460.456 496.657,461.149 C496.511,462.88 496.42,464.611 496.384,466.324 C496.365,466.944 496.11,467.217 495.599,467.472 C492.17,469.167 488.758,470.88 485.347,472.593 C485.11,472.702 484.818,472.757 484.69,473.067 C486.551,474.908 488.649,476.457 490.856,477.86 C491.33,478.151 491.695,478.151 492.17,477.896 C493.811,477.04 495.49,476.256 497.113,475.381 C497.715,475.053 497.916,475.217 498.098,475.819 C498.664,477.605 499.266,479.391 499.868,481.176 C499.959,481.468 499.996,481.778 500.361,481.869 C503.042,482.525 505.76,482.926 508.533,482.962 C508.57,482.489 508.369,482.124 508.241,481.76 C506.91,477.732 505.578,473.705 504.228,469.677 C504.119,469.331 504.009,468.985 504.027,468.62 C504.192,465.285 504.356,461.95 504.52,458.615 C504.538,458.324 504.502,458.014 504.757,457.759 C506.125,456.392 507.493,455.044 509.026,453.513 C509.026,454.096 509.026,454.442 509.026,454.77 C509.026,463.882 509.026,472.994 509.008,482.106 C509.008,482.817 509.172,483.017 509.901,482.999 C513.313,482.853 516.669,482.343 519.917,481.249 C537.265,475.4 547.098,457.978 543.121,440.082 Z M517.235,473.905 C517.126,473.942 516.998,473.96 516.797,473.996 C516.797,473.65 516.797,473.34 516.797,473.049 C516.797,456.337 516.797,439.644 516.797,422.933 C516.797,421.895 516.815,421.876 517.801,422.241 C528.381,426.25 534.565,433.831 536.043,445.039 C537.703,457.631 529.366,470.297 517.235,473.905 Z"/></g></g></g></svg>