<svg xmlns="http://www.w3.org/2000/svg" xmlns:xlink="http://www.w3.org/1999/xlink" width="500" height="500" viewBox="0 0 500 500"><defs><rect id="a" width="500" height="500" x="0" y="0"/></defs><g fill="none" fill-rule="evenodd"><mask id="b" fill="#fff"><use xlink:href="#a"/></mask><use xlink:href="#a" fill="#FFF" fill-rule="nonzero" opacity="0"/><g mask="url(#b)"><g transform="translate(-330 -622)"><path stroke="#FC1CAE" stroke-width="39.143" d="M1199.846,904.278 L296.2138,0.645"/><path stroke="#FC1CAE" stroke-width="35.429" d="M1182.214,941.509 L278.5812,37.876"/><path stroke="#FC1CAE" stroke-width="31.714" d="M1164.581,978.775 L260.9484,75.143"/><path stroke="#FC1CAE" stroke-width="28" d="M1146.948,1016.006 L243.3157,112.373"/><path stroke="#FC1CAE" stroke-width="24.286" d="M1129.316,1053.237 L225.683,149.604"/><path stroke="#FC1CAE" stroke-width="20.571" d="M1111.683,1090.503 L208.05,186.871"/><path stroke="#FC1CAE" stroke-width="16.857" d="M1094.05,1127.734 L190.418,224.101"/><path stroke="#FC1CAE" stroke-width="13.143" d="M1076.418,1164.965 L172.785,261.332"/><path stroke="#FC1CAE" stroke-width="9.429" d="M1058.785,1202.195 L155.152,298.563"/><path stroke="#FC1CAE" stroke-width="5.714" d="M1041.152,1239.462 L137.52,335.829"/><path stroke="#FC1CAE" stroke-width="2" d="M1023.52,1276.693 L119.887,373.06"/><path fill="#00F3FF" fill-rule="nonzero" d="M344.4945,774.087 L366.8108,796.403 C370.714,800.306 373.6556,804.492 375.6355,808.961 C377.6154,813.43 378.4922,818.04 378.2659,822.792 C378.0962,827.487 376.7668,832.324 374.2778,837.302 C371.8454,842.224 368.1684,847.145 363.2469,852.066 C358.3255,856.988 353.3757,860.693 348.3977,863.182 C343.4762,865.615 338.63964,866.944 333.88788,867.17 C329.192687,867.34 324.61063,866.435 320.14172,864.455 C315.6728,862.475 311.4867,859.534 307.5835,855.63 L285.2672,833.314 L344.4945,774.087 Z M319.0386,844.175 C322.8853,848.022 326.98652,849.973 331.34229,850.03 C335.69807,850.087 340.2518,847.739 345.0036,842.987 L354.1677,833.823 C358.9195,829.071 361.2671,824.518 361.2105,820.162 C361.1539,815.806 359.2023,811.705 355.3556,807.858 L345.937,798.439 L309.62,834.757 L319.0386,844.175 Z M344.4322,892.479 L403.6594,833.252 L443.965,873.557 L432.509,885.012 L405.1019,857.604 L392.968,869.738 L416.4722,893.243 L405.1019,904.613 L381.5977,881.109 L368.7849,893.921 L396.1924,921.329 L384.7373,932.784 L344.4322,892.479 Z M395.9736,944.02 L455.201,884.793 L494.488,924.08 L483.033,935.535 L456.643,909.146 L444.509,921.28 L466.995,943.766 L455.625,955.136 L433.139,932.65 L408.8712,956.918 L395.9736,944.02 Z M443.318,991.365 L453.585,981.098 L461.222,988.735 L499.915,950.042 L492.278,942.405 L502.545,932.138 L530.717,960.309 L520.449,970.576 L512.813,962.939 L474.12,1001.632 L481.756,1009.269 L471.489,1019.536 L443.318,991.365 Z M505.145,1055.229 C501.129,1051.212 498.131,1046.97 496.151,1042.501 C494.228,1037.975 493.379,1033.337 493.605,1028.585 C493.888,1023.777 495.274,1018.883 497.763,1013.905 C500.309,1008.871 504.099,1003.836 509.133,998.802 C514.111,993.823 519.146,990.033 524.237,987.431 C529.385,984.773 534.391,983.273 539.256,982.934 C544.178,982.538 548.929,983.273 553.511,985.14 C558.094,987.007 562.393,989.949 566.409,993.965 C571.896,999.452 575.29,1005.109 576.591,1010.935 C577.949,1016.705 577.299,1023.069 574.64,1030.027 L557.754,1024.682 C559.451,1021.401 560.187,1018.176 559.96,1015.008 C559.847,1011.841 558.178,1008.644 554.954,1005.42 C551.164,1001.63 546.865,999.82 542.056,999.989 C537.361,1000.159 532.666,1002.592 527.971,1007.287 L518.467,1016.79 C513.772,1021.486 511.311,1026.209 511.085,1030.961 C510.972,1035.712 512.81,1039.983 516.601,1043.774 C519.768,1046.941 523.134,1048.61 526.698,1048.78 C530.375,1048.95 533.882,1048.271 537.22,1046.743 L541.632,1063.375 C534.9,1065.694 528.48,1066.288 522.371,1065.156 C516.374,1064.025 510.633,1060.716 505.145,1055.229 Z M597.242,1096.753 L574.671,1074.182 L550.403,1098.45 L537.505,1085.552 L596.733,1026.325 L609.63,1039.223 L586.041,1062.812 L608.612,1085.383 L632.201,1061.793 L645.099,1074.691 L585.872,1133.918 L572.974,1121.021 L597.242,1096.753 Z M635.394,1183.441 L645.237,1165.113 L625.467,1145.342 L607.138,1155.185 L594.071,1142.118 L672.815,1102.407 L688.767,1118.359 L648.801,1196.848 L635.394,1183.441 Z M668.911,1121.923 L668.487,1121.499 L639.467,1137.451 L653.044,1151.027 L668.911,1121.923 Z M654.704,1202.751 L664.972,1192.484 L672.608,1200.121 L711.301,1161.428 L703.665,1153.791 L713.932,1143.524 L742.103,1171.695 L731.836,1181.962 L724.199,1174.326 L685.506,1213.018 L693.143,1220.655 L682.876,1230.922 L654.704,1202.751 Z M739.696,1231.74 L745.891,1214.176 L745.636,1213.921 L705.755,1253.802 L693.621,1241.668 L752.849,1182.441 L766.934,1196.526 L755.14,1240.735 L748.945,1258.299 L749.2,1258.554 L789.081,1218.673 L801.215,1230.807 L741.987,1290.034 L727.902,1275.949 L739.696,1231.74 Z"/><path fill="#00F3FF" fill-rule="nonzero" d="M344.4945 774.087 345.2016 773.38 344.4945 772.673 343.7874 773.38 344.4945 774.087ZM375.6355 808.961 376.5498 808.556 376.5498 808.556 375.6355 808.961ZM378.2659 822.792 377.267 822.745 377.2666 822.756 378.2659 822.792ZM374.2778 837.302 373.3834 836.855 373.3813 836.859 374.2778 837.302ZM348.3977 863.182 348.8408 864.079 348.8449 864.077 348.3977 863.182ZM333.88788 867.17 333.924 868.17 333.93544 868.169 333.88788 867.17ZM320.14172 864.455 319.7367 865.369 320.14172 864.455ZM285.2672 833.314 284.5601 832.607 283.853 833.314 284.5601 834.021 285.2672 833.314ZM361.2105 820.162 362.2104 820.149 361.2105 820.162ZM345.937 798.439 346.6441 797.732 345.937 797.025 345.2299 797.732 345.937 798.439ZM309.62 834.757 308.9129 834.049 308.2058 834.757 308.9129 835.464 309.62 834.757ZM343.7874 774.794 366.1037 797.11 367.5179 795.696 345.2016 773.38 343.7874 774.794ZM366.1037 797.11C369.931 800.937 372.7972 805.024 374.7212 809.366L376.5498 808.556C374.5139 803.961 371.497 799.675 367.5179 795.696L366.1037 797.11ZM374.7212 809.366C376.6398 813.697 377.4857 818.153 377.267 822.745L379.2648 822.84C379.4987 817.928 378.5909 813.163 376.5498 808.556L374.7212 809.366ZM377.2666 822.756C377.1029 827.284 375.8201 831.981 373.3834 836.855L375.1722 837.749C377.7136 832.667 379.0895 827.69 379.2652 822.828L377.2666 822.756ZM373.3813 836.859C371.0082 841.661 367.4039 846.495 362.5398 851.359L363.9541 852.774C368.9329 847.795 372.6826 842.787 375.1743 837.745L373.3813 836.859ZM362.5398 851.359C357.6762 856.223 352.8118 859.857 347.9505 862.288L348.8449 864.077C353.9397 861.529 358.9748 857.753 363.9541 852.774L362.5398 851.359ZM347.9546 862.286C343.1377 864.667 338.43502 865.953 333.84031 866.171L333.93544 868.169C338.84426 867.935 343.8148 866.563 348.8408 864.079L347.9546 862.286ZM333.85176 866.171C329.31435 866.335 324.88275 865.462 320.54678 863.541L319.7367 865.369C324.33851 867.408 329.071023 868.345 333.924 868.17L333.85176 866.171ZM320.54678 863.541C316.2041 861.617 312.118 858.751 308.2906 854.923L306.8764 856.337C310.8555 860.317 315.1416 863.333 319.7367 865.369L320.54678 863.541ZM308.2906 854.923 285.9743 832.607 284.5601 834.021 306.8764 856.337 308.2906 854.923ZM285.9743 834.021 345.2016 774.794 343.7874 773.38 284.5601 832.607 285.9743 834.021ZM318.3315 844.882C322.31427 848.865 326.65172 850.969 331.32931 851.03L331.35528 849.03C327.32131 848.978 323.45632 847.179 319.7457 843.468L318.3315 844.882ZM331.32931 851.03C336.07071 851.092 340.8697 848.535 345.7107 843.694L344.2965 842.28C339.63393 846.943 335.32543 849.082 331.35528 849.03L331.32931 851.03ZM345.7107 843.694 354.8748 834.53 353.4606 833.116 344.2965 842.28 345.7107 843.694ZM354.8748 834.53C359.7158 829.689 362.272 824.89 362.2104 820.149L360.2106 820.175C360.2621 824.145 358.1232 828.453 353.4606 833.116L354.8748 834.53ZM362.2104 820.149C362.1497 815.471 360.0455 811.134 356.0627 807.151L354.6485 808.565C358.3591 812.276 360.1582 816.141 360.2106 820.175L362.2104 820.149ZM356.0627 807.151 346.6441 797.732 345.2299 799.147 354.6485 808.565 356.0627 807.151ZM345.2299 797.732 308.9129 834.049 310.3271 835.464 346.6441 799.147 345.2299 797.732ZM308.9129 835.464 318.3315 844.882 319.7457 843.468 310.3271 834.049 308.9129 835.464ZM344.4322 892.479 343.7251 891.772 343.0179 892.479 343.7251 893.186 344.4322 892.479ZM403.6594 833.252 404.3665 832.545 403.6594 831.837 402.9523 832.545 403.6594 833.252ZM443.965 873.557 444.672 874.264 445.379 873.557 444.672 872.85 443.965 873.557ZM432.509 885.012 431.802 885.719 432.509 886.426 433.216 885.719 432.509 885.012ZM405.1019 857.604 405.809 856.897 405.1019 856.19 404.3948 856.897 405.1019 857.604ZM392.968 869.738 392.2609 869.031 391.5538 869.738 392.2609 870.446 392.968 869.738ZM416.4722 893.243 417.1793 893.95 417.8864 893.243 417.1793 892.536 416.4722 893.243ZM405.1019 904.613 404.3948 905.32 405.1019 906.027 405.809 905.32 405.1019 904.613ZM381.5977 881.109 382.3048 880.402 381.5977 879.694 380.8906 880.402 381.5977 881.109ZM368.7849 893.921 368.0778 893.214 367.3707 893.921 368.0778 894.629 368.7849 893.921ZM396.1924 921.329 396.8995 922.036 397.6066 921.329 396.8995 920.622 396.1924 921.329ZM384.7373 932.784 384.0301 933.491 384.7373 934.198 385.4444 933.491 384.7373 932.784ZM345.1393 893.186 404.3665 833.959 402.9523 832.545 343.7251 891.772 345.1393 893.186ZM402.9523 833.959 443.257 874.264 444.672 872.85 404.3665 832.545 402.9523 833.959ZM443.257 872.85 431.802 884.305 433.216 885.719 444.672 874.264 443.257 872.85ZM433.216 884.305 405.809 856.897 404.3948 858.312 431.802 885.719 433.216 884.305ZM404.3948 856.897 392.2609 869.031 393.6751 870.446 405.809 858.312 404.3948 856.897ZM392.2609 870.446 415.7651 893.95 417.1793 892.536 393.6751 869.031 392.2609 870.446ZM415.7651 892.536 404.3948 903.906 405.809 905.32 417.1793 893.95 415.7651 892.536ZM405.809 903.906 382.3048 880.402 380.8906 881.816 404.3948 905.32 405.809 903.906ZM380.8906 880.402 368.0778 893.214 369.492 894.629 382.3048 881.816 380.8906 880.402ZM368.0778 894.629 395.4853 922.036 396.8995 920.622 369.492 893.214 368.0778 894.629ZM395.4853 920.622 384.0301 932.077 385.4444 933.491 396.8995 922.036 395.4853 920.622ZM385.4444 932.077 345.1393 891.772 343.7251 893.186 384.0301 933.491 385.4444 932.077ZM395.9736 944.02 395.2665 943.313 394.5594 944.02 395.2665 944.728 395.9736 944.02ZM455.201 884.793 455.908 884.086 455.201 883.379 454.494 884.086 455.201 884.793ZM494.488 924.08 495.195 924.787 495.902 924.08 495.195 923.373 494.488 924.08ZM483.033 935.535 482.325 936.242 483.033 936.949 483.74 936.242 483.033 935.535ZM456.643 909.146 457.35 908.439 456.643 907.732 455.936 908.439 456.643 909.146ZM444.509 921.28 443.802 920.573 443.095 921.28 443.802 921.987 444.509 921.28ZM466.995 943.766 467.703 944.473 468.41 943.766 467.703 943.059 466.995 943.766ZM455.625 955.136 454.918 955.843 455.625 956.55 456.332 955.843 455.625 955.136ZM433.139 932.65 433.846 931.943 433.139 931.236 432.432 931.943 433.139 932.65ZM408.8712 956.918 408.1641 957.625 408.8712 958.332 409.5783 957.625 408.8712 956.918ZM396.6807 944.728 455.908 885.5 454.494 884.086 395.2665 943.313 396.6807 944.728ZM454.494 885.5 493.781 924.787 495.195 923.373 455.908 884.086 454.494 885.5ZM493.781 923.373 482.325 934.828 483.74 936.242 495.195 924.787 493.781 923.373ZM483.74 934.828 457.35 908.439 455.936 909.853 482.325 936.242 483.74 934.828ZM455.936 908.439 443.802 920.573 445.217 921.987 457.35 909.853 455.936 908.439ZM443.802 921.987 466.288 944.473 467.703 943.059 445.217 920.573 443.802 921.987ZM466.288 943.059 454.918 954.429 456.332 955.843 467.703 944.473 466.288 943.059ZM456.332 954.429 433.846 931.943 432.432 933.357 454.918 955.843 456.332 954.429ZM432.432 931.943 408.1641 956.211 409.5783 957.625 433.846 933.357 432.432 931.943ZM409.5783 956.211 396.6807 943.313 395.2665 944.728 408.1641 957.625 409.5783 956.211ZM443.318 991.365 442.611 990.658 441.904 991.365 442.611 992.072 443.318 991.365ZM453.585 981.098 454.292 980.391 453.585 979.684 452.878 980.391 453.585 981.098ZM461.222 988.735 460.515 989.442 461.222 990.149 461.929 989.442 461.222 988.735ZM499.915 950.042 500.622 950.749 501.329 950.042 500.622 949.335 499.915 950.042ZM492.278 942.405 491.571 941.698 490.864 942.405 491.571 943.112 492.278 942.405ZM502.545 932.138 503.253 931.431 502.545 930.723 501.838 931.431 502.545 932.138ZM530.717 960.309 531.424 961.016 532.131 960.309 531.424 959.602 530.717 960.309ZM520.449 970.576 519.742 971.283 520.449 971.99 521.156 971.283 520.449 970.576ZM512.813 962.939 513.52 962.232 512.813 961.525 512.106 962.232 512.813 962.939ZM474.12 1001.632 473.413 1000.925 472.706 1001.632 473.413 1002.339 474.12 1001.632ZM481.756 1009.269 482.464 1009.976 483.171 1009.269 482.464 1008.562 481.756 1009.269ZM471.489 1019.536 470.782 1020.243 471.489 1020.95 472.196 1020.243 471.489 1019.536ZM444.025 992.072 454.292 981.805 452.878 980.391 442.611 990.658 444.025 992.072ZM452.878 981.805 460.515 989.442 461.929 988.027 454.292 980.391 452.878 981.805ZM461.929 989.442 500.622 950.749 499.208 949.335 460.515 988.027 461.929 989.442ZM500.622 949.335 492.985 941.698 491.571 943.112 499.208 950.749 500.622 949.335ZM492.985 943.112 503.253 932.845 501.838 931.431 491.571 941.698 492.985 943.112ZM501.838 932.845 530.009 961.016 531.424 959.602 503.253 931.431 501.838 932.845ZM530.009 959.602 519.742 969.869 521.156 971.283 531.424 961.016 530.009 959.602ZM521.156 969.869 513.52 962.232 512.106 963.646 519.742 971.283 521.156 969.869ZM512.106 962.232 473.413 1000.925 474.827 1002.339 513.52 963.646 512.106 962.232ZM473.413 1002.339 481.049 1009.976 482.464 1008.562 474.827 1000.925 473.413 1002.339ZM481.049 1008.562 470.782 1018.829 472.196 1020.243 482.464 1009.976 481.049 1008.562ZM472.196 1018.829 444.025 990.658 442.611 992.072 470.782 1020.243 472.196 1018.829ZM496.151 1042.501 495.231 1042.892 495.234 1042.899 495.237 1042.906 496.151 1042.501ZM493.605 1028.585 492.607 1028.526 492.607 1028.537 493.605 1028.585ZM497.763 1013.905 496.871 1013.454 496.869 1013.458 497.763 1013.905ZM524.237 987.431 524.692 988.322 524.696 988.32 524.237 987.431ZM539.256 982.934 539.326 983.932 539.336 983.931 539.256 982.934ZM553.511 985.14 553.889 984.214 553.511 985.14ZM576.591 1010.935 575.615 1011.153 575.618 1011.165 576.591 1010.935ZM574.64 1030.027 574.338 1030.981 575.237 1031.265 575.574 1030.384 574.64 1030.027ZM557.754 1024.682 556.866 1024.222 556.32 1025.277 557.452 1025.635 557.754 1024.682ZM559.96 1015.008 558.961 1015.044 558.962 1015.062 558.963 1015.08 559.96 1015.008ZM542.056 999.989 542.021 998.99 542.02 998.99 542.056 999.989ZM511.085 1030.961 510.086 1030.913 510.086 1030.925 510.085 1030.937 511.085 1030.961ZM526.698 1048.78 526.65 1049.779 526.652 1049.779 526.698 1048.78ZM537.22 1046.743 538.186 1046.487 537.882 1045.34 536.804 1045.834 537.22 1046.743ZM541.632 1063.375 541.958 1064.32 542.837 1064.017 542.599 1063.118 541.632 1063.375ZM522.37 1065.156 522.185 1066.139 522.188 1066.14 522.37 1065.156ZM505.852 1054.522C501.909 1050.578 498.988 1046.435 497.065 1042.096L495.237 1042.906C497.274 1047.504 500.349 1051.846 504.438 1055.936L505.852 1054.522ZM497.071 1042.11C495.205 1037.718 494.385 1033.229 494.604 1028.632L492.607 1028.537C492.373 1033.444 493.251 1038.233 495.231 1042.892L497.071 1042.11ZM494.604 1028.644C494.877 1023.99 496.22 1019.228 498.658 1014.353L496.869 1013.458C494.329 1018.539 492.899 1023.563 492.607 1028.526L494.604 1028.644ZM498.656 1014.357C501.143 1009.438 504.862 1004.487 509.841 999.509L508.426 998.094C503.336 1003.185 499.475 1008.304 496.871 1013.454L498.656 1014.357ZM509.841 999.509C514.761 994.588 519.713 990.867 524.692 988.322L523.782 986.541C518.579 989.2 513.462 993.059 508.426 998.094L509.841 999.509ZM524.696 988.32C529.745 985.712 534.62 984.26 539.326 983.932L539.187 981.936C534.163 982.287 529.025 983.833 523.778 986.543L524.696 988.32ZM539.336 983.931C544.102 983.547 548.697 984.258 553.134 986.066L553.889 984.214C549.162 982.288 544.254 981.529 539.176 981.937L539.336 983.931ZM553.134 986.066C557.576 987.876 561.766 990.736 565.702 994.672L567.116 993.258C563.019 989.161 558.611 986.138 553.889 984.214L553.134 986.066ZM565.702 994.672C571.095 1000.065 574.367 1005.56 575.615 1011.153L577.567 1010.718C576.214 1004.658 572.698 998.84 567.116 993.258L565.702 994.672ZM575.618 1011.165C576.919 1016.695 576.311 1022.851 573.706 1029.67L575.574 1030.384C578.286 1023.287 578.979 1016.716 577.565 1010.706L575.618 1011.165ZM574.942 1029.074 558.056 1023.728 557.452 1025.635 574.338 1030.981 574.942 1029.074ZM558.642 1025.141C560.41 1021.724 561.199 1018.317 560.958 1014.937L558.963 1015.08C559.174 1018.036 558.492 1021.078 556.866 1024.222L558.642 1025.141ZM560.96 1014.973C560.834 1011.46 558.986 1008.038 555.661 1004.713L554.247 1006.127C557.37 1009.251 558.86 1012.221 558.961 1015.044L560.96 1014.973ZM555.661 1004.713C551.7 1000.751 547.14 998.809 542.021 998.99L542.092 1000.989C546.589 1000.83 550.628 1002.508 554.247 1006.127L555.661 1004.713ZM542.02 998.99C536.985 999.172 532.064 1001.78 527.264 1006.58L528.678 1007.994C533.268 1003.404 537.738 1001.146 542.092 1000.989L542.02 998.99ZM527.264 1006.58 517.76 1016.083 519.174 1017.497 528.678 1007.994 527.264 1006.58ZM517.76 1016.083C512.959 1020.885 510.328 1025.829 510.086 1030.913L512.084 1031.008C512.294 1026.589 514.585 1022.086 519.174 1017.497L517.76 1016.083ZM510.085 1030.937C509.965 1035.998 511.937 1040.524 515.893 1044.481L517.308 1043.066C513.684 1039.443 511.979 1035.427 512.085 1030.985L510.085 1030.937ZM515.893 1044.481C519.19 1047.778 522.779 1049.594 526.65 1049.779L526.746 1047.781C523.489 1047.626 520.346 1046.105 517.308 1043.066L515.893 1044.481ZM526.652 1049.779C530.487 1049.956 534.153 1049.246 537.636 1047.653L536.804 1045.834C533.611 1047.295 530.263 1047.943 526.744 1047.781L526.652 1049.779ZM536.253 1047 540.666 1063.631 542.599 1063.118 538.186 1046.487 536.253 1047ZM541.306 1062.429C534.714 1064.7 528.469 1065.269 522.553 1064.173L522.188 1066.14C528.491 1067.307 535.087 1066.687 541.958 1064.32L541.306 1062.429ZM522.556 1064.174C516.805 1063.089 511.236 1059.905 505.852 1054.522L504.438 1055.936C510.029 1061.527 515.944 1064.961 522.185 1066.139L522.556 1064.174ZM597.242 1096.753 597.949 1097.46 598.656 1096.753 597.949 1096.046 597.242 1096.753ZM574.671 1074.182 575.378 1073.475 574.671 1072.768 573.964 1073.475 574.671 1074.182ZM550.403 1098.45 549.696 1099.157 550.403 1099.864 551.11 1099.157 550.403 1098.45ZM537.505 1085.552 536.798 1084.845 536.091 1085.552 536.798 1086.259 537.505 1085.552ZM596.733 1026.325 597.44 1025.618 596.733 1024.911 596.026 1025.618 596.733 1026.325ZM609.63 1039.223 610.337 1039.93 611.045 1039.223 610.337 1038.516 609.63 1039.223ZM586.041 1062.812 585.334 1062.105 584.627 1062.812 585.334 1063.519 586.041 1062.812ZM608.612 1085.383 607.905 1086.09 608.612 1086.797 609.319 1086.09 608.612 1085.383ZM632.201 1061.793 632.908 1061.086 632.201 1060.379 631.494 1061.086 632.201 1061.793ZM645.099 1074.691 645.806 1075.398 646.513 1074.691 645.806 1073.984 645.099 1074.691ZM585.872 1133.918 585.164 1134.625 585.872 1135.333 586.579 1134.625 585.872 1133.918ZM572.974 1121.021 572.267 1120.314 571.56 1121.021 572.267 1121.728 572.974 1121.021ZM597.949 1096.046 575.378 1073.475 573.964 1074.889 596.535 1097.46 597.949 1096.046ZM573.964 1073.475 549.696 1097.743 551.11 1099.157 575.378 1074.889 573.964 1073.475ZM551.11 1097.743 538.213 1084.845 536.798 1086.259 549.696 1099.157 551.11 1097.743ZM538.213 1086.259 597.44 1027.032 596.026 1025.618 536.798 1084.845 538.213 1086.259ZM596.026 1027.032 608.923 1039.93 610.337 1038.516 597.44 1025.618 596.026 1027.032ZM608.923 1038.516 585.334 1062.105 586.748 1063.519 610.337 1039.93 608.923 1038.516ZM585.334 1063.519 607.905 1086.09 609.319 1084.675 586.748 1062.105 585.334 1063.519ZM609.319 1086.09 632.908 1062.501 631.494 1061.086 607.905 1084.675 609.319 1086.09ZM631.494 1062.501 644.392 1075.398 645.806 1073.984 632.908 1061.086 631.494 1062.501ZM644.392 1073.984 585.164 1133.211 586.579 1134.625 645.806 1075.398 644.392 1073.984ZM586.579 1133.211 573.681 1120.314 572.267 1121.728 585.164 1134.625 586.579 1133.211ZM573.681 1121.728 597.949 1097.46 596.535 1096.046 572.267 1120.314 573.681 1121.728ZM635.394 1183.441 634.513 1182.968 634.162 1183.623 634.687 1184.148 635.394 1183.441ZM645.237 1165.113 646.118 1165.586 646.47 1164.931 645.944 1164.406 645.237 1165.113ZM625.467 1145.342 626.174 1144.635 625.648 1144.11 624.994 1144.461 625.467 1145.342ZM607.138 1155.185 606.431 1155.892 606.957 1156.418 607.612 1156.066 607.138 1155.185ZM594.071 1142.118 593.621 1141.225 592.387 1141.848 593.364 1142.825 594.071 1142.118ZM672.815 1102.407 673.522 1101.7 673.01 1101.188 672.364 1101.514 672.815 1102.407ZM688.767 1118.359 689.658 1118.813 689.988 1118.166 689.474 1117.652 688.767 1118.359ZM648.801 1196.848 648.094 1197.555 649.068 1198.529 649.692 1197.302 648.801 1196.848ZM668.911 1121.923 669.789 1122.402 670.147 1121.745 669.618 1121.216 668.911 1121.923ZM668.487 1121.499 669.194 1120.792 668.663 1120.261 668.005 1120.622 668.487 1121.499ZM639.467 1137.451 638.986 1136.575 637.818 1137.216 638.76 1138.158 639.467 1137.451ZM653.044 1151.027 652.337 1151.735 653.282 1152.68 653.922 1151.506 653.044 1151.027ZM636.275 1183.914 646.118 1165.586 644.356 1164.64 634.513 1182.968 636.275 1183.914ZM645.944 1164.406 626.174 1144.635 624.76 1146.049 644.53 1165.82 645.944 1164.406ZM624.994 1144.461 606.665 1154.304 607.612 1156.066 625.94 1146.223 624.994 1144.461ZM607.846 1154.478 594.778 1141.411 593.364 1142.825 606.431 1155.892 607.846 1154.478ZM594.521 1143.011 673.265 1103.3 672.364 1101.514 593.621 1141.225 594.521 1143.011ZM672.107 1103.114 688.06 1119.066 689.474 1117.652 673.522 1101.7 672.107 1103.114ZM687.876 1117.905 647.91 1196.394 649.692 1197.302 689.658 1118.813 687.876 1117.905ZM649.508 1196.141 636.102 1182.734 634.687 1184.148 648.094 1197.555 649.508 1196.141ZM669.618 1121.216 669.194 1120.792 667.78 1122.206 668.204 1122.63 669.618 1121.216ZM668.005 1120.622 638.986 1136.575 639.949 1138.327 668.969 1122.375 668.005 1120.622ZM638.76 1138.158 652.337 1151.735 653.751 1150.32 640.174 1136.744 638.76 1138.158ZM653.922 1151.506 669.789 1122.402 668.033 1121.444 652.166 1150.549 653.922 1151.506ZM654.704 1202.751 653.997 1202.044 653.29 1202.751 653.997 1203.458 654.704 1202.751ZM664.972 1192.484 665.679 1191.777 664.972 1191.07 664.265 1191.777 664.972 1192.484ZM672.608 1200.121 671.901 1200.828 672.608 1201.535 673.315 1200.828 672.608 1200.121ZM711.301 1161.428 712.008 1162.135 712.715 1161.428 712.008 1160.721 711.301 1161.428ZM703.664 1153.791 702.957 1153.084 702.25 1153.791 702.957 1154.498 703.664 1153.791ZM713.932 1143.524 714.639 1142.817 713.932 1142.11 713.225 1142.817 713.932 1143.524ZM742.103 1171.695 742.81 1172.402 743.517 1171.695 742.81 1170.988 742.103 1171.695ZM731.836 1181.962 731.129 1182.669 731.836 1183.377 732.543 1182.669 731.836 1181.962ZM724.199 1174.326 724.906 1173.618 724.199 1172.911 723.492 1173.618 724.199 1174.326ZM685.506 1213.018 684.799 1212.311 684.092 1213.018 684.799 1213.725 685.506 1213.018ZM693.143 1220.655 693.85 1221.362 694.557 1220.655 693.85 1219.948 693.143 1220.655ZM682.876 1230.922 682.168 1231.629 682.876 1232.337 683.583 1231.629 682.876 1230.922ZM655.412 1203.458 665.679 1193.191 664.265 1191.777 653.997 1202.044 655.412 1203.458ZM664.265 1193.191 671.901 1200.828 673.315 1199.414 665.679 1191.777 664.265 1193.191ZM673.315 1200.828 712.008 1162.135 710.594 1160.721 671.901 1199.414 673.315 1200.828ZM712.008 1160.721 704.372 1153.084 702.957 1154.498 710.594 1162.135 712.008 1160.721ZM704.372 1154.498 714.639 1144.231 713.225 1142.817 702.957 1153.084 704.372 1154.498ZM713.225 1144.231 741.396 1172.402 742.81 1170.988 714.639 1142.817 713.225 1144.231ZM741.396 1170.988 731.129 1181.255 732.543 1182.669 742.81 1172.402 741.396 1170.988ZM732.543 1181.255 724.906 1173.618 723.492 1175.033 731.129 1182.669 732.543 1181.255ZM723.492 1173.618 684.799 1212.311 686.213 1213.725 724.906 1175.033 723.492 1173.618ZM684.799 1213.725 692.436 1221.362 693.85 1219.948 686.213 1212.311 684.799 1213.725ZM692.436 1219.948 682.168 1230.215 683.583 1231.629 693.85 1221.362 692.436 1219.948ZM683.583 1230.215 655.412 1202.044 653.997 1203.458 682.168 1231.629 683.583 1230.215ZM739.696 1231.74 738.753 1231.408 738.74 1231.445 738.73 1231.483 739.696 1231.74ZM745.891 1214.176 746.834 1214.508 747.043 1213.914 746.598 1213.469 745.891 1214.176ZM745.636 1213.921 746.343 1213.214 745.636 1212.507 744.929 1213.214 745.636 1213.921ZM705.755 1253.802 705.048 1254.509 705.755 1255.216 706.462 1254.509 705.755 1253.802ZM693.621 1241.668 692.914 1240.961 692.207 1241.668 692.914 1242.375 693.621 1241.668ZM752.849 1182.441 753.556 1181.734 752.849 1181.027 752.142 1181.734 752.849 1182.441ZM766.934 1196.526 767.9 1196.784 768.049 1196.227 767.641 1195.819 766.934 1196.526ZM755.14 1240.735 756.083 1241.067 756.096 1241.03 756.106 1240.993 755.14 1240.735ZM748.945 1258.299 748.002 1257.967 747.793 1258.561 748.238 1259.006 748.945 1258.299ZM749.2 1258.554 748.493 1259.261 749.2 1259.968 749.907 1259.261 749.2 1258.554ZM789.081 1218.673 789.788 1217.966 789.081 1217.259 788.374 1217.966 789.081 1218.673ZM801.215 1230.807 801.922 1231.514 802.629 1230.807 801.922 1230.1 801.215 1230.807ZM741.987 1290.034 741.28 1290.741 741.987 1291.448 742.695 1290.741 741.987 1290.034ZM727.902 1275.949 726.936 1275.691 726.787 1276.248 727.195 1276.656 727.902 1275.949ZM740.64 1232.073 746.834 1214.508 744.948 1213.843 738.753 1231.408 740.64 1232.073ZM746.598 1213.469 746.343 1213.214 744.929 1214.628 745.184 1214.883 746.598 1213.469ZM744.929 1213.214 705.048 1253.095 706.462 1254.509 746.343 1214.628 744.929 1213.214ZM706.462 1253.095 694.328 1240.961 692.914 1242.375 705.048 1254.509 706.462 1253.095ZM694.328 1242.375 753.556 1183.148 752.142 1181.734 692.914 1240.961 694.328 1242.375ZM752.142 1183.148 766.227 1197.234 767.641 1195.819 753.556 1181.734 752.142 1183.148ZM765.968 1196.269 754.173 1240.477 756.106 1240.993 767.9 1196.784 765.968 1196.269ZM754.197 1240.402 748.002 1257.967 749.888 1258.632 756.083 1241.067 754.197 1240.402ZM748.238 1259.006 748.493 1259.261 749.907 1257.847 749.653 1257.592 748.238 1259.006ZM749.907 1259.261 789.788 1219.38 788.374 1217.966 748.493 1257.847 749.907 1259.261ZM788.374 1219.38 800.508 1231.514 801.922 1230.1 789.788 1217.966 788.374 1219.38ZM800.508 1230.1 741.28 1289.327 742.695 1290.741 801.922 1231.514 800.508 1230.1ZM742.695 1289.327 728.609 1275.242 727.195 1276.656 741.28 1290.741 742.695 1289.327ZM728.868 1276.206 740.663 1231.998 738.73 1231.483 726.936 1275.691 728.868 1276.206ZM59.53 627.71559 81.847 650.0319C85.75 653.9351 88.692 658.1212 90.671 662.5901 92.651 667.059 93.528 671.6693 93.302 676.4211 93.132 681.1163 91.803 685.9529 89.314 690.9309 86.881 695.8524 83.204 700.7739 78.283 705.6953 73.361 710.6168 68.412 714.322 63.434 716.811 58.512 719.2435 53.676 720.5729 48.924 720.7991 44.229 720.9688 39.647 720.0637 35.178 718.0838 30.709 716.1039 26.523 713.1624 22.619 709.2591L.303 686.9429 59.53 627.71559ZM34.075 697.804C37.921 701.6507 42.022 703.6023 46.378 703.6589 50.734 703.7154 55.288 701.3678 60.04 696.6161L69.204 687.452C73.955 682.7002 76.303 678.1464 76.246 673.7907 76.19 669.4349 74.238 665.3337 70.392 661.487L60.973 652.0683 24.656 688.3853 34.075 697.804ZM59.468 746.108 118.695 686.8805 159 727.186 147.545 738.641 120.138 711.2333 108.004 723.367 131.508 746.871 120.138 758.242 96.634 734.738 83.821 747.55 111.228 774.958 99.773 786.413 59.468 746.108ZM111.01 797.649 170.237 738.422 209.524 777.709 198.069 789.164 171.679 762.775 159.545 774.909 182.031 797.395 170.661 808.765 148.175 786.279 123.907 810.547 111.01 797.649ZM158.354 844.994 168.621 834.727 176.258 842.363 214.951 803.67 207.314 796.034 217.581 785.767 245.7525 813.938 235.4853 824.205 227.849 816.568 189.156 855.261 196.792 862.898 186.525 873.165 158.354 844.994ZM220.181 908.857C216.165 904.841 213.167 900.598 211.187 896.13 209.264 891.604 208.415 886.965 208.641 882.214 208.924 877.405 210.31 872.512 212.799 867.534 215.345 862.5 219.135 857.465 224.169 852.43 229.147 847.452 234.1821 843.662 239.2732 841.06 244.421 838.401 249.4273 836.902 254.2922 836.563 259.2136 836.167 263.9654 836.902 268.5475 838.769 273.1295 840.636 277.4287 843.577 281.4451 847.594 286.9322 853.081 290.3263 858.738 291.6274 864.564 292.9851 870.334 292.3345 876.698 289.6758 883.656L272.7901 878.31C274.4871 875.029 275.2225 871.805 274.9963 868.637 274.8831 865.469 273.2144 862.273 269.9899 859.049 266.1999 855.259 261.9006 853.449 257.0923 853.618 252.3971 853.788 247.7019 856.22 243.0068 860.916L233.5032 870.419C228.808 875.114 226.347 879.838 226.121 884.59 226.008 889.341 227.846 893.612 231.6365 897.402 234.8043 900.57 238.1701 902.239 241.734 902.409 245.4109 902.578 248.9182 901.9 252.2557 900.372L256.6681 917.003C249.9364 919.323 243.5159 919.917 237.4065 918.785 231.4102 917.654 225.668 914.345 220.181 908.857ZM312.2778 950.382 289.707 927.811 265.439 952.079 252.5414 939.181 311.7687 879.954 324.66631 892.851 301.0772 916.441 323.64808 939.011 347.2372 915.422 360.1348 928.32 300.9075 987.547 288.0099 974.65 312.2778 950.382ZM350.4304 1037.07 360.2733 1018.742 340.5026 998.971 322.17442 1008.814 309.1071 995.747 387.8505 956.036 403.8028 971.988 363.8372 1050.477 350.4304 1037.07ZM383.9473 975.552 383.523 975.128 354.5033 991.08 368.0798 1004.656 383.9473 975.552ZM369.7404 1056.38 380.0076 1046.113 387.6443 1053.75 426.3372 1015.057 418.7005 1007.42 428.9677 997.153 457.139 1025.324 446.872 1035.591 439.235 1027.954 400.542 1066.647 408.1787 1074.284 397.9115 1084.551 369.7404 1056.38ZM454.732 1085.369 460.927 1067.805 460.672 1067.55 420.7913 1107.431 408.6573 1095.297 467.885 1036.07 481.97 1050.155 470.176 1094.364 463.981 1111.928 464.236 1112.183 504.117 1072.302 516.251 1084.436 457.023 1143.663 442.938 1129.578 454.732 1085.369ZM103.371 810.149 125.687 832.465C129.591 836.369 132.532 840.555 134.512 845.024 136.492 849.493 137.369 854.103 137.142 858.855 136.973 863.55 135.643 868.386 133.154 873.364 130.722 878.286 127.045 883.207 122.124 888.129 117.202 893.05 112.252 896.756 107.274 899.245 102.353 901.677 97.516 903.006 92.764 903.233 88.069 903.402 83.487 902.497 79.018 900.517 74.549 898.537 70.363 895.596 66.46 891.693L44.144 869.376 103.371 810.149ZM77.915 880.238C81.762 884.084 85.863 886.036 90.219 886.092 94.575 886.149 99.128 883.801 103.88 879.05L113.044 869.886C117.796 865.134 120.144 860.58 120.087 856.224 120.03 851.868 118.079 847.767 114.232 843.921L104.814 834.502 68.497 870.819 77.915 880.238ZM103.309 928.541 162.536 869.314 202.841 909.619 191.386 921.074 163.979 893.667 151.845 905.801 175.349 929.305 163.979 940.675 140.474 917.171 127.662 929.984 155.069 957.391 143.614 968.846 103.309 928.541ZM154.85 980.083 214.077 920.856 253.3643 960.142 241.9092 971.598 215.52 945.208 203.386 957.342 225.872 979.828 214.502 991.199 192.016 968.713 167.748 992.98 154.85 980.083ZM202.195 1027.427 212.462 1017.16 220.099 1024.797 258.7916 986.104 251.1548 978.467 261.422 968.2 289.5932 996.371 279.326 1006.638 271.6892 999.002 232.9963 1037.695 240.6331 1045.331 230.3659 1055.598 202.195 1027.427ZM264.022 1091.291C260.0056 1087.275 257.0075 1083.032 255.0276 1078.563 253.1042 1074.038 252.2557 1069.399 252.482 1064.647 252.7648 1059.839 254.1508 1054.946 256.6398 1049.968 259.1854 1044.933 262.9754 1039.898 268.01 1034.864 272.9881 1029.886 278.0227 1026.096 283.1138 1023.494 288.2616 1020.835 293.2679 1019.336 298.1328 1018.996 303.0543 1018.6 307.806 1019.336 312.3881 1021.203 316.9701 1023.069 321.26933 1026.011 325.2857 1030.027 330.772846 1035.514 334.16696 1041.171 335.46803 1046.998 336.82568 1052.768 336.17514 1059.132 333.51641 1066.09L316.6307 1060.744C318.3278 1057.463 319.0632 1054.239 318.8369 1051.071 318.7237 1047.903 317.055 1044.707 313.8306 1041.482 310.0405 1037.692 305.7413 1035.882 300.9329 1036.052 296.2377 1036.222 291.5426 1038.654 286.8474 1043.349L277.3439 1052.853C272.6487 1057.548 270.1879 1062.271 269.9617 1067.023 269.8485 1071.775 271.687 1076.046 275.4771 1079.836 278.6449 1083.004 282.0108 1084.672 285.5746 1084.842 289.2515 1085.012 292.7588 1084.333 296.0963 1082.806L300.5087 1099.437C293.777 1101.756 287.3565 1102.35 281.2471 1101.219 275.2508 1100.087 269.5091 1096.778 264.022 1091.291ZM356.1184 1132.815 333.54757 1110.244 309.2797 1134.512 296.382 1121.615 355.6093 1062.387 368.5069 1075.285 344.9179 1098.874 367.4887 1121.445 391.0778 1097.856 403.9754 1110.753 344.7481 1169.981 331.85052 1157.083 356.1184 1132.815ZM394.271 1219.504 404.114 1201.175 384.3432 1181.405 366.015 1191.248 352.9477 1178.18 431.691 1138.469 447.643 1154.422 407.6778 1232.91 394.271 1219.504ZM427.7879 1157.985 427.3636 1157.561 398.344 1173.513 411.9204 1187.09 427.7879 1157.985ZM413.581 1238.814 423.8482 1228.546 431.485 1236.183 470.178 1197.49 462.541 1189.854 472.808 1179.586 500.979 1207.757 490.712 1218.025 483.075 1210.388 444.383 1249.081 452.019 1256.718 441.752 1266.985 413.581 1238.814ZM498.573 1267.803 504.767 1250.238 504.513 1249.984 464.632 1289.864 452.498 1277.731 511.725 1218.503 525.811 1232.589 514.016 1276.797 507.822 1294.362 508.077 1294.616 547.957 1254.735 560.091 1266.869 500.864 1326.097 486.778 1312.011 498.573 1267.803Z"/><path fill="#00F3FF" fill-rule="nonzero" d="M103.371,810.149 L104.078,809.442 L103.371,808.735 L102.664,809.442 L103.371,810.149 Z M134.512,845.024 L135.426,844.619 L135.426,844.619 L134.512,845.024 Z M137.142,858.855 L136.144,858.807 L136.143,858.819 L137.142,858.855 Z M133.154,873.364 L132.26,872.917 L132.258,872.921 L133.154,873.364 Z M107.274,899.245 L107.717,900.141 L107.722,900.139 L107.274,899.245 Z M92.764,903.233 L92.801,904.232 L92.812,904.232 L92.764,903.233 Z M79.018,900.517 L78.613,901.432 L79.018,900.517 Z M44.144,869.376 L43.437,868.669 L42.73,869.376 L43.437,870.083 L44.144,869.376 Z M120.087,856.224 L121.087,856.211 L120.087,856.224 Z M104.814,834.502 L105.521,833.795 L104.814,833.088 L104.106,833.795 L104.814,834.502 Z M68.497,870.819 L67.789,870.112 L67.082,870.819 L67.789,871.526 L68.497,870.819 Z M102.664,810.856 L124.98,833.173 L126.394,831.758 L104.078,809.442 L102.664,810.856 Z M124.98,833.173 C128.808,837 131.674,841.086 133.598,845.429 L135.426,844.619 C133.391,840.023 130.374,835.737 126.394,831.758 L124.98,833.173 Z M133.598,845.429 C135.516,849.759 136.362,854.215 136.144,858.807 L138.141,858.902 C138.375,853.991 137.467,849.226 135.426,844.619 L133.598,845.429 Z M136.143,858.819 C135.979,863.347 134.697,868.044 132.26,872.917 L134.049,873.812 C136.59,868.729 137.966,863.753 138.142,858.891 L136.143,858.819 Z M132.258,872.921 C129.885,877.723 126.28,882.558 121.416,887.422 L122.831,888.836 C127.81,883.857 131.559,878.849 134.051,873.808 L132.258,872.921 Z M121.416,887.422 C116.553,892.285 111.688,895.919 106.827,898.35 L107.722,900.139 C112.816,897.592 117.851,893.815 122.831,888.836 L121.416,887.422 Z M106.831,898.348 C102.014,900.729 97.312,902.015 92.717,902.234 L92.812,904.232 C97.721,903.998 102.691,902.625 107.717,900.141 L106.831,898.348 Z M92.728,902.233 C88.191,902.397 83.759,901.524 79.423,899.603 L78.613,901.432 C83.215,903.47 87.948,904.407 92.801,904.232 L92.728,902.233 Z M79.423,899.603 C75.081,897.679 70.995,894.813 67.167,890.986 L65.753,892.4 C69.732,896.379 74.018,899.396 78.613,901.432 L79.423,899.603 Z M67.167,890.986 L44.851,868.669 L43.437,870.083 L65.753,892.4 L67.167,890.986 Z M44.851,870.083 L104.078,810.856 L102.664,809.442 L43.437,868.669 L44.851,870.083 Z M77.208,880.945 C81.191,884.927 85.528,887.032 90.206,887.092 L90.232,885.092 C86.198,885.04 82.333,883.241 78.622,879.53 L77.208,880.945 Z M90.206,887.092 C94.947,887.154 99.746,884.598 104.587,879.757 L103.173,878.342 C98.511,883.005 94.202,885.144 90.232,885.092 L90.206,887.092 Z M104.587,879.757 L113.751,870.593 L112.337,869.178 L103.173,878.342 L104.587,879.757 Z M113.751,870.593 C118.592,865.752 121.149,860.953 121.087,856.211 L119.087,856.237 C119.139,860.207 117,864.516 112.337,869.178 L113.751,870.593 Z M121.087,856.211 C121.026,851.534 118.922,847.196 114.939,843.213 L113.525,844.628 C117.236,848.338 119.035,852.203 119.087,856.237 L121.087,856.211 Z M114.939,843.213 L105.521,833.795 L104.106,835.209 L113.525,844.628 L114.939,843.213 Z M104.106,833.795 L67.789,870.112 L69.204,871.526 L105.521,835.209 L104.106,833.795 Z M67.789,871.526 L77.208,880.945 L78.622,879.53 L69.204,870.112 L67.789,871.526 Z M103.309,928.541 L102.602,927.834 L101.895,928.541 L102.602,929.248 L103.309,928.541 Z M162.536,869.314 L163.243,868.607 L162.536,867.9 L161.829,868.607 L162.536,869.314 Z M202.841,909.619 L203.548,910.326 L204.255,909.619 L203.548,908.912 L202.841,909.619 Z M191.386,921.074 L190.679,921.781 L191.386,922.488 L192.093,921.781 L191.386,921.074 Z M163.979,893.667 L164.686,892.96 L163.979,892.253 L163.271,892.96 L163.979,893.667 Z M151.845,905.801 L151.137,905.094 L150.43,905.801 L151.137,906.508 L151.845,905.801 Z M175.349,929.305 L176.056,930.012 L176.763,929.305 L176.056,928.598 L175.349,929.305 Z M163.979,940.675 L163.271,941.382 L163.979,942.089 L164.686,941.382 L163.979,940.675 Z M140.474,917.171 L141.181,916.464 L140.474,915.757 L139.767,916.464 L140.474,917.171 Z M127.662,929.984 L126.954,929.277 L126.247,929.984 L126.954,930.691 L127.662,929.984 Z M155.069,957.391 L155.776,958.098 L156.483,957.391 L155.776,956.684 L155.069,957.391 Z M143.614,968.846 L142.907,969.554 L143.614,970.261 L144.321,969.554 L143.614,968.846 Z M104.016,929.248 L163.243,870.021 L161.829,868.607 L102.602,927.834 L104.016,929.248 Z M161.829,870.021 L202.134,910.326 L203.548,908.912 L163.243,868.607 L161.829,870.021 Z M202.134,908.912 L190.679,920.367 L192.093,921.781 L203.548,910.326 L202.134,908.912 Z M192.093,920.367 L164.686,892.96 L163.271,894.374 L190.679,921.781 L192.093,920.367 Z M163.271,892.96 L151.137,905.094 L152.552,906.508 L164.686,894.374 L163.271,892.96 Z M151.137,906.508 L174.642,930.012 L176.056,928.598 L152.552,905.094 L151.137,906.508 Z M174.642,928.598 L163.271,939.968 L164.686,941.382 L176.056,930.012 L174.642,928.598 Z M164.686,939.968 L141.181,916.464 L139.767,917.878 L163.271,941.382 L164.686,939.968 Z M139.767,916.464 L126.954,929.277 L128.369,930.691 L141.181,917.878 L139.767,916.464 Z M126.954,930.691 L154.362,958.098 L155.776,956.684 L128.369,929.277 L126.954,930.691 Z M154.362,956.684 L142.907,968.139 L144.321,969.554 L155.776,958.098 L154.362,956.684 Z M144.321,968.139 L104.016,927.834 L102.602,929.248 L142.907,969.554 L144.321,968.139 Z M154.85,980.083 L154.143,979.376 L153.436,980.083 L154.143,980.79 L154.85,980.083 Z M214.077,920.856 L214.785,920.148 L214.077,919.441 L213.37,920.148 L214.077,920.856 Z M253.3643,960.142 L254.0714,960.849 L254.7785,960.142 L254.0714,959.435 L253.3643,960.142 Z M241.9092,971.598 L241.2021,972.305 L241.9092,973.012 L242.6163,972.305 L241.9092,971.598 Z M215.52,945.208 L216.227,944.501 L215.52,943.794 L214.813,944.501 L215.52,945.208 Z M203.386,957.342 L202.679,956.635 L201.972,957.342 L202.679,958.049 L203.386,957.342 Z M225.872,979.828 L226.579,980.535 L227.286,979.828 L226.579,979.121 L225.872,979.828 Z M214.502,991.199 L213.795,991.906 L214.502,992.613 L215.209,991.906 L214.502,991.199 Z M192.016,968.713 L192.723,968.005 L192.016,967.298 L191.309,968.005 L192.016,968.713 Z M167.748,992.98 L167.041,993.688 L167.748,994.395 L168.455,993.688 L167.748,992.98 Z M155.557,980.79 L214.785,921.563 L213.37,920.148 L154.143,979.376 L155.557,980.79 Z M213.37,921.563 L252.6572,960.849 L254.0714,959.435 L214.785,920.148 L213.37,921.563 Z M252.6572,959.435 L241.2021,970.89 L242.6163,972.305 L254.0714,960.849 L252.6572,959.435 Z M242.6163,970.89 L216.227,944.501 L214.813,945.915 L241.2021,972.305 L242.6163,970.89 Z M214.813,944.501 L202.679,956.635 L204.093,958.049 L216.227,945.915 L214.813,944.501 Z M202.679,958.049 L225.165,980.535 L226.579,979.121 L204.093,956.635 L202.679,958.049 Z M225.165,979.121 L213.795,990.491 L215.209,991.906 L226.579,980.535 L225.165,979.121 Z M215.209,990.491 L192.723,968.005 L191.309,969.42 L213.795,991.906 L215.209,990.491 Z M191.309,968.005 L167.041,992.273 L168.455,993.688 L192.723,969.42 L191.309,968.005 Z M168.455,992.273 L155.557,979.376 L154.143,980.79 L167.041,993.688 L168.455,992.273 Z M202.195,1027.427 L201.488,1026.72 L200.781,1027.427 L201.488,1028.134 L202.195,1027.427 Z M212.462,1017.16 L213.169,1016.453 L212.462,1015.746 L211.755,1016.453 L212.462,1017.16 Z M220.099,1024.797 L219.392,1025.504 L220.099,1026.211 L220.806,1025.504 L220.099,1024.797 Z M258.7916,986.104 L259.4987,986.811 L260.2058,986.104 L259.4987,985.397 L258.7916,986.104 Z M251.1548,978.467 L250.4477,977.76 L249.7406,978.467 L250.4477,979.174 L251.1548,978.467 Z M261.422,968.2 L262.1291,967.493 L261.422,966.786 L260.7149,967.493 L261.422,968.2 Z M289.5932,996.371 L290.3003,997.078 L291.0074,996.371 L290.3003,995.664 L289.5932,996.371 Z M279.326,1006.638 L278.6189,1007.346 L279.326,1008.053 L280.0331,1007.346 L279.326,1006.638 Z M271.6892,999.002 L272.3963,998.295 L271.6892,997.587 L270.9821,998.295 L271.6892,999.002 Z M232.9963,1037.695 L232.2892,1036.987 L231.5821,1037.695 L232.2892,1038.402 L232.9963,1037.695 Z M240.6331,1045.331 L241.3402,1046.038 L242.0473,1045.331 L241.3402,1044.624 L240.6331,1045.331 Z M230.3659,1055.598 L229.659,1056.306 L230.3659,1057.013 L231.073,1056.306 L230.3659,1055.598 Z M202.902,1028.134 L213.169,1017.867 L211.755,1016.453 L201.488,1026.72 L202.902,1028.134 Z M211.755,1017.867 L219.392,1025.504 L220.806,1024.09 L213.169,1016.453 L211.755,1017.867 Z M220.806,1025.504 L259.4987,986.811 L258.0845,985.397 L219.392,1024.09 L220.806,1025.504 Z M259.4987,985.397 L251.8619,977.76 L250.4477,979.174 L258.0845,986.811 L259.4987,985.397 Z M251.8619,979.174 L262.1291,968.907 L260.7149,967.493 L250.4477,977.76 L251.8619,979.174 Z M260.7149,968.907 L288.886,997.078 L290.3003,995.664 L262.1291,967.493 L260.7149,968.907 Z M288.886,995.664 L278.6189,1005.931 L280.0331,1007.346 L290.3003,997.078 L288.886,995.664 Z M280.0331,1005.931 L272.3963,998.295 L270.9821,999.709 L278.6189,1007.346 L280.0331,1005.931 Z M270.9821,998.295 L232.2892,1036.987 L233.7034,1038.402 L272.3963,999.709 L270.9821,998.295 Z M232.2892,1038.402 L239.926,1046.038 L241.3402,1044.624 L233.7034,1036.987 L232.2892,1038.402 Z M239.926,1044.624 L229.659,1054.891 L231.073,1056.306 L241.3402,1046.038 L239.926,1044.624 Z M231.073,1054.891 L202.902,1026.72 L201.488,1028.134 L229.659,1056.306 L231.073,1054.891 Z M255.0276,1078.563 L254.1072,1078.954 L254.1102,1078.961 L254.1133,1078.968 L255.0276,1078.563 Z M252.482,1064.647 L251.4836,1064.589 L251.4831,1064.6 L252.482,1064.647 Z M256.6398,1049.968 L255.7474,1049.516 L255.7453,1049.52 L256.6398,1049.968 Z M283.1139,1023.494 L283.569,1024.384 L283.5727,1024.382 L283.1139,1023.494 Z M298.1328,1018.996 L298.2024,1019.994 L298.213,1019.993 L298.1328,1018.996 Z M312.3881,1021.203 L312.7654,1020.276 L312.3881,1021.203 Z M335.46803,1046.998 L334.492,1047.216 L334.49462,1047.227 L335.46803,1046.998 Z M333.51641,1066.09 L333.2146,1067.043 L334.11386,1067.328 L334.45054,1066.447 L333.51641,1066.09 Z M316.6307,1060.744 L315.7425,1060.285 L315.1971,1061.339 L316.3289,1061.697 L316.6307,1060.744 Z M318.8369,1051.071 L317.8375,1051.106 L317.8382,1051.124 L317.8394,1051.142 L318.8369,1051.071 Z M300.9329,1036.052 L300.8977,1035.052 L300.8968,1035.052 L300.9329,1036.052 Z M269.9617,1067.023 L268.9628,1066.976 L268.9622,1066.987 L268.9619,1066.999 L269.9617,1067.023 Z M285.5746,1084.842 L285.527,1085.841 L285.5285,1085.841 L285.5746,1084.842 Z M296.0963,1082.806 L297.0629,1082.549 L296.7587,1081.403 L295.6802,1081.896 L296.0963,1082.806 Z M300.5087,1099.437 L300.8344,1100.382 L301.7137,1100.079 L301.4752,1099.18 L300.5087,1099.437 Z M281.2471,1101.219 L281.0617,1102.201 L281.065,1102.202 L281.2471,1101.219 Z M264.7291,1090.584 C260.7859,1086.641 257.8645,1082.498 255.9419,1078.158 L254.1133,1078.968 C256.1504,1083.566 259.2253,1087.909 263.3149,1091.998 L264.7291,1090.584 Z M255.9479,1078.172 C254.0814,1073.78 253.262,1069.291 253.4809,1064.695 L251.4831,1064.6 C251.2494,1069.507 252.1271,1074.295 254.1072,1078.954 L255.9479,1078.172 Z M253.4803,1064.706 C253.754,1060.052 255.0964,1055.29 257.5342,1050.415 L255.7453,1049.52 C253.2051,1054.601 251.7756,1059.626 251.4837,1064.589 L253.4803,1064.706 Z M257.5322,1050.419 C260.0193,1045.5 263.7388,1040.549 268.7172,1035.571 L267.3029,1034.157 C262.2121,1039.248 258.3514,1044.366 255.7474,1049.516 L257.5322,1050.419 Z M268.7172,1035.571 C273.6377,1030.65 278.5895,1026.929 283.5689,1024.384 L282.6587,1022.603 C277.4559,1025.262 272.3385,1029.121 267.3029,1034.157 L268.7172,1035.571 Z M283.5727,1024.382 C288.6219,1021.774 293.4964,1020.322 298.2024,1019.994 L298.0632,1017.999 C293.0394,1018.349 287.9013,1019.895 282.655,1022.605 L283.5727,1024.382 Z M298.213,1019.993 C302.9782,1019.61 307.5733,1020.321 312.0108,1022.129 L312.7654,1020.276 C308.0388,1018.351 303.1303,1017.591 298.0526,1018 L298.213,1019.993 Z M312.0108,1022.129 C316.4525,1023.938 320.64262,1026.798 324.5786,1030.734 L325.99281,1029.32 C321.89603,1025.223 317.4878,1022.2 312.7654,1020.276 L312.0108,1022.129 Z M324.5786,1030.734 C329.971109,1036.127 333.24309,1041.622 334.49206,1047.216 L336.44399,1046.78 C335.09083,1040.72 331.57459,1034.902 325.99281,1029.32 L324.5786,1030.734 Z M334.49462,1047.227 C335.79588,1052.757 335.18794,1058.914 332.5823,1065.733 L334.45054,1066.447 C337.16234,1059.35 337.85546,1052.778 336.44146,1046.769 L334.49462,1047.227 Z M333.81824,1065.136 L316.9325,1059.791 L316.3289,1061.697 L333.2146,1067.043 L333.81824,1065.136 Z M317.5189,1061.203 C319.2865,1057.786 320.07575,1054.379 319.8343,1051 L317.8394,1051.142 C318.0506,1054.098 317.369,1057.14 315.7425,1060.285 L317.5189,1061.203 Z M319.8362,1051.035 C319.7108,1047.523 317.863,1044.101 314.5377,1040.775 L313.1235,1042.19 C316.247,1045.313 317.7367,1048.283 317.8375,1051.106 L319.8362,1051.035 Z M314.5377,1040.775 C310.5762,1036.814 306.0165,1034.872 300.8977,1035.052 L300.9682,1037.051 C305.4661,1036.892 309.5048,1038.571 313.1235,1042.19 L314.5377,1040.775 Z M300.8968,1035.052 C295.8611,1035.234 290.9403,1037.842 286.1403,1042.642 L287.5545,1044.056 C292.1449,1039.466 296.6144,1037.209 300.9691,1037.051 L300.8968,1035.052 Z M286.1403,1042.642 L276.6368,1052.146 L278.051,1053.56 L287.5545,1044.056 L286.1403,1042.642 Z M276.6368,1052.146 C271.8354,1056.947 269.2049,1061.892 268.9628,1066.976 L270.9605,1067.071 C271.171,1062.651 273.4619,1058.149 278.051,1053.56 L276.6368,1052.146 Z M268.9619,1066.999 C268.8414,1072.061 270.8136,1076.587 274.77,1080.543 L276.1842,1079.129 C272.5604,1075.505 270.8556,1071.489 270.9614,1067.047 L268.9619,1066.999 Z M274.77,1080.543 C278.067,1083.84 281.6557,1085.657 285.527,1085.841 L285.6222,1083.843 C282.3658,1083.688 279.2229,1082.167 276.1842,1079.129 L274.77,1080.543 Z M285.5285,1085.841 C289.364,1086.018 293.0297,1085.309 296.5125,1083.715 L295.6802,1081.896 C292.4878,1083.357 289.1391,1084.006 285.6207,1083.843 L285.5285,1085.841 Z M295.1298,1083.062 L299.5421,1099.693 L301.4752,1099.18 L297.0629,1082.549 L295.1298,1083.062 Z M300.1829,1098.491 C293.5903,1100.763 287.3454,1101.331 281.4292,1100.236 L281.065,1102.202 C287.3676,1103.369 293.9637,1102.75 300.8344,1100.382 L300.1829,1098.491 Z M281.4325,1100.236 C275.6815,1099.151 270.1126,1095.967 264.7291,1090.584 L263.3149,1091.998 C268.9056,1097.589 274.8202,1101.024 281.0617,1102.201 L281.4325,1100.236 Z M356.1184,1132.815 L356.8255,1133.522 L357.5326,1132.815 L356.8255,1132.108 L356.1184,1132.815 Z M333.54758,1110.244 L334.25469,1109.537 L333.54758,1108.83 L332.84047,1109.537 L333.54758,1110.244 Z M309.2797,1134.512 L308.5726,1135.219 L309.2797,1135.926 L309.9868,1135.219 L309.2797,1134.512 Z M296.382,1121.615 L295.6749,1120.908 L294.9678,1121.615 L295.6749,1122.322 L296.382,1121.615 Z M355.6093,1062.387 L356.3164,1061.68 L355.6093,1060.973 L354.9022,1061.68 L355.6093,1062.387 Z M368.5069,1075.285 L369.214,1075.992 L369.9212,1075.285 L369.214,1074.578 L368.5069,1075.285 Z M344.9179,1098.874 L344.2107,1098.167 L343.5036,1098.874 L344.2107,1099.581 L344.9179,1098.874 Z M367.4887,1121.445 L366.7816,1122.152 L367.4887,1122.859 L368.1958,1122.152 L367.4887,1121.445 Z M391.0778,1097.856 L391.7849,1097.149 L391.0778,1096.442 L390.3707,1097.149 L391.0778,1097.856 Z M403.9754,1110.753 L404.6825,1111.461 L405.3896,1110.753 L404.6825,1110.046 L403.9754,1110.753 Z M344.7482,1169.981 L344.041,1170.688 L344.7482,1171.395 L345.4553,1170.688 L344.7482,1169.981 Z M331.85051,1157.083 L331.1434,1156.376 L330.436297,1157.083 L331.1434,1157.79 L331.85051,1157.083 Z M356.8255,1132.108 L334.25469,1109.537 L332.84047,1110.951 L355.4113,1133.522 L356.8255,1132.108 Z M332.84047,1109.537 L308.5726,1133.805 L309.9868,1135.219 L334.25469,1110.951 L332.84047,1109.537 Z M309.9868,1133.805 L297.0891,1120.908 L295.6749,1122.322 L308.5726,1135.219 L309.9868,1133.805 Z M297.0891,1122.322 L356.3164,1063.094 L354.9022,1061.68 L295.6749,1120.908 L297.0891,1122.322 Z M354.9022,1063.094 L367.7998,1075.992 L369.214,1074.578 L356.3164,1061.68 L354.9022,1063.094 Z M367.7998,1074.578 L344.2107,1098.167 L345.625,1099.581 L369.214,1075.992 L367.7998,1074.578 Z M344.2107,1099.581 L366.7816,1122.152 L368.1958,1120.738 L345.625,1098.167 L344.2107,1099.581 Z M368.1958,1122.152 L391.7849,1098.563 L390.3707,1097.149 L366.7816,1120.738 L368.1958,1122.152 Z M390.3707,1098.563 L403.2683,1111.461 L404.6825,1110.046 L391.7849,1097.149 L390.3707,1098.563 Z M403.2683,1110.046 L344.041,1169.274 L345.4553,1170.688 L404.6825,1111.461 L403.2683,1110.046 Z M345.4553,1169.274 L332.55762,1156.376 L331.1434,1157.79 L344.041,1170.688 L345.4553,1169.274 Z M332.55762,1157.79 L356.8255,1133.522 L355.4113,1132.108 L331.1434,1156.376 L332.55762,1157.79 Z M394.271,1219.504 L393.39,1219.03 L393.0384,1219.685 L393.5639,1220.211 L394.271,1219.504 Z M404.114,1201.175 L404.995,1201.649 L405.3466,1200.994 L404.8211,1200.468 L404.114,1201.175 Z M384.3433,1181.405 L385.0504,1180.698 L384.5249,1180.172 L383.8701,1180.524 L384.3433,1181.405 Z M366.015,1191.248 L365.3079,1191.955 L365.8334,1192.48 L366.4882,1192.129 L366.015,1191.248 Z M352.9477,1178.18 L352.4974,1177.287 L351.2631,1177.91 L352.2406,1178.887 L352.9477,1178.18 Z M431.691,1138.469 L432.398,1137.762 L431.887,1137.251 L431.241,1137.576 L431.691,1138.469 Z M447.643,1154.422 L448.535,1154.875 L448.864,1154.228 L448.351,1153.714 L447.643,1154.422 Z M407.6778,1232.91 L406.9707,1233.617 L407.9442,1234.591 L408.5689,1233.364 L407.6778,1232.91 Z M427.7879,1157.985 L428.6659,1158.464 L429.024,1157.807 L428.495,1157.278 L427.7879,1157.985 Z M427.3636,1157.561 L428.0707,1156.854 L427.5398,1156.323 L426.8819,1156.685 L427.3636,1157.561 Z M398.344,1173.513 L397.8622,1172.637 L396.695,1173.279 L397.6369,1174.221 L398.344,1173.513 Z M411.9204,1187.09 L411.2133,1187.797 L412.1585,1188.742 L412.7984,1187.569 L411.9204,1187.09 Z M395.152,1219.977 L404.995,1201.649 L403.233,1200.702 L393.39,1219.03 L395.152,1219.977 Z M404.8211,1200.468 L385.0504,1180.698 L383.6361,1182.112 L403.4068,1201.883 L404.8211,1200.468 Z M383.8701,1180.524 L365.5419,1190.367 L366.4882,1192.129 L384.8164,1182.286 L383.8701,1180.524 Z M366.7222,1190.541 L353.6548,1177.473 L352.2406,1178.887 L365.3079,1191.955 L366.7222,1190.541 Z M353.398,1179.073 L432.141,1139.362 L431.241,1137.576 L352.4974,1177.287 L353.398,1179.073 Z M430.984,1139.176 L446.936,1155.129 L448.351,1153.714 L432.398,1137.762 L430.984,1139.176 Z M446.752,1153.968 L406.7866,1232.457 L408.5689,1233.364 L448.535,1154.875 L446.752,1153.968 Z M408.3849,1232.203 L394.9781,1218.797 L393.5639,1220.211 L406.9707,1233.617 L408.3849,1232.203 Z M428.495,1157.278 L428.0707,1156.854 L426.6565,1158.268 L427.0808,1158.692 L428.495,1157.278 Z M426.8819,1156.685 L397.8622,1172.637 L398.8257,1174.39 L427.8454,1158.437 L426.8819,1156.685 Z M397.6369,1174.221 L411.2133,1187.797 L412.6275,1186.383 L399.0511,1172.806 L397.6369,1174.221 Z M412.7984,1187.569 L428.6659,1158.464 L426.9099,1157.507 L411.0424,1186.611 L412.7984,1187.569 Z M413.581,1238.814 L412.8739,1238.106 L412.1668,1238.814 L412.8739,1239.521 L413.581,1238.814 Z M423.8482,1228.546 L424.5553,1227.839 L423.8482,1227.132 L423.1411,1227.839 L423.8482,1228.546 Z M431.485,1236.183 L430.778,1236.89 L431.485,1237.597 L432.192,1236.89 L431.485,1236.183 Z M470.178,1197.49 L470.885,1198.197 L471.592,1197.49 L470.885,1196.783 L470.178,1197.49 Z M462.541,1189.854 L461.834,1189.146 L461.127,1189.854 L461.834,1190.561 L462.541,1189.854 Z M472.808,1179.586 L473.515,1178.879 L472.808,1178.172 L472.101,1178.879 L472.808,1179.586 Z M500.979,1207.757 L501.687,1208.465 L502.394,1207.757 L501.687,1207.05 L500.979,1207.757 Z M490.712,1218.025 L490.005,1218.732 L490.712,1219.439 L491.419,1218.732 L490.712,1218.025 Z M483.075,1210.388 L483.783,1209.681 L483.075,1208.974 L482.368,1209.681 L483.075,1210.388 Z M444.383,1249.081 L443.675,1248.374 L442.968,1249.081 L443.675,1249.788 L444.383,1249.081 Z M452.019,1256.718 L452.726,1257.425 L453.434,1256.718 L452.726,1256.01 L452.019,1256.718 Z M441.752,1266.985 L441.045,1267.692 L441.752,1268.399 L442.459,1267.692 L441.752,1266.985 Z M414.2881,1239.521 L424.5553,1229.254 L423.1411,1227.839 L412.8739,1238.106 L414.2881,1239.521 Z M423.1411,1229.254 L430.778,1236.89 L432.192,1235.476 L424.5553,1227.839 L423.1411,1229.254 Z M432.192,1236.89 L470.885,1198.197 L469.471,1196.783 L430.778,1235.476 L432.192,1236.89 Z M470.885,1196.783 L463.248,1189.146 L461.834,1190.561 L469.471,1198.197 L470.885,1196.783 Z M463.248,1190.561 L473.515,1180.293 L472.101,1178.879 L461.834,1189.146 L463.248,1190.561 Z M472.101,1180.293 L500.272,1208.465 L501.687,1207.05 L473.515,1178.879 L472.101,1180.293 Z M500.272,1207.05 L490.005,1217.318 L491.419,1218.732 L501.687,1208.465 L500.272,1207.05 Z M491.419,1217.318 L483.783,1209.681 L482.368,1211.095 L490.005,1218.732 L491.419,1217.318 Z M482.368,1209.681 L443.675,1248.374 L445.09,1249.788 L483.783,1211.095 L482.368,1209.681 Z M443.675,1249.788 L451.312,1257.425 L452.726,1256.01 L445.09,1248.374 L443.675,1249.788 Z M451.312,1256.01 L441.045,1266.278 L442.459,1267.692 L452.726,1257.425 L451.312,1256.01 Z M442.459,1266.278 L414.2881,1238.106 L412.8739,1239.521 L441.045,1267.692 L442.459,1266.278 Z M498.573,1267.803 L497.63,1267.47 L497.617,1267.507 L497.607,1267.545 L498.573,1267.803 Z M504.767,1250.238 L505.71,1250.571 L505.92,1249.977 L505.474,1249.531 L504.767,1250.238 Z M504.513,1249.984 L505.22,1249.277 L504.513,1248.569 L503.806,1249.277 L504.513,1249.984 Z M464.632,1289.865 L463.925,1290.572 L464.632,1291.279 L465.339,1290.572 L464.632,1289.865 Z M452.498,1277.731 L451.791,1277.023 L451.084,1277.731 L451.791,1278.438 L452.498,1277.731 Z M511.725,1218.503 L512.432,1217.796 L511.725,1217.089 L511.018,1217.796 L511.725,1218.503 Z M525.811,1232.589 L526.777,1232.847 L526.926,1232.289 L526.518,1231.882 L525.811,1232.589 Z M514.016,1276.797 L514.959,1277.13 L514.972,1277.093 L514.982,1277.055 L514.016,1276.797 Z M507.822,1294.362 L506.879,1294.029 L506.669,1294.623 L507.115,1295.069 L507.822,1294.362 Z M508.077,1294.616 L507.369,1295.323 L508.077,1296.03 L508.784,1295.323 L508.077,1294.616 Z M547.957,1254.735 L548.664,1254.028 L547.957,1253.321 L547.25,1254.028 L547.957,1254.735 Z M560.091,1266.869 L560.798,1267.576 L561.506,1266.869 L560.798,1266.162 L560.091,1266.869 Z M500.864,1326.097 L500.157,1326.804 L500.864,1327.511 L501.571,1326.804 L500.864,1326.097 Z M486.779,1312.011 L485.812,1311.753 L485.664,1312.31 L486.071,1312.718 L486.779,1312.011 Z M499.516,1268.135 L505.71,1250.571 L503.824,1249.906 L497.63,1267.47 L499.516,1268.135 Z M505.474,1249.531 L505.22,1249.277 L503.806,1250.691 L504.06,1250.945 L505.474,1249.531 Z M503.806,1249.277 L463.925,1289.157 L465.339,1290.572 L505.22,1250.691 L503.806,1249.277 Z M465.339,1289.157 L453.205,1277.023 L451.791,1278.438 L463.925,1290.572 L465.339,1289.157 Z M453.205,1278.438 L512.432,1219.21 L511.018,1217.796 L451.791,1277.023 L453.205,1278.438 Z M511.018,1219.21 L525.104,1233.296 L526.518,1231.882 L512.432,1217.796 L511.018,1219.21 Z M524.845,1232.331 L513.05,1276.539 L514.982,1277.055 L526.777,1232.847 L524.845,1232.331 Z M513.073,1276.465 L506.879,1294.029 L508.765,1294.694 L514.959,1277.13 L513.073,1276.465 Z M507.115,1295.069 L507.369,1295.323 L508.784,1293.909 L508.529,1293.655 L507.115,1295.069 Z M508.784,1295.323 L548.664,1255.443 L547.25,1254.028 L507.369,1293.909 L508.784,1295.323 Z M547.25,1255.443 L559.384,1267.576 L560.798,1266.162 L548.664,1254.028 L547.25,1255.443 Z M559.384,1266.162 L500.157,1325.39 L501.571,1326.804 L560.798,1267.576 L559.384,1266.162 Z M501.571,1325.39 L487.486,1311.304 L486.071,1312.718 L500.157,1326.804 L501.571,1325.39 Z M487.745,1312.269 L499.539,1268.061 L497.607,1267.545 L485.812,1311.753 L487.745,1312.269 Z"/></g></g></g></svg>