<svg xmlns="http://www.w3.org/2000/svg" xmlns:xlink="http://www.w3.org/1999/xlink" width="499" height="490" viewBox="0 0 499 490"><defs><path id="a" d="M0.267589103,0 L392.732411,0 C381.564284,98.4812804 297.968094,175 196.5,175 C95.0319055,175 11.4357156,98.4812804 0.267589103,-6.21724894e-15 Z"/><path id="c" d="M392.6593,228 L2.34070026,228 C0.799661518,218.05896 0,207.872866 0,197.5 C0,88.4237619 88.4237619,0 197.5,0 C306.576238,0 395,88.4237619 395,197.5 C395,207.872866 394.200338,218.05896 392.6593,228 Z"/></defs><g fill="none" fill-rule="evenodd" transform="translate(-3 -10)"><rect width="500" height="500"/><g transform="translate(54)"><mask id="b" fill="#fff"><use xlink:href="#a"/></mask><g stroke="#00F3FF" mask="url(#b)"><g transform="translate(-6 18)"><path stroke-width="16.857" d="M395.1849,0.5381 L0.1849,0.5381"/><path stroke-width="13.143" d="M399.1849,30.4089 L4.1849,30.4089"/><path stroke-width="9.429" d="M403.1849,60.2798 L9.1849,60.2798"/><path stroke-width="5.714" d="M408.1849,90.17 L13.1849,90.17"/><path stroke-width="2" d="M412.1849,120.041 L17.1849,120.041"/></g></g></g><g transform="translate(52 272)"><mask id="d" fill="#fff"><use xlink:href="#c"/></mask><g stroke="#FC1CAE" mask="url(#d)"><g transform="translate(-36 36)"><path stroke-width="24.286" d="M28.175,180.223 L457.175,180.223"/><path stroke-width="20.571" d="M23.175,150.333 L452.175,150.333"/><path stroke-width="16.857" d="M19.175,120.462 L448.175,120.462"/><path stroke-width="13.143" d="M14.175,90.591 L443.175,90.591"/><path stroke-width="9.429" d="M9.175,60.72 L438.175,60.72"/><path stroke-width="5.714" d="M5.175,30.83 L434.175,30.83"/><path stroke-width="2" d="M0.175,0.959 L429.175,0.959"/></g></g></g><g fill="#FFF" fill-rule="nonzero" transform="translate(3.8 18.164)"><path d="M.1 3.43606798C-.1 2.43606798 0 1.73606798.4 1.13606798.8.636067977 1.4.236067977 2.1.136067977L2.7.0360679775C3.5-.0639320225 4.1.0360679775 4.7.436067977 5.3.836067977 5.7 1.43606798 5.8 2.43606798 6 3.43606798 5.9 4.23606798 5.4 4.73606798 5 5.23606798 4.4 5.63606798 3.6 5.73606798L3.2 5.73606798C2.4 5.83606798 1.8 5.73606798 1.2 5.43606798.6 5.03606798.2 4.43606798.1 3.43606798ZM30.39995 23.236068 32.89995 32.036068C33.39995 33.636068 33.49995 35.136068 33.39995 36.536068 33.29995 37.936068 32.79995 39.236068 32.09995 40.436068 31.39995 41.636068 30.29995 42.736068 28.89995 43.636068 27.49995 44.536068 25.79995 45.336068 23.79995 45.936068 21.79995 46.536068 19.99995 46.736068 18.29995 46.736068 16.59995 46.636068 15.19995 46.336068 13.89995 45.736068 12.59995 45.136068 11.59995 44.236068 10.69995 43.136068 9.79995 42.036068 9.19995 40.636068 8.69995 39.036068L6.19995 30.136068 30.39995 23.236068ZM12.79995 37.836068C13.29995 39.536068 14.19995 40.736068 15.49995 41.436068 16.79995 42.136068 18.49995 42.236068 20.59995 41.636068L24.39995 40.536068C26.49995 39.936068 27.89995 39.036068 28.59995 37.736068 29.29995 36.436068 29.39995 34.936068 28.89995 33.236068L27.69995 29.036068 11.59995 33.636068 12.79995 37.836068Z"/><polygon points="15.3 59.536 38.7 50.336 44.7 65.736 40.8 67.236 36.5 56.236 30.8 58.436 34.6 68.136 30.7 69.636 26.9 59.936 20.9 62.236 25.2 73.236 21.3 74.736"/><polygon points="26.2 85.536 48.2 73.436 56 87.636 52.3 89.636 46.8 79.636 41.5 82.536 46.3 91.236 42.6 93.236 37.8 84.536 28.5 89.636"/><polygon points="40.3 108.536 43.3 106.136 45.4 108.736 59 97.636 56.9 95.036 59.9 92.636 67.1 101.436 64.1 103.836 62 101.236 48.4 112.336 50.5 114.936 47.5 117.336"/><path d="M61.79995,132.836068 C60.59995,131.736068 59.69995,130.436068 59.09995,129.136068 C58.49995,127.836068 58.29995,126.436068 58.29995,125.036068 C58.39995,123.636068 58.79995,122.136068 59.49995,120.636068 C60.19995,119.136068 61.29995,117.636068 62.79995,116.136068 C64.29995,114.636068 65.69995,113.436068 67.19995,112.636068 C68.69995,111.836068 70.19995,111.336068 71.59995,111.136068 C73.09995,111.036068 74.49995,111.136068 75.79995,111.636068 C77.09995,112.136068 78.39995,112.936068 79.59995,114.136068 C81.19995,115.736068 82.19995,117.336068 82.69995,119.036068 C83.09995,120.736068 82.99995,122.636068 82.29995,124.636068 L77.89995,123.336068 C78.39995,122.236068 78.59995,121.236068 78.49995,120.136068 C78.39995,119.036068 77.79995,118.036068 76.79995,117.036068 C75.49995,115.836068 74.09995,115.236068 72.49995,115.436068 C70.89995,115.536068 69.39995,116.436068 67.89995,117.936068 L65.19995,120.836068 C63.69995,122.436068 62.89995,123.936068 62.79995,125.536068 C62.69995,127.136068 63.39995,128.536068 64.59995,129.736068 C65.59995,130.736068 66.69995,131.236068 67.89995,131.336068 C69.09995,131.436068 70.19995,131.136068 71.29995,130.636068 L72.49995,134.936068 C70.49995,135.636068 68.69995,135.836068 66.79995,135.536068 C64.89995,135.236068 63.49995,134.436068 61.79995,132.836068 Z"/><polygon points="95.2 146.536 86.9 140.136 80.4 148.536 76.7 145.636 92.1 125.836 95.8 128.736 89.5 136.836 97.8 143.236 104.1 135.136 107.8 138.036 92.4 157.836 88.7 154.936"/><path d="M115.19995,173.036068 L116.99995,166.536068 L109.49995,161.736068 L104.39995,166.036068 L100.29995,163.436068 L120.99995,146.836068 L125.99995,150.036068 L119.49995,175.736068 L115.19995,173.036068 Z M120.99995,152.136068 L120.79995,152.036068 L112.49995,159.036068 L118.09995,162.636068 L120.99995,152.136068 Z"/><polygon points="126.7 179.836 128.5 176.436 131.4 178.036 139.7 162.636 136.8 161.036 138.6 157.636 148.7 163.036 146.9 166.436 143.9 164.836 135.6 180.236 138.6 181.836 136.8 185.236"/><polygon points="158 180.936 157.6 175.136 157.5 175.136 150.5 191.836 146.4 190.136 156.1 166.936 160.9 168.936 162.9 183.736 163.3 189.536 163.4 189.536 170.4 172.836 174.5 174.536 164.8 197.736 160 195.736"/><path d="M192.39995 206.136068C191.39995 205.936068 190.79995 205.536068 190.39995 204.936068 189.99995 204.336068 189.89995 203.736068 190.09995 202.936068L190.19995 202.336068C190.39995 201.536068 190.69995 201.036068 191.29995 200.636068 191.89995 200.236068 192.59995 200.136068 193.59995 200.336068 194.59995 200.536068 195.29995 200.936068 195.59995 201.536068 195.89995 202.136068 195.99995 202.836068 195.89995 203.536068L195.79995 204.136068C195.59995 204.936068 195.29995 205.436068 194.69995 205.836068 194.19995 206.336068 193.39995 206.336068 192.39995 206.136068ZM222.29995 183.436068 231.39995 183.936068C232.99995 184.036068 234.49995 184.336068 235.79995 184.936068 237.09995 185.536068 238.19995 186.336068 239.09995 187.436068 239.99995 188.536068 240.59995 189.836068 241.09995 191.436068 241.49995 193.036068 241.69995 194.836068 241.59995 196.936068 241.49995 199.036068 241.09995 200.836068 240.49995 202.336068 239.89995 203.836068 239.09995 205.136068 238.09995 206.136068 237.09995 207.136068 235.89995 207.836068 234.59995 208.336068 233.19995 208.836068 231.69995 208.936068 230.09995 208.836068L220.99995 208.336068 222.29995 183.436068ZM230.29995 204.836068C232.09995 204.936068 233.49995 204.536068 234.59995 203.536068 235.69995 202.536068 236.29995 200.936068 236.39995 198.836068L236.59995 194.836068C236.69995 192.636068 236.29995 191.036068 235.29995 189.936068 234.29995 188.836068 232.89995 188.236068 231.19995 188.136068L226.79995 187.936068 225.89995 204.636068 230.29995 204.836068Z"/><polygon points="249.5 210.836 253.7 186.036 270 188.836 269.3 193.036 257.7 191.036 256.7 197.036 267 198.736 266.2 202.836 255.9 201.136 254.8 207.436 266.4 209.436 265.7 213.636"/><polygon points="274.6 215.536 281 191.236 296.6 195.336 295.5 199.436 284.5 196.536 282.9 202.436 292.5 204.936 291.4 209.036 281.8 206.536 279.1 216.836"/><polygon points="297.4 222.036 298.6 218.436 301.7 219.536 307.4 203.036 304.3 201.936 305.5 198.336 316.3 202.036 315.1 205.636 311.9 204.536 306.2 221.036 309.4 222.136 308.2 225.736"/><polygon points="328.3 233.936 339.2 211.236 353.8 218.236 352 222.036 341.7 217.136 339.1 222.636 348.1 226.936 346.3 230.736 337.3 226.436 332.7 236.036"/><path d="M357.79995 249.836068C356.39995 248.936068 355.19995 247.936068 354.39995 246.836068 353.49995 245.636068 352.99995 244.336068 352.69995 242.936068 352.49995 241.536068 352.49995 239.936068 352.89995 238.336068 353.29995 236.636068 353.99995 234.936068 355.09995 233.136068 356.19995 231.336068 357.39995 229.836068 358.69995 228.736068 359.99995 227.636068 361.29995 226.836068 362.69995 226.336068 364.09995 225.836068 365.49995 225.736068 366.89995 225.936068 368.29995 226.136068 369.79995 226.736068 371.19995 227.536068 372.59995 228.436068 373.79995 229.436068 374.59995 230.536068 375.49995 231.736068 375.99995 233.036068 376.29995 234.436068 376.59995 235.836068 376.49995 237.436068 376.09995 239.036068 375.69995 240.736068 374.99995 242.436068 373.89995 244.236068 372.79995 246.036068 371.59995 247.536068 370.29995 248.636068 368.99995 249.736068 367.69995 250.536068 366.29995 251.036068 364.89995 251.536068 363.49995 251.636068 362.09995 251.436068 360.69995 251.236068 359.19995 250.736068 357.79995 249.836068ZM359.99995 246.236068C361.49995 247.136068 363.09995 247.336068 364.59995 246.936068 366.09995 246.436068 367.49995 245.336068 368.59995 243.436068L370.59995 240.136068C371.69995 238.236068 372.09995 236.536068 371.79995 235.036068 371.49995 233.436068 370.59995 232.236068 368.99995 231.236068 367.49995 230.336068 365.89995 230.136068 364.39995 230.536068 362.89995 231.036068 361.49995 232.136068 360.39995 234.036068L358.39995 237.336068C357.29995 239.236068 356.89995 240.936068 357.19995 242.436068 357.49995 244.036068 358.39995 245.336068 359.99995 246.236068ZM378.29995 262.936068 374.49995 260.036068 389.89995 240.136068 398.89995 247.036068C399.79995 247.736068 400.49995 248.536068 400.99995 249.336068 401.49995 250.136068 401.79995 251.036068 401.89995 252.036068 401.99995 252.936068 401.89995 253.936068 401.59995 254.936068 401.29995 255.936068 400.79995 256.836068 400.09995 257.836068 398.99995 259.236068 397.79995 260.136068 396.39995 260.636068 394.99995 261.136068 393.59995 261.136068 391.99995 260.636068L389.79995 271.836068 385.59995 268.636068 387.79995 258.136068 384.19995 255.336068 378.29995 262.936068ZM391.49995 255.836068C392.19995 256.436068 392.89995 256.636068 393.69995 256.536068 394.39995 256.436068 395.09995 256.036068 395.59995 255.336068L396.59995 254.036068C397.19995 253.336068 397.39995 252.636068 397.29995 251.936068 397.19995 251.236068 396.79995 250.636068 395.99995 250.036068L391.19995 246.336068 386.69995 252.136068 391.49995 255.836068ZM423.69995 269.836068 431.39995 278.536068C432.09995 279.336068 432.59995 280.136068 432.89995 280.936068 433.19995 281.736068 433.39995 282.536068 433.29995 283.336068 433.29995 284.136068 432.99995 284.936068 432.59995 285.636068 432.19995 286.436068 431.59995 287.136068 430.89995 287.736068 430.19995 288.336068 429.49995 288.836068 428.79995 289.036068 428.09995 289.236068 427.49995 289.436068 426.89995 289.336068 426.29995 289.336068 425.69995 289.136068 425.19995 288.936068 424.69995 288.736068 424.19995 288.336068 423.79995 287.936068L423.59995 288.036068C423.99995 288.436068 424.29995 288.936068 424.49995 289.636068 424.79995 290.236068 424.89995 290.936068 424.89995 291.636068 424.89995 292.336068 424.79995 293.036068 424.39995 293.836068 424.09995 294.636068 423.49995 295.336068 422.69995 296.036068 421.89995 296.736068 421.09995 297.236068 420.29995 297.536068 419.39995 297.836068 418.59995 298.036068 417.69995 298.036068 416.79995 298.036068 415.99995 297.836068 415.19995 297.536068 414.39995 297.236068 413.69995 296.636068 413.09995 295.936068L404.69995 286.336068 423.69995 269.836068ZM410.99995 287.336068 415.39995 292.336068C415.99995 293.036068 416.59995 293.436068 417.29995 293.436068 417.99995 293.536068 418.69995 293.236068 419.29995 292.636068L420.19995 291.836068C420.89995 291.236068 421.19995 290.636068 421.19995 289.936068 421.19995 289.236068 420.89995 288.536068 420.29995 287.836068L415.89995 282.836068 410.99995 287.336068ZM418.99995 280.336068 422.89995 284.736068C423.49995 285.336068 424.09995 285.736068 424.79995 285.736068 425.49995 285.836068 426.09995 285.536068 426.69995 284.936068L427.49995 284.236068C428.09995 283.636068 428.49995 283.036068 428.49995 282.436068 428.49995 281.736068 428.29995 281.136068 427.69995 280.436068L423.79995 276.036068 418.99995 280.336068Z"/><polygon points="422.1 306.836 425.2 304.636 427.1 307.336 441.3 297.036 439.4 294.336 442.5 292.136 449.2 301.336 446.1 303.536 444.1 300.836 429.9 311.136 431.9 313.836 428.8 316.036"/><polygon points="456.6 320.936 438.7 331.736 436.3 327.636 454.2 316.836 450.5 310.736 454.1 308.536 463.9 324.836 460.3 327.036"/><path d="M449.29995 352.936068C448.59995 351.436068 448.19995 349.936068 448.09995 348.536068 447.99995 347.136068 448.29995 345.736068 448.79995 344.436068 449.39995 343.136068 450.29995 341.936068 451.49995 340.736068 452.69995 339.636068 454.29995 338.636068 456.19995 337.736068 458.09995 336.836068 459.89995 336.236068 461.59995 336.036068 463.29995 335.836068 464.89995 335.836068 466.29995 336.236068 467.69995 336.636068 468.99995 337.336068 469.99995 338.236068 470.99995 339.136068 471.99995 340.436068 472.69995 341.936068 473.69995 343.936068 473.99995 345.836068 473.79995 347.636068 473.59995 349.436068 472.79995 351.036068 471.39995 352.736068L467.69995 349.936068C468.59995 349.136068 469.09995 348.236068 469.39995 347.136068 469.69995 346.036068 469.49995 344.936068 468.89995 343.636068 468.09995 342.036068 466.99995 341.036068 465.49995 340.536068 463.99995 340.136068 462.19995 340.336068 460.29995 341.236068L456.69995 342.936068C454.69995 343.836068 453.39995 345.036068 452.79995 346.436068 452.19995 347.836068 452.29995 349.436068 452.99995 351.036068 453.59995 352.336068 454.39995 353.236068 455.49995 353.736068 456.59995 354.236068 457.69995 354.436068 458.89995 354.336068L458.49995 358.836068C456.39995 358.836068 454.59995 358.336068 452.99995 357.436068 451.49995 356.436068 450.29995 354.936068 449.29995 352.936068ZM459.09995 377.536068C458.59995 375.936068 458.29995 374.436068 458.39995 373.036068 458.49995 371.536068 458.89995 370.236068 459.59995 368.936068 460.29995 367.636068 461.39995 366.536068 462.69995 365.536068 464.09995 364.536068 465.69995 363.636068 467.79995 362.936068 469.79995 362.236068 471.69995 361.936068 473.39995 361.836068 475.09995 361.836068 476.59995 362.036068 477.99995 362.636068 479.29995 363.136068 480.49995 364.036068 481.49995 365.136068 482.49995 366.236068 483.19995 367.536068 483.69995 369.136068 484.19995 370.736068 484.49995 372.236068 484.39995 373.636068 484.29995 375.136068 483.89995 376.436068 483.19995 377.736068 482.49995 379.036068 481.39995 380.136068 479.99995 381.136068 478.59995 382.136068 476.89995 383.036068 474.89995 383.636068 472.89995 384.336068 470.99995 384.636068 469.29995 384.736068 467.59995 384.736068 466.09995 384.536068 464.69995 383.936068 463.29995 383.336068 462.19995 382.536068 461.19995 381.436068 460.19995 380.336068 459.69995 379.136068 459.09995 377.536068ZM463.09995 376.236068C463.69995 377.936068 464.69995 379.136068 466.19995 379.736068 467.69995 380.336068 469.39995 380.336068 471.49995 379.636068L475.19995 378.336068C477.19995 377.636068 478.69995 376.636068 479.49995 375.236068 480.29995 373.836068 480.39995 372.336068 479.79995 370.536068 479.19995 368.836068 478.19995 367.636068 476.69995 367.036068 475.19995 366.436068 473.49995 366.436068 471.39995 367.136068L467.69995 368.436068C465.69995 369.136068 464.19995 370.136068 463.39995 371.536068 462.69995 372.936068 462.59995 374.536068 463.09995 376.236068Z"/><polygon points="465 395.236 468.7 394.336 469.5 397.536 486.5 393.436 485.7 390.236 489.4 389.336 492.1 400.436 488.4 401.336 487.6 398.036 470.6 402.136 471.4 405.436 467.7 406.336"/><polygon points="483.3 420.236 488.1 416.936 488.1 416.836 470.2 419.436 469.5 414.936 494.4 411.236 495.2 416.436 483.5 425.836 478.7 429.136 478.7 429.236 496.6 426.636 497.3 431.136 472.4 434.836 471.6 429.636"/><path d="M473.59995,460.736068 C473.59995,459.736068 473.79995,459.036068 474.29995,458.536068 C474.79995,458.036068 475.39995,457.836068 476.19995,457.736068 L476.79995,457.736068 C477.59995,457.736068 478.19995,457.936068 478.69995,458.336068 C479.19995,458.836068 479.49995,459.536068 479.49995,460.536068 C479.49995,461.536068 479.29995,462.236068 478.79995,462.736068 C478.29995,463.236068 477.69995,463.436068 476.89995,463.436068 L476.29995,463.436068 C475.49995,463.436068 474.89995,463.236068 474.39995,462.836068 C473.89995,462.436068 473.59995,461.736068 473.59995,460.736068 Z"/></g></g></svg>