<svg xmlns="http://www.w3.org/2000/svg" xmlns:xlink="http://www.w3.org/1999/xlink" width="494" height="495" viewBox="0 0 494 495"><defs><rect id="a" width="500" height="500" x="0" y="0"/></defs><g fill="none" fill-rule="evenodd" transform="translate(-6 -5)"><mask id="b" fill="#fff"><use xlink:href="#a"/></mask><g mask="url(#b)"><g transform="translate(7.32 6.203)"><path stroke="#FFF" stroke-width="2" d="M70.80761,71.54351 L70.05021,72.19601 L70.70261,72.95361 L102.90621,110.35191 L103.55921,111.10991 L104.31721,110.45691 L117.81621,98.82691 C120.39421,96.67691 122.35721,94.28791 123.67321,91.65511 C124.96521,89.07071 125.85621,86.21461 125.85621,83.31281 C125.85621,80.25711 125.20121,77.21481 123.90621,74.19261 C122.61521,71.18121 120.48021,67.77151 117.92821,64.79401 C115.35621,61.79321 112.37021,59.45161 109.63521,57.55851 C106.76821,55.57341 103.69821,54.70521 100.90721,54.27581 C98.00621,53.82941 95.14421,54.28241 92.35851,55.13951 L92.32571,55.14961 L92.29361,55.16191 C89.48621,56.24171 86.89871,57.75321 84.32501,59.89791 L84.31871,59.90321 L84.31251,59.90851 L70.80761,71.54351 Z M111.12121,90.86011 L111.10921,90.86991 L111.09821,90.88021 L105.62321,95.80791 L85.54271,72.60821 L91.22621,67.65801 C93.77821,65.50001 96.22921,64.59551 98.81421,64.78011 C101.34321,64.96071 104.02621,66.60661 106.64621,69.62941 C106.64721,69.63021 106.64821,69.63101 106.64821,69.63181 L111.63121,75.44511 L111.63521,75.44921 C114.22821,78.44171 115.31521,81.30671 115.13321,83.86481 C114.94921,86.43811 113.67421,88.69991 111.12121,90.86011 Z"/><polygon stroke="#FFF" stroke-width="2" points="142.866 78.145 143.308 79.042 144.205 78.6 173.708 64.056 174.61 63.612 174.161 62.712 170.421 55.233 169.974 54.338 169.079 54.785 149.197 64.727 144.481 55.296 161.871 46.601 162.765 46.154 162.318 45.26 158.578 37.78 158.131 36.886 157.236 37.333 139.84 46.031 135.347 37.217 155.222 27.279 156.116 26.832 155.669 25.937 151.929 18.458 151.482 17.563 150.588 18.011 121.5 32.554 120.611 32.999 121.051 33.891"/><polygon stroke="#FFF" stroke-width="2" points="184.135 59.232 184.352 60.158 185.288 59.988 194.43 58.326 195.465 58.138 195.224 57.114 190.673 37.719 208.614 33.382 209.576 33.149 209.353 32.185 207.483 24.082 207.258 23.108 206.284 23.333 188.35 27.471 186.1 17.776 206.743 12.813 207.706 12.582 207.483 11.616 205.613 3.513 205.387 2.534 204.409 2.765 173.659 10.037 172.689 10.266 172.916 11.238"/><polygon stroke="#FFF" stroke-width="2" points="225.247 51.137 225.275 52.146 226.284 52.108 248.515 51.277 249.505 51.24 249.478 50.25 249.27 42.771 249.242 41.767 248.239 41.799 242.591 41.975 241.613 9.693 247.263 9.516 248.259 9.485 248.231 8.489 248.023 1.009 247.995 0 246.986 .038 224.755 .869 223.765 .906 223.793 1.896 224.001 9.376 224.029 10.38 225.033 10.347 230.472 10.172 231.45 42.454 226.007 42.63 225.012 42.662 225.04 43.657"/><path stroke="#FFF" stroke-width="2" d="M279.86221,55.82941 L279.86221,55.82951 L279.87121,55.83121 C284.37221,56.68851 288.57321,56.28961 291.74921,54.48441 C295.21321,52.74781 298.02421,50.35951 300.59621,46.93041 L301.16321,46.17501 L300.44121,45.56611 L293.79321,39.95641 L292.89521,39.19881 L292.29021,40.20621 C291.12821,42.14311 289.79121,43.47971 287.85521,44.64181 L287.83421,44.65411 L287.81421,44.66731 C286.24821,45.71141 284.05921,45.94761 281.47321,45.55231 C278.36921,44.96711 276.15721,43.64051 274.67721,41.23541 L274.66721,41.21991 L274.65721,41.20481 C273.19721,39.01381 272.75721,35.78541 273.55921,31.77501 L273.55921,31.77501 L273.56121,31.76481 L275.01521,24.08251 C275.81121,20.10481 277.38221,17.40071 279.48421,15.48971 C281.48521,13.67071 284.05521,13.07281 287.36421,13.65691 L287.37521,13.65881 L287.38621,13.66051 C289.93021,14.05191 291.72621,15.00561 292.76321,16.38861 L292.78621,16.41871 L292.81121,16.44711 C294.12921,17.95401 294.87221,19.62621 295.06121,21.69661 L295.17321,22.93521 L296.35921,22.55931 L304.87721,19.85831 L305.78421,19.57081 L305.54221,18.65061 C304.46721,14.56691 302.51921,11.06581 299.86521,8.62541 C297.17321,5.94201 293.42421,4.43481 288.97221,3.58684 L288.94421,3.58163 L288.91721,3.57795 C285.72521,3.15233 282.48021,3.14389 279.62621,3.80251 C276.76521,4.46261 274.13421,5.78211 271.73821,7.74281 C269.32221,9.71901 267.37121,12.33301 265.86721,15.34141 C264.35621,18.36261 263.29621,21.99171 262.45621,26.18861 L262.45221,26.21241 L262.44821,26.23641 C261.81821,30.43681 261.59821,34.06941 262.02921,37.52041 C262.46321,40.99461 263.55321,43.82351 265.06621,46.41871 L265.07621,46.43541 L265.08721,46.45171 C266.61921,48.86071 268.80221,51.04311 271.21121,52.57601 C273.62921,54.11511 276.66421,55.18971 279.86221,55.82941 Z"/><polygon stroke="#FFF" stroke-width="2" points="326.244 47.038 342.927 54.911 334.42 72.913 333.99 73.824 334.904 74.247 343.423 78.195 344.325 78.613 344.748 77.713 365.733 33.043 366.16 32.133 365.248 31.71 356.73 27.763 355.824 27.343 355.403 28.248 347.309 45.62 330.626 37.748 338.724 20.366 339.148 19.458 338.238 19.036 329.72 15.089 328.817 14.671 328.394 15.571 307.41 60.241 306.982 61.151 307.894 61.574 316.413 65.521 317.313 65.938 317.738 65.041"/><path stroke="#FFF" stroke-width="2" d="M377.83021,104.52491 L377.53821,105.20091 L378.09721,105.67991 L385.36921,111.91291 L386.42521,112.81791 L386.94721,111.52891 L406.47721,63.32701 L406.74721,62.66041 L406.20121,62.19231 L397.47521,54.71261 L396.92721,54.24361 L396.30921,54.61441 L351.63921,81.41641 L350.45021,82.13021 L351.50321,83.03311 L358.77521,89.26611 L359.33521,89.74591 L359.95921,89.35311 L370.55321,82.68241 L382.73321,93.14931 L377.83021,104.52491 Z M379.38421,77.19541 L393.84821,67.94541 L387.28121,83.94081 L379.38421,77.19541 Z"/><polygon stroke="#FFF" stroke-width="2" points="390.402 117.421 389.607 118.024 390.209 118.821 403.714 136.689 404.318 137.488 405.116 136.883 411.141 132.312 411.938 131.707 411.333 130.91 407.991 126.513 433.822 106.944 437.166 111.343 437.77 112.139 438.566 111.535 444.591 106.964 445.387 106.361 444.785 105.564 431.28 87.696 430.676 86.897 429.878 87.503 423.853 92.074 423.055 92.678 423.661 93.475 427.002 97.872 401.171 117.441 397.828 113.042 397.223 112.246 396.427 112.85"/><polygon stroke="#FFF" stroke-width="2" points="439.887 148.336 439.865 148.363 439.845 148.391 423.016 172.285 422.689 172.748 422.92 173.267 427.075 182.616 427.484 183.537 428.402 183.121 473.28 162.76 474.196 162.344 473.775 161.43 470.035 153.327 469.62 152.429 468.718 152.834 439.886 165.771 444.763 159.779 444.785 159.752 444.805 159.724 461.634 135.831 461.96 135.367 461.73 134.849 457.575 125.499 457.165 124.578 456.248 124.994 411.37 145.356 410.453 145.772 410.875 146.685 414.615 154.788 415.03 155.687 415.932 155.282 444.764 142.344"/><path stroke="#FFF" stroke-width="2" d="M440.72921 214.67091 440.71821 214.67191 440.70621 214.67391 439.47121 214.87991C437.82621 215.11791 436.33121 215.83891 435.31121 217.11391 434.28321 218.39791 433.82921 220.13091 434.05921 222.20591 434.28521 224.45591 435.20621 226.26791 436.61621 227.11391 437.79321 227.81991 439.27021 228.32691 441.01221 228.07791L441.02321 228.07591 441.03521 228.07391 442.20421 227.87991C443.90421 227.85491 445.39121 227.11691 446.39721 225.88391 447.50521 224.73791 447.90221 222.73291 447.68221 220.74991 447.45821 218.50891 446.75921 216.97091 445.44321 215.91891L445.40921 215.89191 445.37321 215.86791C443.98521 214.94191 442.49321 214.41891 440.72921 214.67091ZM486.31321 272.36991 486.50921 271.38791 485.52821 271.19291 437.53421 261.63591 436.55421 261.43991 436.35821 262.41991 432.82621 280.07991C432.17821 283.31791 432.17821 286.55291 432.61021 289.36291L432.61621 289.39891 432.62421 289.43491C433.27321 292.24591 434.36121 294.86791 436.11421 297.27791L436.12821 297.29691 436.14221 297.31491C437.87921 299.48591 440.04921 301.43691 443.06121 303.15991 445.91421 304.91191 449.58221 305.97591 453.54621 306.80991 457.57921 307.65991 461.22521 307.87891 464.68021 307.44791L464.68021 307.44791 464.68821 307.44591C467.93421 307.01391 470.95921 305.93391 473.34521 304.63191 475.80321 303.29191 477.99821 301.08491 479.52821 298.68091L479.53821 298.66491 479.54821 298.64791C481.05921 296.05791 482.13721 293.25191 482.78121 290.02991L486.31321 272.36991ZM444.15421 274.59191 474.39421 280.44491 472.92421 287.97991 472.92321 287.98691C472.33821 291.10691 471.00221 293.33791 468.78021 294.81891L468.76321 294.83091 468.74621 294.84291C466.78121 296.27191 463.78721 296.72191 459.76621 295.91691L459.76621 295.91691 459.75521 295.91491 452.07821 294.46291C452.07621 294.46291 452.07521 294.46191 452.07321 294.46191 448.02521 293.65191 445.43321 292.27791 443.98821 290.10991 442.50321 287.88291 442.09821 285.25491 442.68421 282.12691 442.68421 282.12491 442.68421 282.12391 442.68421 282.12291L444.15421 274.59191Z"/><polygon stroke="#FFF" stroke-width="2" points="425.511 311.785 424.612 311.357 424.18 312.254 410.051 341.549 409.613 342.457 410.525 342.888 418.005 346.42 418.907 346.846 419.335 345.945 428.879 325.861 438.501 330.41 430.201 347.997 429.774 348.901 430.679 349.328 438.158 352.86 439.063 353.287 439.49 352.383 447.786 334.803 456.785 339.129 447.239 359.214 446.809 360.12 447.715 360.548 455.195 364.08 456.097 364.506 456.525 363.605 470.446 334.31 470.874 333.407 469.973 332.978"/><polygon stroke="#FFF" stroke-width="2" points="404.513 352.006 403.743 351.39 403.116 352.152 397.299 359.216 396.657 359.995 397.442 360.629 412.87 373.09 401.24 387.479 400.611 388.258 401.39 388.886 407.831 394.08 408.609 394.707 409.237 393.93 420.87 379.537 428.662 385.772 415.365 402.443 414.744 403.221 415.519 403.845 421.959 409.04 422.742 409.67 423.369 408.885 443.107 384.161 443.73 383.38 442.95 382.756"/><polygon stroke="#FFF" stroke-width="2" points="377.443 383.941 376.8 383.158 376.026 383.811 358.781 398.355 358.026 398.991 358.653 399.754 363.432 405.571 364.071 406.35 364.845 405.705 369.066 402.187 389.802 426.835 385.588 430.347 384.825 430.983 385.455 431.75 390.234 437.568 390.872 438.345 391.646 437.702 408.89 423.366 409.655 422.73 409.024 421.962 404.245 416.145 403.606 415.367 402.832 416.011 398.613 419.527 377.872 394.676 382.089 391.161 382.852 390.526 382.222 389.758"/><polygon stroke="#FFF" stroke-width="2" points="331.679 416.607 331.305 415.698 330.39 416.056 321.872 419.38 320.925 419.749 321.31 420.69 328.828 439.09 311.672 446.189 310.755 446.569 311.128 447.489 314.245 455.177 314.623 456.11 315.554 455.725 332.706 448.627 336.509 457.789 316.662 465.926 315.74 466.304 316.114 467.227 319.231 474.914 319.609 475.846 320.538 475.464 349.833 463.413 350.758 463.033 350.378 462.108"/><path stroke="#FFF" stroke-width="2" d="M289.66221 437.22791 289.64421 437.21291 289.62621 437.19791C287.23021 435.23691 284.59821 433.91791 281.73821 433.25691 278.88521 432.59891 275.64221 432.60691 272.45121 433.03191 268.99421 433.46491 265.97821 434.54491 263.40621 435.83091L263.37721 435.84491 263.34921 435.86091C260.74021 437.38291 258.52221 439.36691 256.96421 442.03891 255.45021 444.63291 254.37221 447.44291 253.72821 450.87691L253.72321 450.90691 253.71921 450.93691C253.29221 454.35391 253.29321 458.18491 253.93021 462.42891 254.56421 466.65891 255.62821 470.29791 257.14121 473.32391 258.62621 476.29291 260.36421 478.92591 262.80421 480.92191 265.20021 482.88291 267.83221 484.20291 270.69221 484.86291 273.54821 485.52191 276.58421 485.51191 279.97521 485.08791 283.44921 484.65391 286.27821 483.56491 288.87321 482.05091 291.47721 480.53191 293.69021 478.55391 295.24921 475.88991 296.78321 473.47191 297.85521 470.44191 298.49321 467.04091 299.14421 463.78291 299.13521 459.92391 298.50021 455.69091 297.86521 451.46091 296.80221 447.82191 295.28921 444.79591 293.78521 441.78891 291.84321 439.19091 289.66221 437.22791ZM265.05121 456.94891 265.05121 456.94891 265.05021 456.93791C264.45621 452.97891 265.05621 449.90991 266.56021 447.45291 268.24821 445.02591 270.47621 443.70191 273.76321 443.11691 277.02621 442.73891 279.66121 443.50191 281.93121 445.19691 284.16121 447.06491 285.53321 449.91191 286.13321 453.90491L287.17121 461.37891 287.17121 461.37891 287.17321 461.38991C287.76721 465.34891 287.16621 468.41791 285.66221 470.87491 283.97421 473.30191 281.74621 474.62591 278.45921 475.21091 275.14021 475.59591 272.53621 475.00191 270.31021 473.14691 268.06921 471.27891 266.69121 468.42791 266.08921 464.42291L265.05121 456.94891ZM230.09721 435.73091 229.06821 435.61691 228.99021 436.64891 227.61521 454.72291 220.54121 453.88091 213.68521 434.52091 213.47821 433.93591 212.86121 433.86191 202.47321 432.61591 200.85421 432.42091 201.41521 433.95291 208.71521 453.87991C205.90321 454.65291 203.58121 456.13091 201.78821 458.32291 199.77121 460.78791 198.68221 463.88191 198.24821 467.32291 197.81021 469.76091 198.03421 472.17091 198.46721 474.12191 198.91521 476.35591 199.81221 478.14391 200.91721 479.69091 202.05221 481.27991 203.63321 482.63291 205.43921 483.53591 207.19521 484.41391 209.18221 485.07691 211.60221 485.29891L233.61421 487.79091 234.60721 487.90291 234.72021 486.91091 240.33021 437.87791 240.44421 436.88091 239.44721 436.76991 230.09721 435.73091ZM209.57921 467.18291 209.57921 467.18291 209.58121 467.16991C209.75821 465.57291 210.44921 464.56391 211.28921 463.89191 212.08021 463.25991 213.25321 462.88291 214.91221 463.06591L225.76321 464.39891 224.33121 476.74791 213.48721 475.41591 213.48721 475.41591 213.47621 475.41491C211.73521 475.22091 210.58821 474.65991 209.99121 473.91391 209.34321 473.10391 208.98521 472.13091 209.16421 470.49991L209.57921 467.18291ZM147.03821 468.15191 147.92121 468.61591 148.38721 467.73391 171.44921 424.10291 171.91821 423.21491 171.02921 422.74991 148.79821 411.11491 148.79021 411.11091 148.78121 411.10591C147.08021 410.25591 145.24821 409.54691 143.34821 409.54691 141.63021 409.54691 139.60321 409.75691 137.96721 410.45791 136.49121 411.09091 134.67921 411.98291 133.29121 413.37091 131.97621 414.68591 130.66321 416.43391 129.77921 418.20191L129.76921 418.22291 129.76021 418.24291C128.93821 420.09291 128.23521 421.90891 128.22021 423.78091 128.00021 425.65291 128.47521 427.26691 128.89421 428.52291 129.36621 429.93991 130.29321 431.09791 131.09321 432.09691L131.14021 432.15591 131.16921 432.19291C130.20721 432.19291 128.87521 432.20091 127.70221 432.64091 126.24421 432.91991 125.06221 433.86691 124.10821 434.62991 124.08021 434.65291 124.05221 434.67491 124.02421 434.69791L123.98121 434.73191 123.94121 434.77091C122.85321 435.85991 121.73921 437.19191 120.84521 438.97891 119.98821 440.69291 119.31321 442.46891 119.08521 444.28891 118.85821 446.10891 119.08721 447.90891 119.53221 449.46591L120.49221 449.19191 119.53221 449.46591C119.99121 451.07491 120.90121 452.66491 122.24721 454.02191 123.39921 455.38991 124.96721 456.49091 126.86421 457.54491L126.87421 457.55091 126.88421 457.55591 147.03821 468.15191ZM138.07321 440.08691 138.08621 440.09391 138.10021 440.10191 147.39321 445.03291 142.31421 454.48991 133.02721 449.56191C131.72921 448.81791 130.93221 447.96991 130.60821 447.07591 130.43621 445.97891 130.46821 444.81391 131.12721 443.66191L131.12721 443.66191 131.13221 443.65191 132.16821 441.78691C132.89021 440.52691 133.74121 439.87291 134.73021 439.54391 135.64321 439.23891 136.80121 439.35991 138.07321 440.08691ZM139.43721 424.96291 139.45121 424.93891 139.46321 424.91391 140.50221 422.83591C141.22721 421.38691 142.07021 420.75291 143.04121 420.42891 143.94521 420.12791 145.11121 420.23591 146.63121 420.99391L157.17021 426.55091 152.06521 436.40991 141.52921 430.85391 141.51921 430.84891 141.50921 430.84391C139.98521 430.08191 139.19621 429.21191 138.89421 428.30591 138.59021 427.39291 138.71021 426.23491 139.43721 424.96291Z"/><polygon stroke="#FFF" stroke-width="2" points="129.577 400.17 130.208 399.401 129.443 398.766 112.199 384.43 111.425 383.787 110.787 384.564 106.008 390.382 105.378 391.149 106.141 391.785 110.358 395.299 89.617 420.15 85.398 416.635 84.624 415.99 83.985 416.768 79.206 422.586 78.575 423.354 79.34 423.989 96.584 438.325 97.358 438.968 97.996 438.191 102.775 432.373 103.405 431.606 102.642 430.971 98.425 427.456 119.167 402.605 123.385 406.121 124.159 406.765 124.798 405.987"/><polygon stroke="#FFF" stroke-width="2" points="73.693 404.724 65.596 394.699 96.812 369.564 97.588 368.939 96.965 368.16 91.148 360.889 90.519 360.103 89.738 360.736 58.717 385.877 50.206 375.626 49.577 374.867 48.809 375.486 42.369 380.681 41.59 381.309 42.218 382.087 65.696 411.174 66.324 411.952 67.102 411.325 73.543 406.131 74.322 405.502"/><path stroke="#FFF" stroke-width="2" d="M72.87351 333.80891 72.87311 333.80391C72.65431 330.95991 71.78321 327.92891 70.28201 324.92391 68.34591 320.84091 65.72661 317.75491 61.97921 315.76391 58.68081 313.79191 54.96871 312.93491 50.68381 312.93491L49.75271 312.93491 49.68631 313.86291 49.06301 322.58991 48.97921 323.76291 50.15101 323.65691C52.32281 323.45891 54.40481 323.66591 56.26181 324.59391 58.12711 325.52691 59.64131 327.02191 60.80101 329.34091L60.80691 329.35291 60.81311 329.36391C62.35221 332.24991 62.51111 334.83991 61.39961 337.43391L61.38741 337.46191 61.37701 337.49091C60.46331 340.04991 58.23671 342.17591 54.41241 343.98791 54.41191 343.98791 54.41151 343.98791 54.41101 343.98791L47.35901 347.30691C43.72701 348.91891 40.65511 349.45191 37.85211 348.70391 35.05991 347.95991 32.99141 346.10891 31.64431 343.22191L31.63861 343.20991 31.63251 343.19791C30.49331 340.91991 30.31151 338.87491 30.67081 337.03091 31.24221 335.15191 32.18311 333.64191 33.73071 332.09391L34.54971 331.27491 33.61991 330.58391 26.34801 325.18191 25.57351 324.60691 24.97081 325.35991C22.40021 328.57391 20.63141 332.06891 20.18771 335.84091 19.74391 339.61291 20.63911 343.54391 22.56121 347.60291 24.07951 350.85491 26.03601 353.24591 28.19921 355.19191L28.21671 355.20791 28.23501 355.22291C30.58371 357.14491 33.20221 358.68991 36.08801 359.36291 38.97651 360.24391 42.24321 360.22591 45.61361 359.80491L45.64391 359.80091 45.67391 359.79491C49.06751 359.15891 52.68381 358.09691 56.51261 356.18491 60.33251 354.48491 63.55051 352.34591 65.93461 349.96191 68.30741 347.58891 70.02921 345.00391 71.31611 342.42991 72.65761 339.74691 73.09151 336.86091 72.87351 333.80891ZM25.55541 263.71291 25.55541 263.71291 25.54551 263.71491C21.56581 264.55291 17.91221 265.61791 14.86711 267.35791 11.86921 269.07091 9.48401 271.01591 7.52511 273.40991 5.52501 275.85491 4.43651 278.71591 3.79271 281.50591 3.13311 284.36391 3.13941 287.62591 3.78651 290.86091 4.42351 294.04591 5.49761 297.09791 7.26431 299.53791 8.81791 301.96891 11.01661 303.93491 13.61271 305.44891 16.25671 306.99091 19.30631 307.85191 22.71881 308.27791 26.16901 308.70991 29.80511 308.49091 34.02681 307.64791 38.28351 307.00691 41.92721 305.72491 44.94681 303.99891 47.93711 302.28991 50.31781 300.35091 52.27391 297.96491 54.29431 295.71091 55.38131 292.83091 56.02111 290.05891 56.68031 287.20191 56.67441 283.94291 56.02851 280.70991 55.37271 277.21791 53.84511 274.59891 52.40421 272.12891L52.37851 272.08491C50.81981 269.41291 48.60261 267.42991 45.99331 265.90791 43.35041 264.36591 40.30221 263.50591 36.89131 263.07891 33.63671 262.64491 29.78321 262.86791 25.55541 263.71291ZM31.75991 274.40191 31.75991 274.40191 31.76521 274.40091C35.76071 273.60191 39.01331 274.02891 41.43331 275.51791 43.86851 277.01691 45.38061 279.24991 45.95901 282.52791 46.54131 285.82691 45.95511 288.44591 44.27391 290.68791 42.60311 292.91591 39.75051 294.49091 35.73851 295.29291 35.73761 295.29391 35.73681 295.29391 35.73601 295.29391L28.26171 296.74691 28.25641 296.74791C24.26091 297.54691 21.00831 297.11991 18.58831 295.63091 16.15311 294.13191 14.64091 291.89891 14.06251 288.62091 13.48031 285.32191 14.06641 282.70191 15.74771 280.46091 17.41841 278.23291 20.27101 276.65791 24.28301 275.85591 24.28381 275.85491 24.28471 275.85491 24.28551 275.85491L31.75991 274.40191Z"/><polygon stroke="#FFF" stroke-width="2" points="50.241 250.319 51.24 250.346 51.268 249.347 51.891 227.116 51.919 226.116 50.919 226.088 43.44 225.88 42.444 225.853 42.412 226.849 42.236 232.499 9.953 231.521 10.13 225.872 10.161 224.869 9.158 224.842 1.678 224.634 .679 224.606 .651 225.606 .028 248.045 0 249.044 1 249.072 8.479 249.28 9.475 249.307 9.507 248.311 9.683 242.661 41.965 243.64 41.789 249.079 41.757 250.083 42.761 250.111"/><polygon stroke="#FFF" stroke-width="2" points="30.959 195.236 30.982 195.231 31.005 195.224 59.47 187.329 60.031 187.173 60.172 186.608 62.666 176.635 62.907 175.671 61.944 175.424 14.158 163.166 13.2 162.92 12.943 163.875 10.658 172.394 10.396 173.368 11.373 173.621 42.124 181.587 34.694 183.1 34.656 183.108 34.618 183.119 6.362 191.222 5.807 191.381 5.667 191.941 3.174 201.913 2.933 202.878 3.896 203.125 51.682 215.383 52.64 215.629 52.896 214.673 55.182 206.155 55.443 205.181 54.467 204.928 23.539 196.916"/><path stroke="#FFF" stroke-width="2" d="M77.85801,144.75991 L77.93541,144.74691 L78.00981,144.72191 C79.47301,144.23391 80.90941,143.25691 82.07361,141.39491 C83.15871,139.65891 83.77391,137.86791 83.21311,136.18491 C82.71761,134.69891 81.73041,133.48891 80.32591,132.55291 L80.30611,132.53991 L80.28571,132.52791 L79.26641,131.91591 C77.78831,130.93891 76.07971,130.70091 74.62041,130.94391 C72.96111,131.22091 71.50791,132.54391 70.40481,134.30891 C69.31971,136.04591 68.70451,137.83591 69.26531,139.51891 C69.76081,141.00491 70.74801,142.21491 72.15251,143.15091 L72.17231,143.16391 L72.19271,143.17691 L73.23151,143.79991 L73.24061,143.80491 L73.24991,143.81091 C74.87841,144.74091 76.35651,145.00991 77.85801,144.75991 Z"/><path fill="#FC1CAE" fill-rule="nonzero" d="M467.18621,397.44891 C461.41821,371.70591 437.50721,352.32091 410.96121,351.79891 C409.59621,351.76791 409.16221,352.04491 409.16221,353.48891 C409.22421,368.84891 409.19321,384.20891 409.19321,399.56891 C409.19321,400.09091 409.41021,400.67491 408.91421,401.25891 C406.77421,399.13891 404.66521,397.01891 402.52521,394.96091 C401.84321,394.31591 401.53321,393.63991 401.50221,392.68791 C401.25421,387.15791 400.97521,381.65891 400.69521,376.12991 C400.66421,375.45391 400.82021,374.83891 401.03721,374.19391 C402.80421,368.97191 404.54121,363.71891 406.30921,358.49591 C407.02221,356.34591 407.73521,354.16491 408.51121,351.86091 C403.89021,351.98391 399.57921,352.53591 395.26821,353.51991 C394.18321,353.76491 393.74921,354.25691 393.43921,355.23991 C392.53921,358.06591 391.51621,360.86191 390.64721,363.68791 C390.27521,364.91691 389.93421,365.22391 388.69421,364.54791 C385.93421,363.04291 383.08021,361.72191 380.25821,360.33891 C379.76221,360.09391 379.32821,359.81691 378.70821,360.18591 C374.73821,362.61291 371.01721,365.31591 367.69821,368.57191 C368.07021,369.09491 368.59821,369.18691 369.03221,369.43291 C374.80021,372.28991 380.56821,375.14591 386.33721,378.00291 C386.98821,378.31091 387.57721,378.55591 387.60821,379.50891 C387.70121,382.64191 387.88721,385.74491 388.10421,388.84791 C388.16621,389.73891 387.85621,389.98391 386.98821,389.92291 C384.01121,389.73891 381.00321,389.58491 377.99421,389.49291 C376.97121,389.46191 376.44421,389.06291 376.01021,388.17191 C373.74621,383.59491 371.42021,379.01691 369.12521,374.43991 C368.31821,372.84191 367.48121,371.27591 366.64421,369.58591 C363.26321,372.99591 360.50321,376.68191 358.05321,380.61491 C357.68121,381.22891 357.96021,381.65891 358.20821,382.15091 C359.66621,385.03791 361.09321,387.92591 362.61221,390.75191 C363.10821,391.70491 362.89121,392.01191 361.93021,392.31891 C358.82921,393.27091 355.75821,394.34691 352.68821,395.32991 C352.19221,395.48291 351.69621,395.54491 351.54121,396.18991 C350.42421,400.70591 349.74221,405.28291 349.68021,410.07491 C350.33121,409.89091 350.82721,409.73691 351.29321,409.58391 C358.23921,407.30991 365.18621,405.03691 372.13321,402.73291 C372.78421,402.51791 373.40521,402.33391 374.08721,402.36391 C379.76221,402.64091 385.43721,402.91691 391.11321,403.19391 C391.79521,403.22491 392.38421,403.37791 392.91121,403.90091 C394.92721,405.95891 396.97421,407.98591 399.05221,409.98291 C399.70321,410.62791 399.64121,410.96591 399.02121,411.54991 C397.03621,413.42391 395.11321,415.35891 393.22121,417.29391 C392.57021,417.96991 391.85721,418.27791 390.92721,418.33891 C386.58521,418.52291 382.24321,418.70791 377.93221,419.01491 C374.89321,419.22991 372.00921,418.98391 369.15621,417.84691 C366.86121,416.92591 364.47321,416.24991 362.11621,415.48191 C358.02221,414.16091 353.89821,412.83991 349.68021,411.45791 C349.74221,416.09591 350.36221,420.48891 351.41721,424.82091 C351.60321,425.61991 351.94421,426.01891 352.75021,426.26491 C355.78921,427.21691 358.79821,428.29191 361.86821,429.21391 C362.89121,429.52091 363.17021,429.82791 362.61221,430.87291 C361.09321,433.69891 359.66621,436.61691 358.20821,439.47391 C357.99121,439.90391 357.68121,440.30391 358.05321,440.88691 C360.50321,444.84991 363.26321,448.56791 366.67521,451.97691 C366.98521,451.42391 367.20221,450.96391 367.45021,450.50291 C370.33421,444.78891 373.24921,439.10591 376.10321,433.36091 C376.50621,432.53191 377.03321,432.13191 377.96321,432.10191 C380.91021,432.00891 383.85621,431.85591 386.80221,431.67091 C387.82521,431.60991 388.29121,431.79391 388.19721,432.96191 C387.94921,435.87991 387.79421,438.79891 387.73221,441.68591 C387.70121,442.73091 387.26721,443.19191 386.39921,443.62191 C380.56821,446.47891 374.76921,449.36591 368.97021,452.25391 C368.56721,452.43791 368.07021,452.52991 367.85321,453.05291 C371.01721,456.15491 374.58321,458.76691 378.33621,461.13191 C379.14221,461.62391 379.76221,461.62391 380.56821,461.19291 C383.36021,459.74991 386.21321,458.42891 388.97321,456.95391 C389.99621,456.40091 390.33721,456.67791 390.64721,457.69091 C391.60921,460.70191 392.63221,463.71291 393.65621,466.72291 C393.81121,467.21491 393.87321,467.73691 394.49321,467.88991 C399.05221,468.99591 403.67321,469.67191 408.38721,469.73391 C408.44921,468.93491 408.10721,468.32091 407.89021,467.70591 C405.62621,460.91691 403.36321,454.12791 401.06821,447.33891 C400.88221,446.75491 400.69521,446.17091 400.72621,445.55691 C401.00621,439.93491 401.28521,434.31291 401.56421,428.69191 C401.59521,428.19991 401.53321,427.67791 401.96721,427.24791 C404.29321,424.94391 406.61921,422.66991 409.22421,420.08991 C409.22421,421.07291 409.22421,421.65691 409.22421,422.20991 C409.22421,437.56991 409.22421,452.92991 409.19321,468.28991 C409.19321,469.48791 409.47221,469.82591 410.71321,469.79491 C416.51221,469.54891 422.21821,468.68891 427.73821,466.84591 C457.23121,456.98491 473.94721,427.61591 467.18621,397.44891 Z M423.18021,454.46591 C422.99321,454.52691 422.77621,454.55791 422.43521,454.61891 C422.43521,454.03591 422.43521,453.51291 422.43521,453.02191 C422.43521,424.85191 422.43521,396.71191 422.43521,368.54191 C422.43521,366.79091 422.46621,366.75991 424.14121,367.37391 C442.12821,374.13291 452.64121,386.91191 455.15321,405.80491 C457.97521,427.03291 443.80321,448.38291 423.18021,454.46591 Z"/><path fill="#00F3FF" fill-rule="nonzero" d="M314.52421,317.04891 L321.97321,310.63191 C323.34821,309.48591 324.72321,308.68391 326.21221,308.11091 C327.70221,307.65291 329.19121,307.42391 330.68121,307.65291 C332.17121,307.88191 333.77521,308.33991 335.26521,309.37191 C336.75421,310.40291 338.35821,311.66291 339.73321,313.26791 C341.10821,314.87191 342.25421,316.70491 342.94221,318.30891 C343.62921,319.91391 343.97321,321.51791 343.97321,323.12191 C343.97321,324.61191 343.51521,326.10091 342.82721,327.47591 C342.14021,328.85091 341.10821,330.11191 339.73321,331.25791 L332.28521,337.67391 L314.52421,317.04891 Z M336.75421,327.70491 C338.24421,326.44491 339.04621,325.06991 339.16021,323.46591 C339.27521,321.86191 338.58821,320.14291 337.09821,318.42391 L334.34821,315.21591 C332.85821,313.49691 331.25421,312.46591 329.65021,312.35091 C328.04621,312.23591 326.55621,312.80891 325.06621,314.06991 L321.51421,317.16391 L333.31721,330.79891 L336.75421,327.70491 Z"/><polygon fill="#00F3FF" fill-rule="nonzero" points="354.4 320.028 342.369 295.621 358.411 287.6 360.474 291.725 349.015 297.455 351.994 303.299 362.078 298.257 364.14 302.382 354.057 307.424 357.151 313.611 368.609 307.882 370.672 312.007"/><polygon fill="#00F3FF" fill-rule="nonzero" points="377.203 309.715 371.015 283.246 387.974 279.236 389.005 283.704 377.089 286.569 378.578 292.986 389.005 290.58 390.037 295.048 379.609 297.569 382.245 308.799"/><polygon fill="#00F3FF" fill-rule="nonzero" points="399.891 305.361 399.777 301.236 403.329 301.122 402.756 282.215 399.204 282.329 399.089 278.204 411.35 277.746 411.464 281.871 407.798 281.986 408.371 300.892 412.037 300.778 412.152 304.903"/><path fill="#00F3FF" fill-rule="nonzero" d="M429.56921,307.42391 C427.85021,307.07991 426.24621,306.50691 424.98621,305.70491 C423.72521,304.90291 422.57921,303.75691 421.77721,302.49691 C420.97521,301.12191 420.40221,299.63191 420.17321,297.79891 C419.94421,295.96491 420.05821,294.01691 420.40221,291.72591 C420.86021,289.43391 421.43321,287.48591 422.23521,285.88191 C423.03821,284.27691 424.06921,282.90191 425.32921,281.87091 C426.59021,280.83991 427.96521,280.15191 429.45421,279.80891 C430.94421,279.46491 432.66321,279.46491 434.38221,279.69391 C436.78821,280.15191 438.73621,280.95391 440.11121,282.32991 C441.48621,283.58991 442.51721,285.42291 443.09021,287.59991 L438.39221,289.08991 C438.27721,287.82991 437.81921,286.79791 437.01721,285.88191 C436.33021,284.96491 435.18421,284.39191 433.69421,284.16291 C431.74621,283.81891 430.14221,284.16291 428.88121,285.30891 C427.62121,286.45491 426.70421,288.05891 426.24621,290.35091 L425.44421,294.58991 C424.98521,296.88191 425.21521,298.82991 426.13121,300.20491 C427.04821,301.69491 428.42321,302.49691 430.25621,302.83991 C431.74621,303.06991 433.12121,302.95491 434.15221,302.26691 C435.29821,301.57991 436.10021,300.77791 436.78821,299.63191 L440.45521,302.72591 C439.08021,304.55891 437.59021,305.81991 435.75721,306.73591 C434.15221,307.652873 431.97521,307.88191 429.56921,307.42391 Z"/><polygon fill="#00F3FF" fill-rule="nonzero" points="464.976 307.195 454.778 302.382 449.851 312.809 445.153 310.632 456.726 285.996 461.424 288.173 456.726 298.257 466.924 303.069 471.622 292.986 476.32 295.163 464.747 319.799 460.049 317.622"/><path fill="#00F3FF" fill-rule="nonzero" d="M483.99721,335.03891 L486.86221,328.39291 L479.52921,322.09091 L473.34121,325.98691 L469.33021,322.54891 L493.96621,307.76691 L498.77921,311.89291 L488.00821,338.47691 L483.99721,335.03891 Z M493.39321,313.49691 L493.27921,313.38191 L483.42421,319.68391 L488.92521,324.38191 L493.39321,313.49691 Z"/><polygon fill="#00F3FF" fill-rule="nonzero" points="490.758 342.372 494.081 339.852 496.258 342.716 511.383 331.258 509.206 328.393 512.529 325.872 519.977 335.726 516.654 338.247 514.477 335.383 499.352 346.841 501.529 349.706 498.206 352.227"/><polygon fill="#00F3FF" fill-rule="nonzero" points="482.852 489.272 485.487 492.48 482.737 494.772 494.883 509.324 497.633 507.033 500.269 510.241 490.758 518.147 488.122 514.939 490.873 512.647 478.726 498.209 475.976 500.501 473.341 497.293"/><polygon fill="#00F3FF" fill-rule="nonzero" points="346.15 497.522 343.515 500.73 340.765 498.439 328.619 512.991 331.369 515.283 328.733 518.491 319.223 510.585 321.858 507.376 324.608 509.668 336.754 495.116 334.004 492.824 336.64 489.615"/><polygon fill="#00F3FF" fill-rule="nonzero" points="307.42 490.761 324.952 476.553 328.16 480.563 310.514 494.772 315.327 500.73 311.775 503.595 298.826 487.553 302.379 484.688"/><path fill="#00F3FF" fill-rule="nonzero" d="M313.37921 456.61491C314.18121 458.21891 314.63921 459.82291 314.75421 461.31291 314.86821 462.91691 314.63921 464.40691 313.95221 465.78191 313.26421 467.15691 312.34721 468.53191 311.08721 469.79191 309.82721 471.05291 308.10821 472.19791 306.04521 473.11491 303.98321 474.14591 302.03521 474.71891 300.20121 475.06291 298.36821 475.29191 296.64921 475.29191 295.15921 474.83391 293.67021 474.48991 292.29521 473.68791 291.03421 472.65691 289.88921 471.62591 288.85721 470.36491 288.05521 468.64591 287.02421 466.46891 286.56621 464.40691 286.79521 462.45891 287.02421 460.51091 287.94121 458.67691 289.31621 456.95791L293.32621 459.93791C292.40921 460.85391 291.83721 461.77091 291.49321 462.91691 291.26421 464.06291 291.37821 465.32291 292.06621 466.69791 292.86821 468.41691 294.12821 469.56291 295.84721 470.02091 297.56621 470.47991 299.39921 470.13591 301.46221 469.21891L305.35821 467.38591C307.53521 466.35491 308.91021 465.09391 309.48321 463.48991 310.17021 461.88591 310.05621 460.28091 309.13921 458.56291 308.45121 457.18791 307.53521 456.27091 306.38921 455.69791 305.24321 455.12491 303.98321 455.01091 302.72221 455.12491L303.06621 450.31291C305.35821 450.31291 307.30621 450.77091 309.02421 451.80191 310.97221 452.83291 312.34721 454.43791 313.37921 456.61491ZM305.47221 432.09291C305.81621 433.81191 305.81621 435.53091 305.47221 437.02091 305.12921 438.50991 304.55621 439.99991 303.52421 441.14591 302.49321 442.40591 301.23321 443.43691 299.62821 444.35391 298.02421 445.27091 296.07621 445.95791 293.78521 446.30191 291.49321 446.75991 289.54521 446.87491 287.71121 446.64591 285.87821 446.41691 284.27421 445.95791 282.89921 445.15591 281.52421 444.35391 280.37821 443.32291 279.57621 442.06191 278.65921 440.80191 278.08621 439.19791 277.74321 437.47891 277.39921 435.75991 277.39921 434.04091 277.74321 432.55191 278.08621 431.06191 278.65921 429.57191 279.69021 428.31191 280.72221 427.05191 281.98221 426.01991 283.58621 425.10391 285.19121 424.18691 287.13921 423.61391 289.31621 423.15591 291.60721 422.69691 293.67021 422.58291 295.38921 422.81191 297.22221 423.04091 298.82621 423.49891 300.20121 424.30091 301.57621 425.10391 302.72221 426.13491 303.52421 427.50991 304.32621 428.88491 305.12921 430.25991 305.47221 432.09291ZM301.00321 432.89491C300.66021 430.94691 299.74321 429.57191 298.25321 428.65591 296.76421 427.738947 294.81621 427.50991 292.52421 427.96791L288.39921 428.76991C286.10721 429.22891 284.38821 430.14491 283.35721 431.51991 282.32621 432.89491 281.98221 434.49991 282.32621 436.44791 282.67021 438.39591 283.58621 439.77091 285.07621 440.68691 286.56621 441.603873 288.51421 441.83291 290.80521 441.37491L294.93021 440.57291C297.22221 440.11391 298.94121 439.19791 299.97221 437.82291 301.00321 436.44791 301.34721 434.84291 301.00321 432.89491Z"/><polygon fill="#00F3FF" fill-rule="nonzero" points="302.837 414.676 298.712 414.562 298.826 411.009 279.92 410.437 279.805 414.103 275.68 413.989 276.024 401.613 280.149 401.728 280.034 405.395 298.941 405.968 299.056 402.301 303.181 402.416"/><polygon fill="#00F3FF" fill-rule="nonzero" points="292.066 384.311 285.993 385.686 285.993 385.801 305.014 390.728 303.754 395.426 277.399 388.665 278.774 383.165 294.357 378.696 300.545 377.436 300.545 377.321 281.524 372.394 282.784 367.696 309.139 374.457 307.764 379.957"/><path fill="#00F3FF" fill-rule="nonzero" d="M319.91021,354.86191 C319.33721,355.77891 318.65021,356.23691 317.96221,356.46691 C317.27521,356.58091 316.58721,356.46691 315.78521,356.00791 L315.21221,355.66491 C314.52521,355.20591 314.06621,354.63291 313.83721,353.94591 C313.60821,353.25791 313.83721,352.45591 314.41021,351.53891 C314.98321,350.62291 315.67121,350.04991 316.35821,349.93491 C317.04621,349.82091 317.84821,349.93491 318.53521,350.39391 L319.10821,350.73691 C319.79621,351.19591 320.25421,351.76891 320.48321,352.45591 C320.71221,353.14391 320.48321,353.94591 319.91021,354.86191 Z"/><path stroke="#FFF" stroke-width="3" d="M242.68021 203.79691 242.68021 283.79691M202.68021 243.79691 282.68021 243.79691"/></g></g></g></svg>