<svg width="500" height="500" viewBox="0 0 500 500" xmlns="http://www.w3.org/2000/svg" xmlns:xlink="http://www.w3.org/1999/xlink"><defs><path d="M493.723507,193.442197 C469.486513,84.3594412 369.022158,2.22223507 257.481696,0.00934489403 C251.748555,-0.120809249 249.923892,1.05071291 249.923892,7.16868979 C250.184008,72.2536609 250.05395,137.33815 250.05395,202.423892 C250.05395,204.636802 250.966281,207.109827 248.881503,209.582852 C239.890173,200.601156 231.029865,191.619461 222.038536,182.897881 C219.172447,180.16474 217.868979,177.300578 217.738921,173.265896 C216.696532,149.83526 215.523121,126.534682 214.350674,103.10395 C214.220617,100.240173 214.871869,97.6368015 215.7842,94.9031792 C223.210983,72.7743738 230.508671,50.5153179 237.935453,28.3864162 C240.932563,19.2744701 243.929672,10.0324335 247.187861,0.269691715 C227.771676,0.790366089 209.659923,3.13342967 191.547206,7.2988632 C186.986513,8.34022158 185.162813,10.4229422 183.859345,14.5883815 C180.080925,26.5639692 175.780347,38.4094412 172.131985,50.3850674 C170.568401,55.5919075 169.134875,56.8936416 163.922929,54.0298651 C152.325626,47.6515414 140.33815,42.0542389 128.479769,36.1966281 C126.39499,35.1552023 124.571291,33.9837187 121.965318,35.5457611 C105.286127,45.8291908 89.649422,57.284104 75.7068401,71.0820809 C77.2705202,73.2949904 79.4856455,73.6855491 81.3099229,74.7268786 C105.546243,86.832659 129.783237,98.9385356 154.020231,111.044316 C156.756262,112.345857 159.232177,113.387283 159.362235,117.422929 C159.753372,130.700385 160.534682,143.846821 161.447013,156.99422 C161.708092,160.768786 160.404624,161.810212 156.756262,161.550096 C144.246628,160.768786 131.6079,160.118497 118.968208,159.72736 C114.66763,159.597303 112.452794,157.905588 110.628131,154.130058 C101.116185,134.735067 91.3433526,115.340077 81.7008671,95.944605 C78.3129094,89.1757225 74.7947013,82.5370906 71.2764933,75.3777457 C57.0733141,89.8265896 45.4762042,105.447013 35.1821773,122.108863 C33.6184971,124.711946 34.7912331,126.534682 35.8337187,128.617534 C41.9579961,140.853565 47.9520231,153.089595 54.3368979,165.064547 C56.4217726,169.100193 55.5096339,170.401734 51.4702312,171.703276 C38.4397881,175.738921 25.5396917,180.294798 12.6395279,184.460501 C10.5546532,185.11079 8.46978613,185.370906 7.81826397,188.10501 C3.1273025,207.239884 0.260606936,226.634875 0,246.941233 C2.73639692,246.160886 4.82126204,245.509634 6.77582852,244.859345 C35.9640655,235.226397 65.1522158,225.593449 94.3403661,215.831407 C97.0767823,214.920039 99.6828516,214.138728 102.549518,214.268786 C126.39499,215.44027 150.240848,216.611753 174.086705,217.783237 C176.953757,217.914258 179.428709,218.564547 181.644509,220.777457 C190.11368,229.499037 198.713873,238.090559 207.445087,246.55106 C210.181118,249.285164 209.920039,250.716763 207.314066,253.189788 C198.974952,261.130058 190.895954,269.330443 182.947013,277.531792 C180.210983,280.39499 177.213873,281.697495 173.304432,281.957611 C155.06262,282.737958 136.819846,283.519268 118.707129,284.820809 C105.93738,285.732177 93.8191715,284.690751 81.8312139,279.874759 C72.188632,275.969171 62.1552023,273.105973 52.2520231,269.851638 C35.0519268,264.254335 17.7213969,258.657033 0,252.799615 C0.260606936,272.454721 2.86669557,291.069364 7.29704239,309.422929 C8.0788738,312.807322 9.51222158,314.499998 12.9001349,315.541426 C25.6699422,319.576108 38.3095376,324.131985 51.2096339,328.037572 C55.5096339,329.339114 56.6824663,330.640655 54.3368979,335.066474 C47.9520231,347.042389 41.9579961,359.408478 35.8337187,371.514451 C34.92158,373.336224 33.6184971,375.028902 35.1821773,377.501927 C45.4762042,394.293834 57.0733141,410.044316 71.4068401,424.493256 C72.7098266,422.150289 73.6219653,420.197495 74.6644509,418.245665 C86.7827553,394.033719 99.0313102,369.95183 111.019268,345.61079 C112.712909,342.096339 114.928709,340.403661 118.837187,340.273603 C131.216763,339.88343 143.595376,339.232177 155.973988,338.450867 C160.274566,338.190751 162.229287,338.972062 161.83815,343.918112 C160.795761,356.2842 160.144509,368.650289 159.88343,380.88632 C159.753372,385.312139 157.928709,387.264933 154.280347,389.087669 C129.783237,401.192678 105.416185,413.428709 81.0493256,425.66474 C79.355395,426.44605 77.2705202,426.836224 76.3583815,429.049133 C89.649422,442.196532 104.634489,453.261079 120.401734,463.2842 C123.789017,465.367052 126.39499,465.367052 129.783237,463.544316 C141.510597,457.426782 153.499037,451.82948 165.095376,445.580925 C169.395954,443.237958 170.82948,444.409441 172.131985,448.705202 C176.171484,461.461464 180.472062,474.21869 184.771676,486.974952 C185.422929,489.057803 185.684008,491.270713 188.289981,491.921002 C207.445087,496.6079 226.860308,499.471098 246.666667,499.731214 C246.926782,496.346821 245.493256,493.743738 244.580925,491.140655 C235.069364,462.372832 225.55684,433.60501 215.914258,404.83815 C215.132948,402.364162 214.350674,399.891137 214.480732,397.288054 C215.654143,373.467245 216.82659,349.645472 217.999037,325.824663 C218.130058,323.741811 217.868979,321.528902 219.693642,319.707129 C229.466281,309.944123 239.238921,300.311175 250.184008,289.376686 C250.184008,293.542389 250.184008,296.015414 250.184008,298.358382 C250.184008,363.444123 250.184008,428.528902 250.05395,493.61368 C250.05395,498.690751 251.22736,500.122351 256.439306,499.992293 C280.806358,498.950867 304.782274,495.306358 327.975915,487.496146 C451.895954,445.710983 522.130058,321.268786 493.723507,193.442197 Z M308.821773,435.037572 C308.039499,435.297688 307.127168,435.427746 305.694605,435.687861 C305.694605,433.214836 305.694605,431.001927 305.694605,428.919075 C305.694605,309.552987 305.694605,190.317919 305.694605,70.9519268 C305.694605,63.5322736 305.824663,63.4021195 312.861272,66.0054913 C388.43738,94.6428709 432.61079,148.793834 443.165703,228.847784 C455.023121,318.795761 395.473988,409.263969 308.821773,435.037572 Z" id="a"/></defs><g fill="none" fill-rule="evenodd"><rect x="8.671" y="9.634" width="481.696" height="481.696"/><path d="M493.723507,193.442197 C469.486513,84.3594412 369.022158,2.22223507 257.481696,0.00934489403 C251.748555,-0.120809249 249.923892,1.05071291 249.923892,7.16868979 C250.184008,72.2536609 250.05395,137.33815 250.05395,202.423892 C250.05395,204.636802 250.966281,207.109827 248.881503,209.582852 C239.890173,200.601156 231.029865,191.619461 222.038536,182.897881 C219.172447,180.16474 217.868979,177.300578 217.738921,173.265896 C216.696532,149.83526 215.523121,126.534682 214.350674,103.10395 C214.220617,100.240173 214.871869,97.6368015 215.7842,94.9031792 C223.210983,72.7743738 230.508671,50.5153179 237.935453,28.3864162 C240.932563,19.2744701 243.929672,10.0324335 247.187861,0.269691715 C227.771676,0.790366089 209.659923,3.13342967 191.547206,7.2988632 C186.986513,8.34022158 185.162813,10.4229422 183.859345,14.5883815 C180.080925,26.5639692 175.780347,38.4094412 172.131985,50.3850674 C170.568401,55.5919075 169.134875,56.8936416 163.922929,54.0298651 C152.325626,47.6515414 140.33815,42.0542389 128.479769,36.1966281 C126.39499,35.1552023 124.571291,33.9837187 121.965318,35.5457611 C105.286127,45.8291908 89.649422,57.284104 75.7068401,71.0820809 C77.2705202,73.2949904 79.4856455,73.6855491 81.3099229,74.7268786 C105.546243,86.832659 129.783237,98.9385356 154.020231,111.044316 C156.756262,112.345857 159.232177,113.387283 159.362235,117.422929 C159.753372,130.700385 160.534682,143.846821 161.447013,156.99422 C161.708092,160.768786 160.404624,161.810212 156.756262,161.550096 C144.246628,160.768786 131.6079,160.118497 118.968208,159.72736 C114.66763,159.597303 112.452794,157.905588 110.628131,154.130058 C101.116185,134.735067 91.3433526,115.340077 81.7008671,95.944605 C78.3129094,89.1757225 74.7947013,82.5370906 71.2764933,75.3777457 C57.0733141,89.8265896 45.4762042,105.447013 35.1821773,122.108863 C33.6184971,124.711946 34.7912331,126.534682 35.8337187,128.617534 C41.9579961,140.853565 47.9520231,153.089595 54.3368979,165.064547 C56.4217726,169.100193 55.5096339,170.401734 51.4702312,171.703276 C38.4397881,175.738921 25.5396917,180.294798 12.6395279,184.460501 C10.5546532,185.11079 8.46978613,185.370906 7.81826397,188.10501 C3.1273025,207.239884 0.260606936,226.634875 0,246.941233 C2.73639692,246.160886 4.82126204,245.509634 6.77582852,244.859345 C35.9640655,235.226397 65.1522158,225.593449 94.3403661,215.831407 C97.0767823,214.920039 99.6828516,214.138728 102.549518,214.268786 C126.39499,215.44027 150.240848,216.611753 174.086705,217.783237 C176.953757,217.914258 179.428709,218.564547 181.644509,220.777457 C190.11368,229.499037 198.713873,238.090559 207.445087,246.55106 C210.181118,249.285164 209.920039,250.716763 207.314066,253.189788 C198.974952,261.130058 190.895954,269.330443 182.947013,277.531792 C180.210983,280.39499 177.213873,281.697495 173.304432,281.957611 C155.06262,282.737958 136.819846,283.519268 118.707129,284.820809 C105.93738,285.732177 93.8191715,284.690751 81.8312139,279.874759 C72.188632,275.969171 62.1552023,273.105973 52.2520231,269.851638 C35.0519268,264.254335 17.7213969,258.657033 0,252.799615 C0.260606936,272.454721 2.86669557,291.069364 7.29704239,309.422929 C8.0788738,312.807322 9.51222158,314.499998 12.9001349,315.541426 C25.6699422,319.576108 38.3095376,324.131985 51.2096339,328.037572 C55.5096339,329.339114 56.6824663,330.640655 54.3368979,335.066474 C47.9520231,347.042389 41.9579961,359.408478 35.8337187,371.514451 C34.92158,373.336224 33.6184971,375.028902 35.1821773,377.501927 C45.4762042,394.293834 57.0733141,410.044316 71.4068401,424.493256 C72.7098266,422.150289 73.6219653,420.197495 74.6644509,418.245665 C86.7827553,394.033719 99.0313102,369.95183 111.019268,345.61079 C112.712909,342.096339 114.928709,340.403661 118.837187,340.273603 C131.216763,339.88343 143.595376,339.232177 155.973988,338.450867 C160.274566,338.190751 162.229287,338.972062 161.83815,343.918112 C160.795761,356.2842 160.144509,368.650289 159.88343,380.88632 C159.753372,385.312139 157.928709,387.264933 154.280347,389.087669 C129.783237,401.192678 105.416185,413.428709 81.0493256,425.66474 C79.355395,426.44605 77.2705202,426.836224 76.3583815,429.049133 C89.649422,442.196532 104.634489,453.261079 120.401734,463.2842 C123.789017,465.367052 126.39499,465.367052 129.783237,463.544316 C141.510597,457.426782 153.499037,451.82948 165.095376,445.580925 C169.395954,443.237958 170.82948,444.409441 172.131985,448.705202 C176.171484,461.461464 180.472062,474.21869 184.771676,486.974952 C185.422929,489.057803 185.684008,491.270713 188.289981,491.921002 C207.445087,496.6079 226.860308,499.471098 246.666667,499.731214 C246.926782,496.346821 245.493256,493.743738 244.580925,491.140655 C235.069364,462.372832 225.55684,433.60501 215.914258,404.83815 C215.132948,402.364162 214.350674,399.891137 214.480732,397.288054 C215.654143,373.467245 216.82659,349.645472 217.999037,325.824663 C218.130058,323.741811 217.868979,321.528902 219.693642,319.707129 C229.466281,309.944123 239.238921,300.311175 250.184008,289.376686 C250.184008,293.542389 250.184008,296.015414 250.184008,298.358382 C250.184008,363.444123 250.184008,428.528902 250.05395,493.61368 C250.05395,498.690751 251.22736,500.122351 256.439306,499.992293 C280.806358,498.950867 304.782274,495.306358 327.975915,487.496146 C451.895954,445.710983 522.130058,321.268786 493.723507,193.442197 Z M308.821773,435.037572 C308.039499,435.297688 307.127168,435.427746 305.694605,435.687861 C305.694605,433.214836 305.694605,431.001927 305.694605,428.919075 C305.694605,309.552987 305.694605,190.317919 305.694605,70.9519268 C305.694605,63.5322736 305.824663,63.4021195 312.861272,66.0054913 C388.43738,94.6428709 432.61079,148.793834 443.165703,228.847784 C455.023121,318.795761 395.473988,409.263969 308.821773,435.037572 Z" opacity=".8" style="mix-blend-mode:screen" fill="#FC1CAE" fill-rule="nonzero"/><mask id="b" fill="#fff"><use xlink:href="#a"/></mask><g mask="url(#b)" fill="#00F3FF" fill-rule="nonzero"><path d="M.818882466 1.05973025 13.4874759 1.05973025C15.7032755 1.05973025 17.7263969 1.41297688 19.5568401 2.1194605 21.3872832 2.82594412 22.9447977 3.88567437 24.2292871 5.29865125 25.5137765 6.6795106 26.5093449 8.42967245 27.2157996 10.5491329 27.9222543 12.6364836 28.2755299 15.0770713 28.2755299 17.8709056 28.2755299 20.6647399 27.9222543 23.1213873 27.2157996 25.2408478 26.5093449 27.3282274 25.5137765 29.0783237 24.2292871 30.4913295 22.9447977 31.872158 21.3872832 32.915896 19.5568401 33.6223507 17.7263969 34.3288054 15.7032755 34.6820809 13.4874759 34.6820809L.818882466 34.6820809.818882466 1.05973025ZM13.4874759 28.1791908C15.6711946 28.1791908 17.38921 27.5690751 18.6416185 26.3487476 19.894027 25.12842 20.5202312 23.1695568 20.5202312 20.4720617L20.5202312 15.2697495C20.5202312 12.5722543 19.894027 10.6133622 18.6416185 9.39306358 17.38921 8.17276493 15.6711946 7.56261946 13.4874759 7.56261946L8.14065511 7.56261946 8.14065511 28.1791908 13.4874759 28.1791908ZM34.4058767 34.6820809 34.4058767 1.05973025 57.2864162 1.05973025 57.2864162 7.56261946 41.7276493 7.56261946 41.7276493 14.4508671 55.0706166 14.4508671 55.0706166 20.9055877 41.7276493 20.9055877 41.7276493 28.1791908 57.2864162 28.1791908 57.2864162 34.6820809 34.4058767 34.6820809ZM63.6651252 34.6820809 63.6651252 1.05973025 85.9672447 1.05973025 85.9672447 7.56261946 70.9868979 7.56261946 70.9868979 14.4508671 83.7518304 14.4508671 83.7518304 20.9055877 70.9868979 20.9055877 70.9868979 34.6820809 63.6651252 34.6820809ZM90.5414258 34.6820809 90.5414258 28.8535645 94.8766859 28.8535645 94.8766859 6.88824566 90.5414258 6.88824566 90.5414258 1.05973025 106.533719 1.05973025 106.533719 6.88824566 102.198459 6.88824566 102.198459 28.8535645 106.533719 28.8535645 106.533719 34.6820809 90.5414258 34.6820809ZM126.217726 35.2601156C123.938343 35.2601156 121.882466 34.9068401 120.052023 34.2003854 118.22158 33.4617534 116.66474 32.3860308 115.379576 30.973025 114.095376 29.5279383 113.100193 27.7456647 112.393064 25.6262042 111.686898 23.4746628 111.333333 20.9698459 111.333333 18.1117534 111.333333 15.2858092 111.686898 12.7809923 112.393064 10.5973025 113.100193 8.38150289 114.095376 6.53500289 115.379576 5.05780347 116.66474 3.54848748 118.22158 2.40847784 120.052023 1.63776493 121.882466.867052023 123.938343.481695568 126.217726.481695568 129.333333.481695568 131.901734 1.12395954 133.924855 2.40847784 135.947977 3.66088632 137.570328 5.65189788 138.789981 8.38150289L132.479769 11.6570328C132.030829 10.2440559 131.323699 9.12010597 130.360308 8.28516378 129.429672 7.41810983 128.04817 6.98458382 126.217726 6.98458382 124.066474 6.98458382 122.33237 7.69107033 121.015414 9.10404624 119.731214 10.4849037 119.088632 12.508025 119.088632 15.1734104L119.088632 20.5684008C119.088632 23.233815 119.731214 25.2729287 121.015414 26.6859345 122.33237 28.066763 124.066474 28.7572254 126.217726 28.7572254 128.016378 28.7572254 129.445087 28.2755299 130.504817 27.3121387 131.597303 26.3166667 132.399807 25.12842 132.913295 23.7475915L138.88632 27.2157996C137.633911 29.7848748 135.980732 31.7758189 133.924855 33.1888247 131.901734 34.5696532 129.333333 35.2601156 126.217726 35.2601156ZM164.145472 20.9055877 151.33237 20.9055877 151.33237 34.6820809 144.010597 34.6820809 144.010597 1.05973025 151.33237 1.05973025 151.33237 14.4508671 164.145472 14.4508671 164.145472 1.05973025 171.467245 1.05973025 171.467245 34.6820809 164.145472 34.6820809 164.145472 20.9055877ZM199.579961 34.6820809 197.171484 26.6859345 185.947977 26.6859345 183.539499 34.6820809 176.121387 34.6820809 187.200385 1.05973025 196.256262 1.05973025 207.190751 34.6820809 199.579961 34.6820809ZM191.631985 7.70712909 191.391137 7.70712909 187.682081 20.4720617 195.38921 20.4720617 191.631985 7.70712909ZM210.542389 34.6820809 210.542389 28.8535645 214.877649 28.8535645 214.877649 6.88824566 210.542389 6.88824566 210.542389 1.05973025 226.534682 1.05973025 226.534682 6.88824566 222.199422 6.88824566 222.199422 28.8535645 226.534682 28.8535645 226.534682 34.6820809 210.542389 34.6820809ZM242.89499 18.7861272 239.66763 12.0423892 239.523121 12.0423892 239.523121 34.6820809 232.634875 34.6820809 232.634875 1.05973025 240.631021 1.05973025 249.831407 16.955684 253.058767 23.699422 253.203276 23.699422 253.203276 1.05973025 260.091522 1.05973025 260.091522 34.6820809 252.095376 34.6820809 242.89499 18.7861272ZM324.518304 1.05973025 337.186898 1.05973025C339.402697 1.05973025 341.425819 1.41297688 343.256262 2.1194605 345.086705 2.82594412 346.644509 3.88567437 347.928709 5.29865125 349.212909 6.6795106 350.209056 8.42967245 350.915222 10.5491329 351.621387 12.6364836 351.974952 15.0770713 351.974952 17.8709056 351.974952 20.6647399 351.621387 23.1213873 350.915222 25.2408478 350.209056 27.3282274 349.212909 29.0783237 347.928709 30.4913295 346.644509 31.872158 345.086705 32.915896 343.256262 33.6223507 341.425819 34.3288054 339.402697 34.6820809 337.186898 34.6820809L324.518304 34.6820809 324.518304 1.05973025ZM337.186898 28.1791908C339.370906 28.1791908 341.088632 27.5690751 342.34104 26.3487476 343.593449 25.12842 344.219653 23.1695568 344.219653 20.4720617L344.219653 15.2697495C344.219653 12.5722543 343.593449 10.6133622 342.34104 9.39306358 341.088632 8.17276493 339.370906 7.56261946 337.186898 7.56261946L331.840077 7.56261946 331.840077 28.1791908 337.186898 28.1791908ZM358.10501 34.6820809 358.10501 1.05973025 380.985549 1.05973025 380.985549 7.56261946 365.426782 7.56261946 365.426782 14.4508671 378.76975 14.4508671 378.76975 20.9055877 365.426782 20.9055877 365.426782 28.1791908 380.985549 28.1791908 380.985549 34.6820809 358.10501 34.6820809ZM387.364162 34.6820809 387.364162 1.05973025 409.666667 1.05973025 409.666667 7.56261946 394.685934 7.56261946 394.685934 14.4508671 407.450867 14.4508671 407.450867 20.9055877 394.685934 20.9055877 394.685934 34.6820809 387.364162 34.6820809ZM414.240848 34.6820809 414.240848 28.8535645 418.576108 28.8535645 418.576108 6.88824566 414.240848 6.88824566 414.240848 1.05973025 430.233141 1.05973025 430.233141 6.88824566 425.897881 6.88824566 425.897881 28.8535645 430.233141 28.8535645 430.233141 34.6820809 414.240848 34.6820809ZM449.917148 35.2601156C447.637765 35.2601156 445.581888 34.9068401 443.751445 34.2003854 441.921002 33.4617534 440.364162 32.3860308 439.078998 30.973025 437.794798 29.5279383 436.799615 27.7456647 436.092486 25.6262042 435.38632 23.4746628 435.032755 20.9698459 435.032755 18.1117534 435.032755 15.2858092 435.38632 12.7809923 436.092486 10.5973025 436.799615 8.38150289 437.794798 6.53500289 439.078998 5.05780347 440.364162 3.54848748 441.921002 2.40847784 443.751445 1.63776493 445.581888.867052023 447.637765.481695568 449.917148.481695568 453.032755.481695568 455.601156 1.12395954 457.624277 2.40847784 459.647399 3.66088632 461.26975 5.65189788 462.489403 8.38150289L456.179191 11.6570328C455.73025 10.2440559 455.023121 9.12010597 454.05973 8.28516378 453.129094 7.41810983 451.747592 6.98458382 449.917148 6.98458382 447.765896 6.98458382 446.031792 7.69107033 444.714836 9.10404624 443.430636 10.4849037 442.788054 12.508025 442.788054 15.1734104L442.788054 20.5684008C442.788054 23.233815 443.430636 25.2729287 444.714836 26.6859345 446.031792 28.066763 447.765896 28.7572254 449.917148 28.7572254 451.7158 28.7572254 453.144509 28.2755299 454.204239 27.3121387 455.296724 26.3166667 456.099229 25.12842 456.612717 23.7475915L462.585742 27.2157996C461.333333 29.7848748 459.680154 31.7758189 457.624277 33.1888247 455.601156 34.5696532 453.032755 35.2601156 449.917148 35.2601156ZM487.844894 20.9055877 475.031792 20.9055877 475.031792 34.6820809 467.710019 34.6820809 467.710019 1.05973025 475.031792 1.05973025 475.031792 14.4508671 487.844894 14.4508671 487.844894 1.05973025 495.166667 1.05973025 495.166667 34.6820809 487.844894 34.6820809 487.844894 20.9055877ZM523.279383 34.6820809 520.870906 26.6859345 509.647399 26.6859345 507.238921 34.6820809 499.820809 34.6820809 510.899807 1.05973025 519.955684 1.05973025 530.890173 34.6820809 523.279383 34.6820809ZM515.331407 7.70712909 515.090559 7.70712909 511.381503 20.4720617 519.088632 20.4720617 515.331407 7.70712909ZM534.241811 34.6820809 534.241811 28.8535645 538.577071 28.8535645 538.577071 6.88824566 534.241811 6.88824566 534.241811 1.05973025 550.234104 1.05973025 550.234104 6.88824566 545.898844 6.88824566 545.898844 28.8535645 550.234104 28.8535645 550.234104 34.6820809 534.241811 34.6820809ZM566.594412 18.7861272 563.367052 12.0423892 563.222543 12.0423892 563.222543 34.6820809 556.334297 34.6820809 556.334297 1.05973025 564.330443 1.05973025 573.530829 16.955684 576.758189 23.699422 576.902697 23.699422 576.902697 1.05973025 583.790944 1.05973025 583.790944 34.6820809 575.794798 34.6820809 566.594412 18.7861272ZM.818882466 108.959538 13.4874759 108.959538C15.7032755 108.959538 17.7263969 109.313102 19.5568401 110.019268 21.3872832 110.725434 22.9447977 111.785164 24.2292871 113.198459 25.5137765 114.578998 26.5093449 116.32948 27.2157996 118.44894 27.9222543 120.536609 28.2755299 122.976879 28.2755299 125.770713 28.2755299 128.564547 27.9222543 131.021195 27.2157996 133.140655 26.5093449 135.228324 25.5137765 136.977842 24.2292871 138.391137 22.9447977 139.771676 21.3872832 140.815992 19.5568401 141.522158 17.7263969 142.228324 15.7032755 142.581888 13.4874759 142.581888L.818882466 142.581888.818882466 108.959538ZM13.4874759 136.078998C15.6711946 136.078998 17.38921 135.469171 18.6416185 134.248555 19.894027 133.027938 20.5202312 131.069364 20.5202312 128.371869L20.5202312 123.169557C20.5202312 120.472062 19.894027 118.513487 18.6416185 117.292871 17.38921 116.072254 15.6711946 115.462428 13.4874759 115.462428L8.14065511 115.462428 8.14065511 136.078998 13.4874759 136.078998ZM34.4058767 142.581888 34.4058767 108.959538 57.2864162 108.959538 57.2864162 115.462428 41.7276493 115.462428 41.7276493 122.350674 55.0706166 122.350674 55.0706166 128.805395 41.7276493 128.805395 41.7276493 136.078998 57.2864162 136.078998 57.2864162 142.581888 34.4058767 142.581888ZM63.6651252 142.581888 63.6651252 108.959538 85.9672447 108.959538 85.9672447 115.462428 70.9868979 115.462428 70.9868979 122.350674 83.7518304 122.350674 83.7518304 128.805395 70.9868979 128.805395 70.9868979 142.581888 63.6651252 142.581888ZM90.5414258 142.581888 90.5414258 136.753372 94.8766859 136.753372 94.8766859 114.788054 90.5414258 114.788054 90.5414258 108.959538 106.533719 108.959538 106.533719 114.788054 102.198459 114.788054 102.198459 136.753372 106.533719 136.753372 106.533719 142.581888 90.5414258 142.581888ZM126.217726 143.159923C123.938343 143.159923 121.882466 142.806358 120.052023 142.100193 118.22158 141.361272 116.66474 140.286127 115.379576 138.872832 114.095376 137.427746 113.100193 135.645472 112.393064 133.526012 111.686898 131.374759 111.333333 128.869942 111.333333 126.011561 111.333333 123.185934 111.686898 120.681118 112.393064 118.49711 113.100193 116.28131 114.095376 114.434489 115.379576 112.957611 116.66474 111.447977 118.22158 110.308285 120.052023 109.537572 121.882466 108.766859 123.938343 108.381503 126.217726 108.381503 129.333333 108.381503 131.901734 109.024085 133.924855 110.308285 135.947977 111.560694 137.570328 113.552023 138.789981 116.28131L132.479769 119.55684C132.030829 118.143545 131.323699 117.020231 130.360308 116.184971 129.429672 115.317919 128.04817 114.884393 126.217726 114.884393 124.066474 114.884393 122.33237 115.590559 121.015414 117.003854 119.731214 118.384393 119.088632 120.407514 119.088632 123.073218L119.088632 128.468208C119.088632 131.133911 119.731214 133.172447 121.015414 134.585742 122.33237 135.966281 124.066474 136.657033 126.217726 136.657033 128.016378 136.657033 129.445087 136.175337 130.504817 135.211946 131.597303 134.216763 132.399807 133.027938 132.913295 131.647399L138.88632 135.115607C137.633911 137.684971 135.980732 139.675337 133.924855 141.088632 131.901734 142.469171 129.333333 143.159923 126.217726 143.159923ZM164.145472 128.805395 151.33237 128.805395 151.33237 142.581888 144.010597 142.581888 144.010597 108.959538 151.33237 108.959538 151.33237 122.350674 164.145472 122.350674 164.145472 108.959538 171.467245 108.959538 171.467245 142.581888 164.145472 142.581888 164.145472 128.805395ZM199.579961 142.581888 197.171484 134.585742 185.947977 134.585742 183.539499 142.581888 176.121387 142.581888 187.200385 108.959538 196.256262 108.959538 207.190751 142.581888 199.579961 142.581888ZM191.631985 115.606936 191.391137 115.606936 187.682081 128.371869 195.38921 128.371869 191.631985 115.606936ZM210.542389 142.581888 210.542389 136.753372 214.877649 136.753372 214.877649 114.788054 210.542389 114.788054 210.542389 108.959538 226.534682 108.959538 226.534682 114.788054 222.199422 114.788054 222.199422 136.753372 226.534682 136.753372 226.534682 142.581888 210.542389 142.581888ZM242.89499 126.685934 239.66763 119.942197 239.523121 119.942197 239.523121 142.581888 232.634875 142.581888 232.634875 108.959538 240.631021 108.959538 249.831407 124.855491 253.058767 131.599229 253.203276 131.599229 253.203276 108.959538 260.091522 108.959538 260.091522 142.581888 252.095376 142.581888 242.89499 126.685934ZM324.518304 108.959538 337.186898 108.959538C339.402697 108.959538 341.425819 109.313102 343.256262 110.019268 345.086705 110.725434 346.644509 111.785164 347.928709 113.198459 349.212909 114.578998 350.209056 116.32948 350.915222 118.44894 351.621387 120.536609 351.974952 122.976879 351.974952 125.770713 351.974952 128.564547 351.621387 131.021195 350.915222 133.140655 350.209056 135.228324 349.212909 136.977842 347.928709 138.391137 346.644509 139.771676 345.086705 140.815992 343.256262 141.522158 341.425819 142.228324 339.402697 142.581888 337.186898 142.581888L324.518304 142.581888 324.518304 108.959538ZM337.186898 136.078998C339.370906 136.078998 341.088632 135.469171 342.34104 134.248555 343.593449 133.027938 344.219653 131.069364 344.219653 128.371869L344.219653 123.169557C344.219653 120.472062 343.593449 118.513487 342.34104 117.292871 341.088632 116.072254 339.370906 115.462428 337.186898 115.462428L331.840077 115.462428 331.840077 136.078998 337.186898 136.078998ZM358.10501 142.581888 358.10501 108.959538 380.985549 108.959538 380.985549 115.462428 365.426782 115.462428 365.426782 122.350674 378.76975 122.350674 378.76975 128.805395 365.426782 128.805395 365.426782 136.078998 380.985549 136.078998 380.985549 142.581888 358.10501 142.581888ZM387.364162 142.581888 387.364162 108.959538 409.666667 108.959538 409.666667 115.462428 394.685934 115.462428 394.685934 122.350674 407.450867 122.350674 407.450867 128.805395 394.685934 128.805395 394.685934 142.581888 387.364162 142.581888ZM414.240848 142.581888 414.240848 136.753372 418.576108 136.753372 418.576108 114.788054 414.240848 114.788054 414.240848 108.959538 430.233141 108.959538 430.233141 114.788054 425.897881 114.788054 425.897881 136.753372 430.233141 136.753372 430.233141 142.581888 414.240848 142.581888ZM449.917148 143.159923C447.637765 143.159923 445.581888 142.806358 443.751445 142.100193 441.921002 141.361272 440.364162 140.286127 439.078998 138.872832 437.794798 137.427746 436.799615 135.645472 436.092486 133.526012 435.38632 131.374759 435.032755 128.869942 435.032755 126.011561 435.032755 123.185934 435.38632 120.681118 436.092486 118.49711 436.799615 116.28131 437.794798 114.434489 439.078998 112.957611 440.364162 111.447977 441.921002 110.308285 443.751445 109.537572 445.581888 108.766859 447.637765 108.381503 449.917148 108.381503 453.032755 108.381503 455.601156 109.024085 457.624277 110.308285 459.647399 111.560694 461.26975 113.552023 462.489403 116.28131L456.179191 119.55684C455.73025 118.143545 455.023121 117.020231 454.05973 116.184971 453.129094 115.317919 451.747592 114.884393 449.917148 114.884393 447.765896 114.884393 446.031792 115.590559 444.714836 117.003854 443.430636 118.384393 442.788054 120.407514 442.788054 123.073218L442.788054 128.468208C442.788054 131.133911 443.430636 133.172447 444.714836 134.585742 446.031792 135.966281 447.765896 136.657033 449.917148 136.657033 451.7158 136.657033 453.144509 136.175337 454.204239 135.211946 455.296724 134.216763 456.099229 133.027938 456.612717 131.647399L462.585742 135.115607C461.333333 137.684971 459.680154 139.675337 457.624277 141.088632 455.601156 142.469171 453.032755 143.159923 449.917148 143.159923ZM487.844894 128.805395 475.031792 128.805395 475.031792 142.581888 467.710019 142.581888 467.710019 108.959538 475.031792 108.959538 475.031792 122.350674 487.844894 122.350674 487.844894 108.959538 495.166667 108.959538 495.166667 142.581888 487.844894 142.581888 487.844894 128.805395ZM523.279383 142.581888 520.870906 134.585742 509.647399 134.585742 507.238921 142.581888 499.820809 142.581888 510.899807 108.959538 519.955684 108.959538 530.890173 142.581888 523.279383 142.581888ZM515.331407 115.606936 515.090559 115.606936 511.381503 128.371869 519.088632 128.371869 515.331407 115.606936ZM534.241811 142.581888 534.241811 136.753372 538.577071 136.753372 538.577071 114.788054 534.241811 114.788054 534.241811 108.959538 550.234104 108.959538 550.234104 114.788054 545.898844 114.788054 545.898844 136.753372 550.234104 136.753372 550.234104 142.581888 534.241811 142.581888ZM566.594412 126.685934 563.367052 119.942197 563.222543 119.942197 563.222543 142.581888 556.334297 142.581888 556.334297 108.959538 564.330443 108.959538 573.530829 124.855491 576.758189 131.599229 576.902697 131.599229 576.902697 108.959538 583.790944 108.959538 583.790944 142.581888 575.794798 142.581888 566.594412 126.685934ZM.818882466 216.859345 13.4874759 216.859345C15.7032755 216.859345 17.7263969 217.212909 19.5568401 217.919075 21.3872832 218.625241 22.9447977 219.684971 24.2292871 221.098266 25.5137765 222.478805 26.5093449 224.229287 27.2157996 226.348748 27.9222543 228.436416 28.2755299 230.876686 28.2755299 233.67052 28.2755299 236.464355 27.9222543 238.921002 27.2157996 241.040462 26.5093449 243.128131 25.5137765 244.877649 24.2292871 246.290944 22.9447977 247.671484 21.3872832 248.7158 19.5568401 249.421965 17.7263969 250.128131 15.7032755 250.481696 13.4874759 250.481696L.818882466 250.481696.818882466 216.859345ZM13.4874759 243.978805C15.6711946 243.978805 17.38921 243.368979 18.6416185 242.148362 19.894027 240.927746 20.5202312 238.969171 20.5202312 236.271676L20.5202312 231.069364C20.5202312 228.371869 19.894027 226.413295 18.6416185 225.192678 17.38921 223.972062 15.6711946 223.362235 13.4874759 223.362235L8.14065511 223.362235 8.14065511 243.978805 13.4874759 243.978805ZM34.4058767 250.481696 34.4058767 216.859345 57.2864162 216.859345 57.2864162 223.362235 41.7276493 223.362235 41.7276493 230.250482 55.0706166 230.250482 55.0706166 236.705202 41.7276493 236.705202 41.7276493 243.978805 57.2864162 243.978805 57.2864162 250.481696 34.4058767 250.481696ZM63.6651252 250.481696 63.6651252 216.859345 85.9672447 216.859345 85.9672447 223.362235 70.9868979 223.362235 70.9868979 230.250482 83.7518304 230.250482 83.7518304 236.705202 70.9868979 236.705202 70.9868979 250.481696 63.6651252 250.481696ZM90.5414258 250.481696 90.5414258 244.653179 94.8766859 244.653179 94.8766859 222.687861 90.5414258 222.687861 90.5414258 216.859345 106.533719 216.859345 106.533719 222.687861 102.198459 222.687861 102.198459 244.653179 106.533719 244.653179 106.533719 250.481696 90.5414258 250.481696ZM126.217726 251.05973C123.938343 251.05973 121.882466 250.706166 120.052023 250 118.22158 249.261079 116.66474 248.185934 115.379576 246.77264 114.095376 245.327553 113.100193 243.545279 112.393064 241.425819 111.686898 239.274566 111.333333 236.76975 111.333333 233.911368 111.333333 231.085742 111.686898 228.580925 112.393064 226.396917 113.100193 224.181118 114.095376 222.334297 115.379576 220.857418 116.66474 219.347784 118.22158 218.208092 120.052023 217.43738 121.882466 216.666667 123.938343 216.28131 126.217726 216.28131 129.333333 216.28131 131.901734 216.923892 133.924855 218.208092 135.947977 219.460501 137.570328 221.45183 138.789981 224.181118L132.479769 227.456647C132.030829 226.043353 131.323699 224.920039 130.360308 224.084778 129.429672 223.217726 128.04817 222.7842 126.217726 222.7842 124.066474 222.7842 122.33237 223.490366 121.015414 224.903661 119.731214 226.2842 119.088632 228.307322 119.088632 230.973025L119.088632 236.368015C119.088632 239.033719 119.731214 241.072254 121.015414 242.485549 122.33237 243.866089 124.066474 244.55684 126.217726 244.55684 128.016378 244.55684 129.445087 244.075145 130.504817 243.111753 131.597303 242.11657 132.399807 240.927746 132.913295 239.547206L138.88632 243.015414C137.633911 245.584778 135.980732 247.575145 133.924855 248.988439 131.901734 250.368979 129.333333 251.05973 126.217726 251.05973ZM164.145472 236.705202 151.33237 236.705202 151.33237 250.481696 144.010597 250.481696 144.010597 216.859345 151.33237 216.859345 151.33237 230.250482 164.145472 230.250482 164.145472 216.859345 171.467245 216.859345 171.467245 250.481696 164.145472 250.481696 164.145472 236.705202ZM199.579961 250.481696 197.171484 242.485549 185.947977 242.485549 183.539499 250.481696 176.121387 250.481696 187.200385 216.859345 196.256262 216.859345 207.190751 250.481696 199.579961 250.481696ZM191.631985 223.506744 191.391137 223.506744 187.682081 236.271676 195.38921 236.271676 191.631985 223.506744ZM210.542389 250.481696 210.542389 244.653179 214.877649 244.653179 214.877649 222.687861 210.542389 222.687861 210.542389 216.859345 226.534682 216.859345 226.534682 222.687861 222.199422 222.687861 222.199422 244.653179 226.534682 244.653179 226.534682 250.481696 210.542389 250.481696ZM242.89499 234.585742 239.66763 227.842004 239.523121 227.842004 239.523121 250.481696 232.634875 250.481696 232.634875 216.859345 240.631021 216.859345 249.831407 232.755299 253.058767 239.499037 253.203276 239.499037 253.203276 216.859345 260.091522 216.859345 260.091522 250.481696 252.095376 250.481696 242.89499 234.585742ZM324.518304 216.859345 337.186898 216.859345C339.402697 216.859345 341.425819 217.212909 343.256262 217.919075 345.086705 218.625241 346.644509 219.684971 347.928709 221.098266 349.212909 222.478805 350.209056 224.229287 350.915222 226.348748 351.621387 228.436416 351.974952 230.876686 351.974952 233.67052 351.974952 236.464355 351.621387 238.921002 350.915222 241.040462 350.209056 243.128131 349.212909 244.877649 347.928709 246.290944 346.644509 247.671484 345.086705 248.7158 343.256262 249.421965 341.425819 250.128131 339.402697 250.481696 337.186898 250.481696L324.518304 250.481696 324.518304 216.859345ZM337.186898 243.978805C339.370906 243.978805 341.088632 243.368979 342.34104 242.148362 343.593449 240.927746 344.219653 238.969171 344.219653 236.271676L344.219653 231.069364C344.219653 228.371869 343.593449 226.413295 342.34104 225.192678 341.088632 223.972062 339.370906 223.362235 337.186898 223.362235L331.840077 223.362235 331.840077 243.978805 337.186898 243.978805ZM358.10501 250.481696 358.10501 216.859345 380.985549 216.859345 380.985549 223.362235 365.426782 223.362235 365.426782 230.250482 378.76975 230.250482 378.76975 236.705202 365.426782 236.705202 365.426782 243.978805 380.985549 243.978805 380.985549 250.481696 358.10501 250.481696ZM387.364162 250.481696 387.364162 216.859345 409.666667 216.859345 409.666667 223.362235 394.685934 223.362235 394.685934 230.250482 407.450867 230.250482 407.450867 236.705202 394.685934 236.705202 394.685934 250.481696 387.364162 250.481696ZM414.240848 250.481696 414.240848 244.653179 418.576108 244.653179 418.576108 222.687861 414.240848 222.687861 414.240848 216.859345 430.233141 216.859345 430.233141 222.687861 425.897881 222.687861 425.897881 244.653179 430.233141 244.653179 430.233141 250.481696 414.240848 250.481696ZM449.917148 251.05973C447.637765 251.05973 445.581888 250.706166 443.751445 250 441.921002 249.261079 440.364162 248.185934 439.078998 246.77264 437.794798 245.327553 436.799615 243.545279 436.092486 241.425819 435.38632 239.274566 435.032755 236.76975 435.032755 233.911368 435.032755 231.085742 435.38632 228.580925 436.092486 226.396917 436.799615 224.181118 437.794798 222.334297 439.078998 220.857418 440.364162 219.347784 441.921002 218.208092 443.751445 217.43738 445.581888 216.666667 447.637765 216.28131 449.917148 216.28131 453.032755 216.28131 455.601156 216.923892 457.624277 218.208092 459.647399 219.460501 461.26975 221.45183 462.489403 224.181118L456.179191 227.456647C455.73025 226.043353 455.023121 224.920039 454.05973 224.084778 453.129094 223.217726 451.747592 222.7842 449.917148 222.7842 447.765896 222.7842 446.031792 223.490366 444.714836 224.903661 443.430636 226.2842 442.788054 228.307322 442.788054 230.973025L442.788054 236.368015C442.788054 239.033719 443.430636 241.072254 444.714836 242.485549 446.031792 243.866089 447.765896 244.55684 449.917148 244.55684 451.7158 244.55684 453.144509 244.075145 454.204239 243.111753 455.296724 242.11657 456.099229 240.927746 456.612717 239.547206L462.585742 243.015414C461.333333 245.584778 459.680154 247.575145 457.624277 248.988439 455.601156 250.368979 453.032755 251.05973 449.917148 251.05973ZM487.844894 236.705202 475.031792 236.705202 475.031792 250.481696 467.710019 250.481696 467.710019 216.859345 475.031792 216.859345 475.031792 230.250482 487.844894 230.250482 487.844894 216.859345 495.166667 216.859345 495.166667 250.481696 487.844894 250.481696 487.844894 236.705202ZM523.279383 250.481696 520.870906 242.485549 509.647399 242.485549 507.238921 250.481696 499.820809 250.481696 510.899807 216.859345 519.955684 216.859345 530.890173 250.481696 523.279383 250.481696ZM515.331407 223.506744 515.090559 223.506744 511.381503 236.271676 519.088632 236.271676 515.331407 223.506744ZM534.241811 250.481696 534.241811 244.653179 538.577071 244.653179 538.577071 222.687861 534.241811 222.687861 534.241811 216.859345 550.234104 216.859345 550.234104 222.687861 545.898844 222.687861 545.898844 244.653179 550.234104 244.653179 550.234104 250.481696 534.241811 250.481696ZM566.594412 234.585742 563.367052 227.842004 563.222543 227.842004 563.222543 250.481696 556.334297 250.481696 556.334297 216.859345 564.330443 216.859345 573.530829 232.755299 576.758189 239.499037 576.902697 239.499037 576.902697 216.859345 583.790944 216.859345 583.790944 250.481696 575.794798 250.481696 566.594412 234.585742ZM.818882466 324.759152 13.4874759 324.759152C15.7032755 324.759152 17.7263969 325.112717 19.5568401 325.818882 21.3872832 326.525048 22.9447977 327.584778 24.2292871 328.998073 25.5137765 330.378613 26.5093449 332.129094 27.2157996 334.248555 27.9222543 336.336224 28.2755299 338.776493 28.2755299 341.570328 28.2755299 344.364162 27.9222543 346.820809 27.2157996 348.94027 26.5093449 351.027938 25.5137765 352.777457 24.2292871 354.190751 22.9447977 355.571291 21.3872832 356.615607 19.5568401 357.321773 17.7263969 358.027938 15.7032755 358.381503 13.4874759 358.381503L.818882466 358.381503.818882466 324.759152ZM13.4874759 351.878613C15.6711946 351.878613 17.38921 351.268786 18.6416185 350.04817 19.894027 348.827553 20.5202312 346.868979 20.5202312 344.171484L20.5202312 338.969171C20.5202312 336.271676 19.894027 334.313102 18.6416185 333.092486 17.38921 331.871869 15.6711946 331.262042 13.4874759 331.262042L8.14065511 331.262042 8.14065511 351.878613 13.4874759 351.878613ZM34.4058767 358.381503 34.4058767 324.759152 57.2864162 324.759152 57.2864162 331.262042 41.7276493 331.262042 41.7276493 338.150289 55.0706166 338.150289 55.0706166 344.60501 41.7276493 344.60501 41.7276493 351.878613 57.2864162 351.878613 57.2864162 358.381503 34.4058767 358.381503ZM63.6651252 358.381503 63.6651252 324.759152 85.9672447 324.759152 85.9672447 331.262042 70.9868979 331.262042 70.9868979 338.150289 83.7518304 338.150289 83.7518304 344.60501 70.9868979 344.60501 70.9868979 358.381503 63.6651252 358.381503ZM90.5414258 358.381503 90.5414258 352.552987 94.8766859 352.552987 94.8766859 330.587669 90.5414258 330.587669 90.5414258 324.759152 106.533719 324.759152 106.533719 330.587669 102.198459 330.587669 102.198459 352.552987 106.533719 352.552987 106.533719 358.381503 90.5414258 358.381503ZM126.217726 358.959538C123.938343 358.959538 121.882466 358.605973 120.052023 357.899807 118.22158 357.160886 116.66474 356.085742 115.379576 354.672447 114.095376 353.22736 113.100193 351.445087 112.393064 349.325626 111.686898 347.174374 111.333333 344.669557 111.333333 341.811175 111.333333 338.985549 111.686898 336.480732 112.393064 334.296724 113.100193 332.080925 114.095376 330.234104 115.379576 328.757225 116.66474 327.247592 118.22158 326.1079 120.052023 325.337187 121.882466 324.566474 123.938343 324.181118 126.217726 324.181118 129.333333 324.181118 131.901734 324.823699 133.924855 326.1079 135.947977 327.360308 137.570328 329.351638 138.789981 332.080925L132.479769 335.356455C132.030829 333.94316 131.323699 332.819846 130.360308 331.984586 129.429672 331.117534 128.04817 330.684008 126.217726 330.684008 124.066474 330.684008 122.33237 331.390173 121.015414 332.803468 119.731214 334.184008 119.088632 336.207129 119.088632 338.872832L119.088632 344.267823C119.088632 346.933526 119.731214 348.972062 121.015414 350.385356 122.33237 351.765896 124.066474 352.456647 126.217726 352.456647 128.016378 352.456647 129.445087 351.974952 130.504817 351.011561 131.597303 350.016378 132.399807 348.827553 132.913295 347.447013L138.88632 350.915222C137.633911 353.484586 135.980732 355.474952 133.924855 356.888247 131.901734 358.268786 129.333333 358.959538 126.217726 358.959538ZM164.145472 344.60501 151.33237 344.60501 151.33237 358.381503 144.010597 358.381503 144.010597 324.759152 151.33237 324.759152 151.33237 338.150289 164.145472 338.150289 164.145472 324.759152 171.467245 324.759152 171.467245 358.381503 164.145472 358.381503 164.145472 344.60501ZM199.579961 358.381503 197.171484 350.385356 185.947977 350.385356 183.539499 358.381503 176.121387 358.381503 187.200385 324.759152 196.256262 324.759152 207.190751 358.381503 199.579961 358.381503ZM191.631985 331.406551 191.391137 331.406551 187.682081 344.171484 195.38921 344.171484 191.631985 331.406551ZM210.542389 358.381503 210.542389 352.552987 214.877649 352.552987 214.877649 330.587669 210.542389 330.587669 210.542389 324.759152 226.534682 324.759152 226.534682 330.587669 222.199422 330.587669 222.199422 352.552987 226.534682 352.552987 226.534682 358.381503 210.542389 358.381503ZM242.89499 342.485549 239.66763 335.741811 239.523121 335.741811 239.523121 358.381503 232.634875 358.381503 232.634875 324.759152 240.631021 324.759152 249.831407 340.655106 253.058767 347.398844 253.203276 347.398844 253.203276 324.759152 260.091522 324.759152 260.091522 358.381503 252.095376 358.381503 242.89499 342.485549ZM324.518304 324.759152 337.186898 324.759152C339.402697 324.759152 341.425819 325.112717 343.256262 325.818882 345.086705 326.525048 346.644509 327.584778 347.928709 328.998073 349.212909 330.378613 350.209056 332.129094 350.915222 334.248555 351.621387 336.336224 351.974952 338.776493 351.974952 341.570328 351.974952 344.364162 351.621387 346.820809 350.915222 348.94027 350.209056 351.027938 349.212909 352.777457 347.928709 354.190751 346.644509 355.571291 345.086705 356.615607 343.256262 357.321773 341.425819 358.027938 339.402697 358.381503 337.186898 358.381503L324.518304 358.381503 324.518304 324.759152ZM337.186898 351.878613C339.370906 351.878613 341.088632 351.268786 342.34104 350.04817 343.593449 348.827553 344.219653 346.868979 344.219653 344.171484L344.219653 338.969171C344.219653 336.271676 343.593449 334.313102 342.34104 333.092486 341.088632 331.871869 339.370906 331.262042 337.186898 331.262042L331.840077 331.262042 331.840077 351.878613 337.186898 351.878613ZM358.10501 358.381503 358.10501 324.759152 380.985549 324.759152 380.985549 331.262042 365.426782 331.262042 365.426782 338.150289 378.76975 338.150289 378.76975 344.60501 365.426782 344.60501 365.426782 351.878613 380.985549 351.878613 380.985549 358.381503 358.10501 358.381503ZM387.364162 358.381503 387.364162 324.759152 409.666667 324.759152 409.666667 331.262042 394.685934 331.262042 394.685934 338.150289 407.450867 338.150289 407.450867 344.60501 394.685934 344.60501 394.685934 358.381503 387.364162 358.381503ZM414.240848 358.381503 414.240848 352.552987 418.576108 352.552987 418.576108 330.587669 414.240848 330.587669 414.240848 324.759152 430.233141 324.759152 430.233141 330.587669 425.897881 330.587669 425.897881 352.552987 430.233141 352.552987 430.233141 358.381503 414.240848 358.381503ZM449.917148 358.959538C447.637765 358.959538 445.581888 358.605973 443.751445 357.899807 441.921002 357.160886 440.364162 356.085742 439.078998 354.672447 437.794798 353.22736 436.799615 351.445087 436.092486 349.325626 435.38632 347.174374 435.032755 344.669557 435.032755 341.811175 435.032755 338.985549 435.38632 336.480732 436.092486 334.296724 436.799615 332.080925 437.794798 330.234104 439.078998 328.757225 440.364162 327.247592 441.921002 326.1079 443.751445 325.337187 445.581888 324.566474 447.637765 324.181118 449.917148 324.181118 453.032755 324.181118 455.601156 324.823699 457.624277 326.1079 459.647399 327.360308 461.26975 329.351638 462.489403 332.080925L456.179191 335.356455C455.73025 333.94316 455.023121 332.819846 454.05973 331.984586 453.129094 331.117534 451.747592 330.684008 449.917148 330.684008 447.765896 330.684008 446.031792 331.390173 444.714836 332.803468 443.430636 334.184008 442.788054 336.207129 442.788054 338.872832L442.788054 344.267823C442.788054 346.933526 443.430636 348.972062 444.714836 350.385356 446.031792 351.765896 447.765896 352.456647 449.917148 352.456647 451.7158 352.456647 453.144509 351.974952 454.204239 351.011561 455.296724 350.016378 456.099229 348.827553 456.612717 347.447013L462.585742 350.915222C461.333333 353.484586 459.680154 355.474952 457.624277 356.888247 455.601156 358.268786 453.032755 358.959538 449.917148 358.959538ZM487.844894 344.60501 475.031792 344.60501 475.031792 358.381503 467.710019 358.381503 467.710019 324.759152 475.031792 324.759152 475.031792 338.150289 487.844894 338.150289 487.844894 324.759152 495.166667 324.759152 495.166667 358.381503 487.844894 358.381503 487.844894 344.60501ZM523.279383 358.381503 520.870906 350.385356 509.647399 350.385356 507.238921 358.381503 499.820809 358.381503 510.899807 324.759152 519.955684 324.759152 530.890173 358.381503 523.279383 358.381503ZM515.331407 331.406551 515.090559 331.406551 511.381503 344.171484 519.088632 344.171484 515.331407 331.406551ZM534.241811 358.381503 534.241811 352.552987 538.577071 352.552987 538.577071 330.587669 534.241811 330.587669 534.241811 324.759152 550.234104 324.759152 550.234104 330.587669 545.898844 330.587669 545.898844 352.552987 550.234104 352.552987 550.234104 358.381503 534.241811 358.381503ZM566.594412 342.485549 563.367052 335.741811 563.222543 335.741811 563.222543 358.381503 556.334297 358.381503 556.334297 324.759152 564.330443 324.759152 573.530829 340.655106 576.758189 347.398844 576.902697 347.398844 576.902697 324.759152 583.790944 324.759152 583.790944 358.381503 575.794798 358.381503 566.594412 342.485549ZM.818882466 432.65896 13.4874759 432.65896C15.7032755 432.65896 17.7263969 433.012524 19.5568401 433.71869 21.3872832 434.424855 22.9447977 435.484586 24.2292871 436.897881 25.5137765 438.27842 26.5093449 440.028902 27.2157996 442.148362 27.9222543 444.236031 28.2755299 446.676301 28.2755299 449.470135 28.2755299 452.263969 27.9222543 454.720617 27.2157996 456.840077 26.5093449 458.927746 25.5137765 460.677264 24.2292871 462.090559 22.9447977 463.471098 21.3872832 464.515414 19.5568401 465.22158 17.7263969 465.927746 15.7032755 466.28131 13.4874759 466.28131L.818882466 466.28131.818882466 432.65896ZM13.4874759 459.77842C15.6711946 459.77842 17.38921 459.168593 18.6416185 457.947977 19.894027 456.72736 20.5202312 454.768786 20.5202312 452.071291L20.5202312 446.868979C20.5202312 444.171484 19.894027 442.212909 18.6416185 440.992293 17.38921 439.771676 15.6711946 439.16185 13.4874759 439.16185L8.14065511 439.16185 8.14065511 459.77842 13.4874759 459.77842ZM34.4058767 466.28131 34.4058767 432.65896 57.2864162 432.65896 57.2864162 439.16185 41.7276493 439.16185 41.7276493 446.050096 55.0706166 446.050096 55.0706166 452.504817 41.7276493 452.504817 41.7276493 459.77842 57.2864162 459.77842 57.2864162 466.28131 34.4058767 466.28131ZM63.6651252 466.28131 63.6651252 432.65896 85.9672447 432.65896 85.9672447 439.16185 70.9868979 439.16185 70.9868979 446.050096 83.7518304 446.050096 83.7518304 452.504817 70.9868979 452.504817 70.9868979 466.28131 63.6651252 466.28131ZM90.5414258 466.28131 90.5414258 460.452794 94.8766859 460.452794 94.8766859 438.487476 90.5414258 438.487476 90.5414258 432.65896 106.533719 432.65896 106.533719 438.487476 102.198459 438.487476 102.198459 460.452794 106.533719 460.452794 106.533719 466.28131 90.5414258 466.28131ZM126.217726 466.859345C123.938343 466.859345 121.882466 466.50578 120.052023 465.799615 118.22158 465.060694 116.66474 463.985549 115.379576 462.572254 114.095376 461.127168 113.100193 459.344894 112.393064 457.225434 111.686898 455.074181 111.333333 452.569364 111.333333 449.710983 111.333333 446.885356 111.686898 444.380539 112.393064 442.196532 113.100193 439.980732 114.095376 438.133911 115.379576 436.657033 116.66474 435.147399 118.22158 434.007707 120.052023 433.236994 121.882466 432.466281 123.938343 432.080925 126.217726 432.080925 129.333333 432.080925 131.901734 432.723507 133.924855 434.007707 135.947977 435.260116 137.570328 437.251445 138.789981 439.980732L132.479769 443.256262C132.030829 441.842967 131.323699 440.719653 130.360308 439.884393 129.429672 439.017341 128.04817 438.583815 126.217726 438.583815 124.066474 438.583815 122.33237 439.289981 121.015414 440.703276 119.731214 442.083815 119.088632 444.106936 119.088632 446.77264L119.088632 452.16763C119.088632 454.833333 119.731214 456.871869 121.015414 458.285164 122.33237 459.665703 124.066474 460.356455 126.217726 460.356455 128.016378 460.356455 129.445087 459.874759 130.504817 458.911368 131.597303 457.916185 132.399807 456.72736 132.913295 455.346821L138.88632 458.815029C137.633911 461.384393 135.980732 463.374759 133.924855 464.788054 131.901734 466.168593 129.333333 466.859345 126.217726 466.859345ZM164.145472 452.504817 151.33237 452.504817 151.33237 466.28131 144.010597 466.28131 144.010597 432.65896 151.33237 432.65896 151.33237 446.050096 164.145472 446.050096 164.145472 432.65896 171.467245 432.65896 171.467245 466.28131 164.145472 466.28131 164.145472 452.504817ZM199.579961 466.28131 197.171484 458.285164 185.947977 458.285164 183.539499 466.28131 176.121387 466.28131 187.200385 432.65896 196.256262 432.65896 207.190751 466.28131 199.579961 466.28131ZM191.631985 439.306358 191.391137 439.306358 187.682081 452.071291 195.38921 452.071291 191.631985 439.306358ZM210.542389 466.28131 210.542389 460.452794 214.877649 460.452794 214.877649 438.487476 210.542389 438.487476 210.542389 432.65896 226.534682 432.65896 226.534682 438.487476 222.199422 438.487476 222.199422 460.452794 226.534682 460.452794 226.534682 466.28131 210.542389 466.28131ZM242.89499 450.385356 239.66763 443.641618 239.523121 443.641618 239.523121 466.28131 232.634875 466.28131 232.634875 432.65896 240.631021 432.65896 249.831407 448.554913 253.058767 455.298651 253.203276 455.298651 253.203276 432.65896 260.091522 432.65896 260.091522 466.28131 252.095376 466.28131 242.89499 450.385356ZM324.518304 432.65896 337.186898 432.65896C339.402697 432.65896 341.425819 433.012524 343.256262 433.71869 345.086705 434.424855 346.644509 435.484586 347.928709 436.897881 349.212909 438.27842 350.209056 440.028902 350.915222 442.148362 351.621387 444.236031 351.974952 446.676301 351.974952 449.470135 351.974952 452.263969 351.621387 454.720617 350.915222 456.840077 350.209056 458.927746 349.212909 460.677264 347.928709 462.090559 346.644509 463.471098 345.086705 464.515414 343.256262 465.22158 341.425819 465.927746 339.402697 466.28131 337.186898 466.28131L324.518304 466.28131 324.518304 432.65896ZM337.186898 459.77842C339.370906 459.77842 341.088632 459.168593 342.34104 457.947977 343.593449 456.72736 344.219653 454.768786 344.219653 452.071291L344.219653 446.868979C344.219653 444.171484 343.593449 442.212909 342.34104 440.992293 341.088632 439.771676 339.370906 439.16185 337.186898 439.16185L331.840077 439.16185 331.840077 459.77842 337.186898 459.77842ZM358.10501 466.28131 358.10501 432.65896 380.985549 432.65896 380.985549 439.16185 365.426782 439.16185 365.426782 446.050096 378.76975 446.050096 378.76975 452.504817 365.426782 452.504817 365.426782 459.77842 380.985549 459.77842 380.985549 466.28131 358.10501 466.28131ZM387.364162 466.28131 387.364162 432.65896 409.666667 432.65896 409.666667 439.16185 394.685934 439.16185 394.685934 446.050096 407.450867 446.050096 407.450867 452.504817 394.685934 452.504817 394.685934 466.28131 387.364162 466.28131ZM414.240848 466.28131 414.240848 460.452794 418.576108 460.452794 418.576108 438.487476 414.240848 438.487476 414.240848 432.65896 430.233141 432.65896 430.233141 438.487476 425.897881 438.487476 425.897881 460.452794 430.233141 460.452794 430.233141 466.28131 414.240848 466.28131ZM449.917148 466.859345C447.637765 466.859345 445.581888 466.50578 443.751445 465.799615 441.921002 465.060694 440.364162 463.985549 439.078998 462.572254 437.794798 461.127168 436.799615 459.344894 436.092486 457.225434 435.38632 455.074181 435.032755 452.569364 435.032755 449.710983 435.032755 446.885356 435.38632 444.380539 436.092486 442.196532 436.799615 439.980732 437.794798 438.133911 439.078998 436.657033 440.364162 435.147399 441.921002 434.007707 443.751445 433.236994 445.581888 432.466281 447.637765 432.080925 449.917148 432.080925 453.032755 432.080925 455.601156 432.723507 457.624277 434.007707 459.647399 435.260116 461.26975 437.251445 462.489403 439.980732L456.179191 443.256262C455.73025 441.842967 455.023121 440.719653 454.05973 439.884393 453.129094 439.017341 451.747592 438.583815 449.917148 438.583815 447.765896 438.583815 446.031792 439.289981 444.714836 440.703276 443.430636 442.083815 442.788054 444.106936 442.788054 446.77264L442.788054 452.16763C442.788054 454.833333 443.430636 456.871869 444.714836 458.285164 446.031792 459.665703 447.765896 460.356455 449.917148 460.356455 451.7158 460.356455 453.144509 459.874759 454.204239 458.911368 455.296724 457.916185 456.099229 456.72736 456.612717 455.346821L462.585742 458.815029C461.333333 461.384393 459.680154 463.374759 457.624277 464.788054 455.601156 466.168593 453.032755 466.859345 449.917148 466.859345ZM487.844894 452.504817 475.031792 452.504817 475.031792 466.28131 467.710019 466.28131 467.710019 432.65896 475.031792 432.65896 475.031792 446.050096 487.844894 446.050096 487.844894 432.65896 495.166667 432.65896 495.166667 466.28131 487.844894 466.28131 487.844894 452.504817ZM523.279383 466.28131 520.870906 458.285164 509.647399 458.285164 507.238921 466.28131 499.820809 466.28131 510.899807 432.65896 519.955684 432.65896 530.890173 466.28131 523.279383 466.28131ZM515.331407 439.306358 515.090559 439.306358 511.381503 452.071291 519.088632 452.071291 515.331407 439.306358ZM534.241811 466.28131 534.241811 460.452794 538.577071 460.452794 538.577071 438.487476 534.241811 438.487476 534.241811 432.65896 550.234104 432.65896 550.234104 438.487476 545.898844 438.487476 545.898844 460.452794 550.234104 460.452794 550.234104 466.28131 534.241811 466.28131ZM566.594412 450.385356 563.367052 443.641618 563.222543 443.641618 563.222543 466.28131 556.334297 466.28131 556.334297 432.65896 564.330443 432.65896 573.530829 448.554913 576.758189 455.298651 576.902697 455.298651 576.902697 432.65896 583.790944 432.65896 583.790944 466.28131 575.794798 466.28131 566.594412 450.385356Z" transform="translate(20.231 2.89)"/></g></g></svg>