<svg xmlns="http://www.w3.org/2000/svg" xmlns:xlink="http://www.w3.org/1999/xlink" width="500" height="500" viewBox="0 0 500 500"><defs><rect id="a" width="500" height="500" x="0" y="0"/></defs><g fill="none" fill-rule="evenodd"><mask id="b" fill="#fff"><use xlink:href="#a"/></mask><use xlink:href="#a" fill="#FFF" fill-rule="nonzero" opacity="0"/><g fill-rule="nonzero" mask="url(#b)"><g transform="translate(-358 -371)"><polygon fill="#00F3FF" points="469.949 208.316 545.844 439.29 485.825 205.412" opacity=".622"/><polygon fill="#00F3FF" points="1001.597 270.077 775.076 472.591 1014.956 280.144" opacity=".822"/><polygon fill="#00F3FF" points="1032.576 936.862 783.403 759.711 1020.379 947.511" opacity=".921"/><polygon fill="#00F3FF" points="552.621 336.872 578.952 484.014 562.495 335.904" opacity=".524"/><polygon fill="#00F3FF" points="147.787 788.365 396.573 693.304 141.785 777.329" opacity=".716"/><polygon fill="#00F3FF" points="884.658 87.698 722.221 401.149 905.568 95.249" opacity=".643"/><polygon fill="#00F3FF" points="1196.949 284.21 850.004 484.594 1209.921 299.699" opacity=".635"/><polygon fill="#00F3FF" points="1095.885 869.68 811.282 731.057 1086.011 881.684" opacity=".612"/><polygon fill="#00F3FF" points="745.454 1225.919 633.549 807.532 716.994 1230.178" opacity=".981"/><polygon fill="#00F3FF" points="1066.65 179.275 797.148 440.064 1084.075 191.472" opacity=".567"/><polygon fill="#00F3FF" points="775.658 36.779 672.271 400.375 800.053 41.813" opacity=".852"/><polygon fill="#00F3FF" points="253.689 1017.403 447.684 789.333 238.588 1008.691" opacity=".536"/><polygon fill="#00F3FF" points="241.299 1202.879 448.072 857.289 218.066 1193.393" opacity=".587"/><polygon fill="#00F3FF" points="413.03 243.165 519.708 452.649 427.357 238.906" opacity=".585"/><polygon fill="#00F3FF" points="500.153 1063.675 552.427 813.147 483.115 1061.158" opacity=".839"/><polygon fill="#00F3FF" points="1123.571 739.77 827.351 675.879 1118.73 752.548" opacity=".873"/><polygon fill="#00F3FF" points="541.972 1062.707 570.626 813.34 525.128 1060.965" opacity=".589"/><polygon fill="#00F3FF" points="907.699 351.005 741.39 500.277 917.573 358.362" opacity=".699"/><polygon fill="#00F3FF" points="995.983 799.982 777.787 704.533 989.207 809.275" opacity=".778"/><polygon fill="#00F3FF" points="423.486 333 519.322 485.369 433.94 329.127" opacity=".982"/><polygon fill="#00F3FF" points="954.359 237.55 754.943 458.457 969.073 246.65" opacity=".888"/><polygon fill="#00F3FF" points="1020.764 775.2 788.435 693.304 1014.762 785.074" opacity=".732"/><polygon fill="#00F3FF" points="801.215 905.885 690.858 755.064 790.953 910.338" opacity=".833"/><polygon fill="#00F3FF" points="169.664 193.214 422.516 439.677 186.702 182.76" opacity=".592"/><polygon fill="#00F3FF" points="686.404 118.869 641.1 416.638 706.54 121.192" opacity=".676"/><polygon fill="#00F3FF" points="377.601 1076.26 500.542 814.889 360.176 1070.645" opacity=".525"/><polygon fill="#00F3FF" points="346.429 918.276 492.022 744.416 336.943 912.855" opacity=".724"/><polygon fill="#00F3FF" points="833.352 336.097 699.182 505.698 841.678 340.356" opacity=".786"/><polygon fill="#00F3FF" points="138.299 489.822 421.547 568.814 141.784 482.271" opacity=".84"/><polygon fill="#00F3FF" points="214.001 10.255 447.879 371.527 238.783 .768" opacity=".827"/><polygon fill="#00F3FF" points="422.902 206.38 525.514 439.29 438.778 202.314" opacity=".689"/><polygon fill="#00F3FF" points="106.744 944.026 387.281 755.839 94.353 931.635" opacity=".68"/><polygon fill="#00F3FF" points="530.938 251.491 571.402 454.004 544.684 250.135" opacity=".675"/><polygon fill="#00F3FF" points=".064 555.454 373.534 593.208 3.162 539.385" opacity=".957"/><polygon fill="#00F3FF" points="57.76 909.176 367.726 740.35 46.918 895.43" opacity=".837"/><polygon fill="#00F3FF" points="170.441 669.49 401.608 641.223 168.698 659.228" opacity=".97"/><polygon fill="#00F3FF" points="1120.668 127.969 816.316 422.253 1140.028 141.715" opacity=".818"/><polygon fill="#00F3FF" points="469.368 317.317 541.003 478.399 480.404 314.607" opacity=".624"/><polygon fill="#00F3FF" points="854.843 139.004 711.186 418.767 873.43 145.587" opacity=".722"/><polygon fill="#00F3FF" points="1168.293 1168.611 824.446 845.286 1146.028 1183.132" opacity=".96"/><polygon fill="#00F3FF" points="1069.942 596.887 811.476 612.957 1070.717 608.116" opacity=".79"/><polygon fill="#00F3FF" points="813.216 293.309 698.794 474.139 825.22 298.537" opacity=".867"/><polygon fill="#00F3FF" points="188.638 882.652 416.127 734.348 178.958 872.584" opacity=".614"/><polygon fill="#00F3FF" points="1187.654 505.892 852.132 575.01 1191.914 520.606" opacity=".781"/><polygon fill="#00F3FF" points="536.939 10.255 586.115 412.766 564.237 8.706" opacity=".759"/><polygon fill="#00F3FF" points="123.974 431.159 391.927 535.32 131.525 419.736" opacity=".968"/><polygon fill="#00F3FF" points="1167.521 1158.737 824.448 841.607 1145.643 1173.064" opacity=".982"/><polygon fill="#00F3FF" points="381.858 940.928 497.636 765.519 370.048 935.701" opacity=".792"/><polygon fill="#00F3FF" points="79.832 1128.147 383.022 825.538 59.697 1114.594" opacity=".932"/><polygon fill="#00F3FF" points="966.75 331.45 754.943 501.245 976.817 339.776" opacity=".673"/><polygon fill="#00F3FF" points="777.594 982.747 675.95 784.106 763.848 986.813" opacity=".826"/><polygon fill="#00F3FF" points="376.632 161.075 507.898 423.608 394.637 155.654" opacity=".92"/><polygon fill="#00F3FF" points="1140.996 676.653 835.482 648.387 1138.672 689.819" opacity=".829"/><polygon fill="#00F3FF" points="167.728 554.293 424.452 592.24 170.051 545.968" opacity=".559"/><polygon fill="#00F3FF" points="479.63 24.195 554.556 374.238 503.444 21.484" opacity=".585"/><polygon fill="#00F3FF" points="164.244 406.764 429.68 535.513 171.02 398.052" opacity=".745"/><polygon fill="#00F3FF" points="297.447 1206.945 470.533 860 274.214 1199.007" opacity=".616"/><polygon fill="#00F3FF" points="846.518 339.195 715.252 492.919 856.586 345.197" opacity=".587"/><polygon fill="#00F3FF" points="1025.217 130.486 779.335 420.51 1044.384 141.521" opacity=".964"/><polygon fill="#00F3FF" points="1047.676 1121.951 779.722 829.991 1027.54 1133.181" opacity=".934"/><polygon fill="#00F3FF" points="169.084 218.771 420.968 449.358 184.96 208.316" opacity=".981"/><polygon fill="#00F3FF" points="134.624 810.436 392.703 702.21 127.654 799.014" opacity=".948"/><polygon fill="#00F3FF" points="635.292 247.037 618.448 452.649 649.038 248.005" opacity=".92"/><polygon fill="#00F3FF" points="190.574 342.099 451.751 520.412 198.512 334.548" opacity=".775"/><polygon fill="#00F3FF" points="141.398 816.438 395.412 705.114 134.235 805.402" opacity=".923"/><polygon fill="#00F3FF" points="1014.182 1102.978 767.332 823.408 994.821 1113.239" opacity=".692"/><polygon fill="#00F3FF" points="927.06 264.849 745.068 467.75 940.612 272.981" opacity=".979"/><polygon fill="#00F3FF" points="1148.545 1124.468 818.637 829.023 1128.022 1138.408" opacity=".804"/><polygon fill="#00F3FF" points="281.183 191.278 467.24 436.386 298.22 183.728" opacity=".888"/><polygon fill="#00F3FF" points="759.589 1128.534 645.36 780.814 735.775 1132.987" opacity=".632"/><polygon fill="#00F3FF" points="1019.411 848.771 783.596 724.475 1010.698 858.839" opacity=".635"/><polygon fill="#00F3FF" points="765.977 1232.695 651.748 833.282 738.872 1237.148" opacity=".96"/><polygon fill="#00F3FF" points="645.553 1082.456 615.35 820.891 627.934 1083.424" opacity=".919"/><polygon fill="#00F3FF" points="747.195 263.107 668.784 460.781 760.361 266.785" opacity=".939"/><polygon fill="#00F3FF" points="1039.156 967.065 784.175 771.328 1025.41 977.907" opacity=".737"/><polygon fill="#00F3FF" points="1055.228 478.012 764.429 570.75 1058.906 485.756" opacity=".569"/><polygon fill="#00F3FF" points="205.483 1146.733 432.585 835.799 184.767 1136.278" opacity=".783"/><polygon fill="#00F3FF" points="279.247 753.515 426.97 690.206 274.795 746.352" opacity=".667"/><polygon fill="#00F3FF" points="584.179 1020.888 589.02 799.207 569.078 1020.307" opacity=".53"/><polygon fill="#00F3FF" points="571.787 917.889 583.597 762.809 561.332 917.115" opacity=".89"/><polygon fill="#00F3FF" points="365.983 1058.254 495.313 807.919 349.333 1052.253" opacity=".652"/><polygon fill="#00F3FF" points="942.741 906.272 749.908 750.224 931.899 914.404" opacity=".992"/><polygon fill="#00F3FF" points="317.195 1138.021 477.115 835.605 296.866 1130.664" opacity=".869"/><polygon fill="#00F3FF" points="34.914 106.478 374.503 409.474 56.018 92.151" opacity=".591"/><polygon fill="#00F3FF" points="1035.091 869.68 806.634 742.867 1026.185 879.361" opacity=".775"/><polygon fill="#00F3FF" points="1183.977 722.345 849.423 667.941 1179.718 736.672" opacity=".512"/><polygon fill="#00F3FF" points="1155.129 766.294 837.612 686.914 1149.321 779.846" opacity=".986"/><polygon fill="#00F3FF" points="930.736 1229.597 729.191 870.842 906.148 1237.729" opacity=".682"/><polygon fill="#00F3FF" points="693.954 274.917 645.359 463.491 706.733 277.434" opacity=".708"/><polygon fill="#00F3FF" points="314.482 333.386 489.697 508.989 322.807 328.159" opacity=".807"/><polygon fill="#00F3FF" points="403.348 282.468 513.511 467.17 416.126 277.821" opacity=".847"/><polygon fill="#00F3FF" points="441.104 55.753 538.102 385.467 463.563 52.074" opacity=".898"/><polygon fill="#00F3FF" points="1086.397 775.587 812.442 691.948 1080.395 787.397" opacity=".68"/><polygon fill="#00F3FF" points="329.391 333.387 445.943 453.811 337.716 328.546" opacity=".911"/><polygon fill="#00F3FF" points="616.319 51.493 607.994 428.254 641.875 52.462" opacity=".577"/><polygon fill="#00F3FF" points="786.695 313.252 688.149 480.529 797.731 317.705" opacity=".783"/><polygon fill="#00F3FF" points="204.515 99.121 440.717 403.86 225.425 89.247" opacity=".621"/><polygon fill="#00F3FF" points="1005.663 330.676 762.878 506.859 1015.149 339.388" opacity=".679"/><polygon fill="#00F3FF" points="1025.411 893.494 849.035 786.235 1017.861 901.045" opacity=".637"/><polygon fill="#00F3FF" points="730.546 927.569 657.943 765.132 719.317 930.473" opacity=".907"/><polygon fill="#00F3FF" points="478.858 1058.448 543.135 810.824 462.014 1055.35" opacity=".529"/><polygon fill="#00F3FF" points="62.212 402.892 370.629 524.865 70.924 389.533" opacity=".827"/><polygon fill="#00F3FF" points="426.389 1113.433 521.644 829.216 407.221 1108.786" opacity=".995"/><polygon fill="#00F3FF" points="405.478 203.863 518.158 438.516 421.548 199.41" opacity=".567"/><polygon fill="#00F3FF" points="348.945 339.195 463.561 461.361 357.464 334.548" opacity=".526"/><polygon fill="#00F3FF" points="1160.937 741.319 840.516 676.073 1155.903 755.065" opacity=".579"/><polygon fill="#00F3FF" points="396.38 1028.052 507.123 797.852 381.085 1022.824" opacity=".99"/><polygon fill="#00F3FF" points="973.912 1205.009 747.198 861.549 950.292 1214.302" opacity=".628"/><polygon fill="#00F3FF" points="1021.928 341.906 763.848 509.57 1031.221 350.812" opacity=".826"/><polygon fill="#00F3FF" points="501.896 297.763 556.687 470.655 513.512 295.633" opacity=".703"/><polygon fill="#00F3FF" points="884.657 916.34 710.604 741.512 875.558 921.761" opacity=".822"/><polygon fill="#00F3FF" points="112.938 357.2 391.927 504.923 123.393 345.39" opacity=".583"/><polygon fill="#00F3FF" points="610.703 1134.149 599.667 838.897 590.761 1134.149" opacity=".644"/><polygon fill="#00F3FF" points="1072.263 581.979 812.248 606.18 1073.425 593.209" opacity=".534"/><polygon fill="#00F3FF" points="1114.858 429.803 824.252 541.128 1122.021 442.582" opacity=".717"/><polygon fill="#00F3FF" points="947 1046.638 743.324 803.854 930.349 1055.157" opacity=".748"/><polygon fill="#00F3FF" points="1111.374 728.734 823.479 671.232 1107.115 741.125" opacity=".731"/><polygon fill="#00F3FF" points="1043.61 898.915 832.771 769.585 1034.511 908.015" opacity=".568"/><polygon fill="#00F3FF" points="437.426 141.908 534.037 416.057 456.206 138.23" opacity=".952"/><polygon fill="#00F3FF" points="1067.424 928.15 797.341 755.452 1055.42 939.766" opacity=".617"/><polygon fill="#00F3FF" points="1137.705 42.2 820.769 390.888 1160.744 56.527" opacity=".706"/><polygon fill="#00F3FF" points="155.725 719.053 397.347 663.294 152.24 708.405" opacity=".557"/><polygon fill="#00F3FF" points="1049.999 551.389 804.117 592.047 1052.516 562.231" opacity=".646"/><polygon fill="#00F3FF" points="82.93 312.671 383.022 487.886 95.32 299.893" opacity=".558"/><polygon fill="#00F3FF" points="1169.65 1098.719 827.738 818.955 1150.289 1113.239" opacity=".713"/><polygon fill="#00F3FF" points="959.004 148.685 753.779 425.351 977.396 157.978" opacity=".784"/><polygon fill="#00F3FF" points="1015.539 233.098 779.143 458.845 1030.64 243.553" opacity=".888"/><polygon fill="#00F3FF" points="1055.807 392.05 762.685 543.451 1061.229 399.02" opacity=".694"/><polygon fill="#00F3FF" points="58.148 795.529 364.242 693.691 51.759 782.17" opacity=".763"/><polygon fill="#00F3FF" points="267.824 947.511 450.396 763.196 255.627 939.379" opacity=".733"/><polygon fill="#00F3FF" points="269.179 197.474 462.012 438.903 285.829 189.536" opacity=".729"/><polygon fill="#00F3FF" points="822.703 1225.144 676.142 835.412 795.985 1230.953" opacity=".541"/><polygon fill="#00F3FF" points="1085.621 191.278 804.89 445.098 1102.465 203.863" opacity=".602"/><polygon fill="#00F3FF" points="1085.818 645.289 816.509 634.64 1084.656 656.905" opacity=".692"/><polygon fill="#00F3FF" points="901.891 1030.181 725.901 798.82 886.015 1037.538" opacity=".774"/><polygon fill="#00F3FF" points="180.702 288.663 421.744 475.882 193.867 278.596" opacity=".89"/><polygon fill="#00F3FF" points="1028.703 815.664 806.828 720.99 1021.926 825.151" opacity=".764"/><polygon fill="#00F3FF" points="124.36 497.566 388.828 563.78 129.393 486.143" opacity=".742"/><polygon fill="#00F3FF" points="1152.418 1003.27 825.608 782.944 1137.123 1017.21" opacity=".865"/><polygon fill="#00F3FF" points="994.435 110.157 766.752 412.185 1014.57 120.418" opacity=".559"/><polygon fill="#00F3FF" points="874.592 218.965 721.642 448.777 889.887 225.934" opacity=".6"/><polygon fill="#00F3FF" points="757.266 330.289 675.757 485.562 767.527 333.967" opacity=".986"/><polygon fill="#00F3FF" points="221.359 338.033 434.521 494.274 232.201 329.127" opacity=".83"/><polygon fill="#00F3FF" points="172.374 618.571 405.091 617.99 172.568 608.891" opacity=".757"/><polygon fill="#00F3FF" points="468.595 928.924 535.583 764.164 457.559 925.633" opacity=".915"/><polygon fill="#00F3FF" points="63.18 969.389 371.598 764.358 49.628 955.642" opacity=".866"/><polygon fill="#00F3FF" points="1021.927 472.397 773.334 559.908 1026.573 481.109" opacity=".542"/><polygon fill="#00F3FF" points="317.968 1202.879 478.663 859.032 294.929 1195.522" opacity=".643"/><polygon fill="#00F3FF" points="1153.192 1118.079 820.767 826.699 1133.057 1132.213" opacity=".781"/><polygon fill="#00F3FF" points="304.802 20.129 483.696 373.851 329.197 12.966" opacity=".986"/><polygon fill="#00F3FF" points="595.41 1022.824 594.055 799.788 580.309 1022.437" opacity=".956"/><polygon fill="#00F3FF" points="948.744 340.163 748.166 506.666 958.23 348.101" opacity=".904"/><polygon fill="#00F3FF" points="99.191 698.144 376.825 652.646 96.481 685.946" opacity=".6"/><polygon fill="#00F3FF" points="503.638 1198.62 554.751 860.774 480.792 1195.91" opacity=".853"/><polygon fill="#00F3FF" points="200.254 916.34 424.452 746.546 189.412 906.659" opacity=".646"/><polygon fill="#00F3FF" points="1019.411 1063.288 771.399 808.5 1001.792 1073.743" opacity=".513"/><polygon fill="#00F3FF" points="171.215 487.111 406.255 558.165 176.442 477.044" opacity=".7"/><polygon fill="#00F3FF" points="170.053 531.834 420.388 582.56 172.958 523.122" opacity=".66"/><polygon fill="#00F3FF" points="302.672 228.645 474.015 449.745 317.967 221.481" opacity=".988"/><polygon fill="#00F3FF" points="312.935 913.242 474.598 741.512 303.448 906.853" opacity=".503"/><polygon fill="#00F3FF" points="948.354 166.884 749.906 431.74 965.972 175.984" opacity=".795"/><polygon fill="#00F3FF" points="889.885 161.076 726.093 427.867 907.697 168.627" opacity=".849"/><polygon fill="#00F3FF" points="1100.339 960.095 807.992 767.068 1086.981 972.486" opacity=".827"/><polygon fill="#00F3FF" points="1140.415 1110.722 816.121 823.989 1120.473 1124.275" opacity=".936"/><polygon fill="#00F3FF" points="141.01 628.445 399.283 623.411 141.01 620.507" opacity=".884"/><polygon fill="#FC1CAE" points="712.807 935.002 654.995 759.059 700.714 937.214" opacity=".622"/><polygon fill="#FC1CAE" points="1161.438 680.453 841.26 648.302 1158.783 694.316" opacity=".991"/><polygon fill="#FC1CAE" points="307.828 887.956 480.379 733.693 297.652 880.287" opacity=".822"/><polygon fill="#FC1CAE" points="284.231 380.038 474.036 514.981 293.522 371.926" opacity=".921"/><polygon fill="#FC1CAE" points="94.719 370.452 403.541 515.129 104.896 357.178" opacity=".711"/><polygon fill="#FC1CAE" points="649.832 837.076 629.775 724.991 642.311 837.813" opacity=".524"/><polygon fill="#FC1CAE" points="958.212 493.154 768.701 565.567 962.783 501.561" opacity=".716"/><polygon fill="#FC1CAE" points="396.906 1026.882 520.641 788.113 380.978 1021.13" opacity=".643"/><polygon fill="#FC1CAE" points="159.02 877.19 423.303 724.549 149.139 865.392" opacity=".635"/><polygon fill="#FC1CAE" points="236.005 431.213 452.8 536.808 243.526 422.069" opacity=".612"/><polygon fill="#FC1CAE" points="502.943 159.851 588.186 478.554 524.622 156.606" opacity=".981"/><polygon fill="#FC1CAE" points="86.461 319.276 402.509 495.366 98.849 305.856" opacity=".812"/><polygon fill="#FC1CAE" points="1176.186 306.445 843.326 496.841 1188.575 321.193" opacity=".734"/><polygon fill="#FC1CAE" points="258.275 957.124 463.566 758.47 245.001 947.833" opacity=".567"/><polygon fill="#FC1CAE" points="479.936 1065.669 558.69 788.703 461.353 1061.834" opacity=".852"/><polygon fill="#FC1CAE" points="877.541 318.686 729.767 492.417 889.045 325.322" opacity=".536"/><polygon fill="#FC1CAE" points="1182.526 757.437 846.863 679.715 1176.775 771.89" opacity=".994"/><polygon fill="#FC1CAE" points="886.98 177.401 729.472 440.652 904.677 184.628" opacity=".587"/><polygon fill="#FC1CAE" points="756.165 908.456 674.904 748.883 745.251 911.701" opacity=".585"/><polygon fill="#FC1CAE" points="1054.221 801.534 799.082 699.33 1046.847 812.595" opacity=".502"/><polygon fill="#FC1CAE" points="1169.55 880.14 837.869 728.826 1158.784 894.298" opacity=".964"/><polygon fill="#FC1CAE" points="689.8 283.439 649.98 474.277 702.778 285.356" opacity=".839"/><polygon fill="#FC1CAE" points="481.116 1142.506 556.183 830.882 460.027 1138.819" opacity=".517"/><polygon fill="#FC1CAE" points="214.916 530.171 440.559 578.84 218.603 520.438" opacity=".873"/><polygon fill="#FC1CAE" points="657.944 284.176 636.117 474.129 670.775 285.503" opacity=".589"/><polygon fill="#FC1CAE" points="827.398 105.284 704.548 413.515 848.193 111.035" opacity=".933"/><polygon fill="#FC1CAE" points="379.355 826.31 506.039 712.603 371.833 820.706" opacity=".699"/><polygon fill="#FC1CAE" points="312.105 484.305 478.314 557.013 317.266 477.226" opacity=".778"/><polygon fill="#FC1CAE" points="111.532 716.88 402.361 658.183 107.993 704.197" opacity=".963"/><polygon fill="#FC1CAE" points="1062.038 226.217 798.787 463.216 1077.671 238.015" opacity=".679"/><polygon fill="#FC1CAE" points="748.2 840.025 675.198 723.959 740.236 842.975" opacity=".982"/><polygon fill="#FC1CAE" points="1114.245 442.274 824.005 548.901 1121.029 455.105" opacity=".801"/><polygon fill="#FC1CAE" points="343.812 912.733 495.715 744.459 332.603 905.801" opacity=".888"/><polygon fill="#FC1CAE" points="293.228 503.183 470.203 565.567 297.8 495.661" opacity=".732"/><polygon fill="#FC1CAE" points="460.468 403.634 544.531 518.521 468.285 400.242" opacity=".833"/><polygon fill="#FC1CAE" points="941.547 946.506 748.939 758.764 928.569 954.47" opacity=".592"/><polygon fill="#FC1CAE" points="547.924 1003.138 582.434 776.315 532.586 1001.368" opacity=".676"/><polygon fill="#FC1CAE" points="783.153 273.852 689.503 472.949 796.426 278.129" opacity=".525"/><polygon fill="#FC1CAE" points="806.897 394.196 695.993 526.632 814.124 398.325" opacity=".724"/><polygon fill="#FC1CAE" points="131.738 582.379 409.737 601.699 133.508 570.286" opacity=".558"/><polygon fill="#FC1CAE" points="435.987 837.666 538.191 708.474 429.646 834.421" opacity=".786"/><polygon fill="#FC1CAE" points="965.439 720.567 749.677 660.396 962.785 726.319" opacity=".84"/><polygon fill="#FC1CAE" points="907.774 1085.874 729.619 810.677 888.896 1093.1" opacity=".827"/><polygon fill="#FC1CAE" points="748.645 936.477 670.481 759.059 736.552 939.574" opacity=".689"/><polygon fill="#FC1CAE" points="989.476 374.581 775.779 517.931 998.915 384.019" opacity=".68"/><polygon fill="#FC1CAE" points="666.35 902.114 635.526 747.851 655.879 903.147" opacity=".675"/><polygon fill="#FC1CAE" points="1070.738 670.572 786.251 641.814 1068.379 682.813" opacity=".957"/><polygon fill="#FC1CAE" points="1026.789 401.127 790.675 529.729 1035.048 411.598" opacity=".837"/><polygon fill="#FC1CAE" points="641.426 83.162 629.775 403.487 663.105 84.194" opacity=".735"/><polygon fill="#FC1CAE" points="940.955 583.707 764.865 605.239 942.283 591.523" opacity=".97"/><polygon fill="#FC1CAE" points="217.127 996.206 448.965 772.037 202.379 985.735" opacity=".818"/><polygon fill="#FC1CAE" points="713.25 851.971 658.682 729.269 704.843 854.036" opacity=".624"/><polygon fill="#FC1CAE" points="419.617 987.8 529.047 774.692 405.459 982.786" opacity=".722"/><polygon fill="#FC1CAE" points="1201.553 657.593 855.862 638.716 1199.784 672.636" opacity=".599"/><polygon fill="#FC1CAE" points="180.849 203.505 442.772 449.795 197.809 192.444" opacity=".96"/><polygon fill="#FC1CAE" points="255.767 639.011 452.652 626.77 255.177 630.457" opacity=".79"/><polygon fill="#FC1CAE" points="451.326 870.259 538.486 732.513 442.182 866.277" opacity=".867"/><polygon fill="#FC1CAE" points="1115.129 370.156 822.53 519.995 1124.863 383.135" opacity=".947"/><polygon fill="#FC1CAE" points="927.094 421.332 753.805 534.301 934.468 429.001" opacity=".614"/><polygon fill="#FC1CAE" points="166.101 708.326 421.682 655.676 162.856 697.118" opacity=".781"/><polygon fill="#FC1CAE" points="661.778 1085.874 624.319 779.264 640.984 1087.053" opacity=".759"/><polygon fill="#FC1CAE" points="976.351 765.253 772.24 685.91 970.599 773.955" opacity=".968"/><polygon fill="#FC1CAE" points="544.679 1158.433 581.844 837.223 523 1156.369" opacity=".996"/><polygon fill="#FC1CAE" points="181.437 211.026 442.771 452.597 198.102 200.113" opacity=".982"/><polygon fill="#FC1CAE" points="131.296 709.211 409.294 655.381 128.051 696.971" opacity=".668"/><polygon fill="#FC1CAE" points="1175.155 507.755 846.719 576.775 1179.285 522.06" opacity=".716"/><polygon fill="#FC1CAE" points="779.91 376.94 691.717 510.557 788.906 380.922" opacity=".792"/><polygon fill="#FC1CAE" points="1009.976 234.328 779.023 464.838 1025.314 244.652" opacity=".932"/><polygon fill="#FC1CAE" points="33.516 370.156 381.272 516.013 43.987 355.261" opacity=".968"/><polygon fill="#FC1CAE" points="334.373 841.205 495.716 711.866 326.704 834.864" opacity=".673"/><polygon fill="#FC1CAE" points="478.461 345.085 555.887 496.399 488.932 341.988" opacity=".826"/><polygon fill="#FC1CAE" points="783.891 970.987 683.9 771.005 770.176 975.117" opacity=".92"/><polygon fill="#FC1CAE" points="201.643 578.25 434.365 599.782 203.412 568.221" opacity=".829"/><polygon fill="#FC1CAE" points="1107.314 927.186 813.093 748.146 1094.778 939.722" opacity=".536"/><polygon fill="#FC1CAE" points="943.022 671.457 747.464 642.551 941.252 677.798" opacity=".559"/><polygon fill="#FC1CAE" points="705.433 1075.255 648.358 808.613 687.293 1077.32" opacity=".585"/><polygon fill="#FC1CAE" points="945.676 783.836 743.482 685.762 940.514 790.472" opacity=".745"/><polygon fill="#FC1CAE" points="844.209 174.304 712.363 438.587 861.907 180.351" opacity=".616"/><polygon fill="#FC1CAE" points="425.959 835.306 525.95 718.208 418.29 830.734" opacity=".587"/><polygon fill="#FC1CAE" points="289.836 994.289 477.135 773.365 275.235 985.882" opacity=".964"/><polygon fill="#FC1CAE" points="272.728 239.047 476.84 461.446 288.066 230.494" opacity=".934"/><polygon fill="#FC1CAE" points="1077.963 762.599 809.256 682.96 1072.212 774.25" opacity=".524"/><polygon fill="#FC1CAE" points="1112.475 658.478 824.448 639.159 1110.705 671.014" opacity=".634"/><polygon fill="#FC1CAE" points="71.124 538.283 389.384 583.412 74.663 524.567" opacity=".71"/><polygon fill="#FC1CAE" points="941.989 927.038 750.118 751.391 929.896 935.002" opacity=".981"/><polygon fill="#FC1CAE" points="719.589 153.362 661.482 428.853 738.171 156.311" opacity=".949"/><polygon fill="#FC1CAE" points="968.239 476.342 771.649 558.782 973.548 485.043" opacity=".948"/><polygon fill="#FC1CAE" points="586.859 905.506 599.689 748.883 576.388 904.769" opacity=".92"/><polygon fill="#FC1CAE" points="1118.079 747.556 824.152 676.176 1112.769 760.239" opacity=".925"/><polygon fill="#FC1CAE" points="1076.638 888.104 803.358 733.545 1065.724 899.755" opacity=".534"/><polygon fill="#FC1CAE" points="1185.92 670.277 850.109 644.026 1183.56 684.877" opacity=".551"/><polygon fill="#FC1CAE" points="925.619 833.094 726.669 697.266 919.572 838.846" opacity=".775"/><polygon fill="#FC1CAE" points="963.078 471.77 769.586 556.57 968.535 480.176" opacity=".923"/><polygon fill="#FC1CAE" points="298.242 253.5 486.278 466.46 312.99 245.684" opacity=".692"/><polygon fill="#FC1CAE" points="1125.749 301.431 824.596 493.597 1138.284 314.852" opacity=".706"/><polygon fill="#FC1CAE" points="364.607 891.938 503.237 737.38 354.283 885.744" opacity=".979"/><polygon fill="#FC1CAE" points="195.892 237.13 447.197 462.184 211.525 226.512" opacity=".804"/><polygon fill="#FC1CAE" points="856.598 947.98 714.871 761.272 843.62 953.732" opacity=".888"/><polygon fill="#FC1CAE" points="927.977 1088.233 737.582 811.414 908.953 1096.197" opacity=".528"/><polygon fill="#FC1CAE" points="492.177 234.033 579.189 498.906 510.317 230.641" opacity=".632"/><polygon fill="#FC1CAE" points="294.259 447.14 473.889 541.822 300.896 439.472" opacity=".635"/><polygon fill="#FC1CAE" points="487.31 154.689 574.323 458.939 507.957 151.297" opacity=".96"/><polygon fill="#FC1CAE" points="579.043 269.133 602.049 468.378 592.463 268.396" opacity=".919"/><polygon fill="#FC1CAE" points="501.617 893.266 561.346 742.689 491.588 890.464" opacity=".939"/><polygon fill="#FC1CAE" points="279.218 357.031 473.448 506.132 289.689 348.772" opacity=".737"/><polygon fill="#FC1CAE" points="266.976 729.564 488.489 658.921 264.173 723.664" opacity=".569"/><polygon fill="#FC1CAE" points="914.262 220.17 741.269 457.022 930.043 228.134" opacity=".783"/><polygon fill="#FC1CAE" points="858.073 519.701 745.546 567.926 861.465 525.157" opacity=".667"/><polygon fill="#FC1CAE" points="625.793 316.032 622.106 484.896 637.296 316.474" opacity=".53"/><polygon fill="#FC1CAE" points="786.692 131.535 688.618 422.217 806.159 136.254" opacity=".847"/><polygon fill="#FC1CAE" points="20.538 593.883 370.654 606.271 22.013 578.692" opacity=".934"/><polygon fill="#FC1CAE" points="635.233 394.49 626.237 512.621 643.197 395.08" opacity=".89"/><polygon fill="#FC1CAE" points="792.002 287.568 693.486 478.259 804.685 292.14" opacity=".652"/><polygon fill="#FC1CAE" points="352.661 403.339 499.551 522.208 360.92 397.145" opacity=".992"/><polygon fill="#FC1CAE" points="829.167 226.807 707.349 457.169 844.652 232.411" opacity=".869"/><polygon fill="#FC1CAE" points="1044.192 1012.576 785.513 781.771 1028.116 1023.49" opacity=".591"/><polygon fill="#FC1CAE" points="43.692 436.227 382.599 542.117 51.361 421.774" opacity=".853"/><polygon fill="#FC1CAE" points="282.315 431.213 456.34 527.812 289.099 423.839" opacity=".775"/><polygon fill="#FC1CAE" points="96.047 475.899 400.002 557.455 101.946 462.773" opacity=".794"/><polygon fill="#FC1CAE" points="784.037 1094.427 679.916 815.102 764.864 1098.557" opacity=".537"/><polygon fill="#FC1CAE" points="168.902 543.444 423.746 584.886 172.146 532.531" opacity=".512"/><polygon fill="#FC1CAE" points="190.876 509.967 432.742 570.433 195.301 499.643" opacity=".986"/><polygon fill="#FC1CAE" points="1069.264 755.815 806.456 680.306 1063.808 767.023" opacity=".808"/><polygon fill="#FC1CAE" points="361.806 157.049 515.332 430.328 380.536 150.855" opacity=".682"/><polygon fill="#FC1CAE" points="542.173 884.27 579.19 740.625 532.439 882.352" opacity=".708"/><polygon fill="#FC1CAE" points="831.233 839.731 697.764 705.967 824.891 843.713" opacity=".807"/><polygon fill="#FC1CAE" points="763.54 878.518 679.624 737.822 753.807 882.057" opacity=".847"/><polygon fill="#FC1CAE" points="734.78 1051.216 660.892 800.059 717.672 1054.018" opacity=".898"/><polygon fill="#FC1CAE" points="243.233 502.888 451.916 566.599 247.804 493.892" opacity=".68"/><polygon fill="#FC1CAE" points="819.876 839.731 731.093 747.999 813.534 843.418" opacity=".911"/><polygon fill="#FC1CAE" points="601.311 1054.46 607.653 767.466 581.844 1053.723" opacity=".577"/><polygon fill="#FC1CAE" points="105.782 924.236 404.87 741.509 93.836 911.111" opacity=".686"/><polygon fill="#FC1CAE" points="471.528 855.068 546.595 727.646 463.122 851.676" opacity=".783"/><polygon fill="#FC1CAE" points="915 1018.181 735.075 786.048 899.072 1025.702" opacity=".621"/><polygon fill="#FC1CAE" points="133.359 750.801 410.62 672.784 128.492 738.56" opacity=".62"/><polygon fill="#FC1CAE" points="304.731 841.796 489.67 707.589 297.505 835.159" opacity=".679"/><polygon fill="#FC1CAE" points="60.063 731.333 384.37 663.345 55.933 717.175" opacity=".616"/><polygon fill="#FC1CAE" points="1039.768 607.451 799.524 617.037 1040.063 617.922" opacity=".548"/><polygon fill="#FC1CAE" points="289.688 413.073 424.041 494.777 295.44 407.321" opacity=".637"/><polygon fill="#FC1CAE" points="1170.876 502.15 845.242 574.415 1175.3 516.308" opacity=".862"/><polygon fill="#FC1CAE" points="514.299 387.116 569.604 510.852 522.853 384.904" opacity=".907"/><polygon fill="#FC1CAE" points="706.021 287.421 657.058 476.047 718.852 289.78" opacity=".529"/><polygon fill="#FC1CAE" points="1023.398 786.785 788.463 693.873 1016.761 796.961" opacity=".827"/><polygon fill="#FC1CAE" points="745.989 245.536 673.429 462.036 760.589 249.076" opacity=".995"/><polygon fill="#FC1CAE" points="131.589 691.219 409.293 647.86 129.082 679.126" opacity=".823"/><polygon fill="#FC1CAE" points="697.026 1127.463 643.933 827.048 676.526 1129.38" opacity=".903"/><polygon fill="#FC1CAE" points="761.917 938.394 676.084 759.649 749.677 941.786" opacity=".567"/><polygon fill="#FC1CAE" points="804.981 835.306 717.673 742.247 798.492 838.846" opacity=".526"/><polygon fill="#FC1CAE" points="186.452 528.991 430.53 578.692 190.287 518.52" opacity=".579"/><polygon fill="#FC1CAE" points="768.848 310.575 684.49 485.928 780.499 314.557" opacity=".99"/><polygon fill="#FC1CAE" points="328.917 175.779 501.615 437.407 346.909 168.7" opacity=".628"/><polygon fill="#FC1CAE" points="292.342 833.241 488.932 705.524 285.263 826.457" opacity=".826"/><polygon fill="#FC1CAE" points="30.419 773.807 374.341 680.01 24.667 758.764" opacity=".921"/><polygon fill="#FC1CAE" points="688.472 866.867 646.735 735.168 679.623 868.489" opacity=".703"/><polygon fill="#FC1CAE" points="396.906 395.67 529.49 528.844 403.838 391.541" opacity=".822"/><polygon fill="#FC1CAE" points="1057.76 726.171 803.358 668.065 1053.483 737.085" opacity=".644"/><polygon fill="#FC1CAE" points="984.757 821.591 772.24 709.064 976.793 830.587" opacity=".583"/><polygon fill="#FC1CAE" points="605.589 229.756 613.995 454.662 620.779 229.756" opacity=".644"/><polygon fill="#FC1CAE" points="253.999 650.367 452.064 631.932 253.114 641.813" opacity=".534"/><polygon fill="#FC1CAE" points="1082.683 704.935 812.943 658.774 1079.143 716.585" opacity=".606"/><polygon fill="#FC1CAE" points="221.553 766.286 442.92 681.485 216.096 756.552" opacity=".717"/><polygon fill="#FC1CAE" points="349.418 296.417 504.566 481.356 362.101 289.928" opacity=".748"/><polygon fill="#FC1CAE" points="1126.779 347.592 826.217 511.442 1137.546 360.865" opacity=".757"/><polygon fill="#FC1CAE" points="224.206 538.578 443.508 582.379 227.451 529.139" opacity=".731"/><polygon fill="#FC1CAE" points="1134.3 282.996 827.396 486.665 1147.721 296.564" opacity=".948"/><polygon fill="#FC1CAE" points="555.15 92.895 594.822 406.436 576.535 91.568" opacity=".617"/><polygon fill="#FC1CAE" points="1136.809 756.7 830.642 679.863 1131.205 769.825" opacity=".99"/><polygon fill="#FC1CAE" points="1124.126 887.071 821.056 732.218 1113.212 900.05" opacity=".961"/><polygon fill="#FC1CAE" points="275.825 408.943 436.43 507.46 282.757 402.012" opacity=".568"/><polygon fill="#FC1CAE" points="737.581 985.588 663.989 776.757 723.276 988.39" opacity=".952"/><polygon fill="#FC1CAE" points="257.685 386.674 463.419 518.226 266.829 377.825" opacity=".617"/><polygon fill="#FC1CAE" points="807.045 124.603 696.731 420.152 826.808 129.913" opacity=".537"/><polygon fill="#FC1CAE" points="204.149 1061.54 445.573 795.929 186.599 1050.626" opacity=".706"/><polygon fill="#FC1CAE" points="952.165 545.952 768.111 588.426 954.82 554.063" opacity=".557"/><polygon fill="#FC1CAE" points="270.958 673.669 458.257 642.698 269.041 665.41" opacity=".646"/><polygon fill="#FC1CAE" points="1007.616 855.511 779.023 722.042 998.178 865.244" opacity=".558"/><polygon fill="#FC1CAE" points="179.815 256.745 440.264 469.852 194.563 245.684" opacity=".713"/><polygon fill="#FC1CAE" points="340.274 980.426 496.602 769.678 326.263 973.347" opacity=".784"/><polygon fill="#FC1CAE" points="297.209 916.125 477.281 744.164 285.705 908.161" opacity=".888"/><polygon fill="#FC1CAE" points="266.534 795.044 489.818 679.715 262.404 789.735" opacity=".694"/><polygon fill="#FC1CAE" points="1026.494 487.697 793.329 565.272 1031.36 497.874" opacity=".763"/><polygon fill="#FC1CAE" points="866.775 371.926 727.702 512.327 876.066 378.12" opacity=".733"/><polygon fill="#FC1CAE" points="865.743 943.261 718.853 759.354 853.06 949.308" opacity=".729"/><polygon fill="#FC1CAE" points="902.611 1106.078 726.964 818.051 882.849 1113.305" opacity=".65"/><polygon fill="#FC1CAE" points="444.099 160.441 555.741 457.317 464.452 156.016" opacity=".541"/><polygon fill="#FC1CAE" points="243.823 947.98 457.668 754.635 230.993 938.394" opacity=".602"/><polygon fill="#FC1CAE" points="243.674 602.142 448.818 610.253 244.559 593.293" opacity=".692"/><polygon fill="#FC1CAE" points="835.214 132.42 708.087 423.397 854.829 138.319" opacity=".613"/><polygon fill="#FC1CAE" points="383.779 308.953 517.838 485.19 395.872 303.348" opacity=".774"/><polygon fill="#FC1CAE" points="933.139 873.798 749.527 731.186 923.111 881.467" opacity=".89"/><polygon fill="#FC1CAE" points="287.181 472.36 456.192 544.477 292.343 465.133" opacity=".764"/><polygon fill="#FC1CAE" points="110.943 363.52 409.736 512.179 121.562 350.837" opacity=".528"/><polygon fill="#FC1CAE" points="109.91 972.315 407.671 759.944 96.047 959.041" opacity=".709"/><polygon fill="#FC1CAE" points="101.209 364.11 406.049 512.621 111.68 351.132" opacity=".571"/><polygon fill="#FC1CAE" points="800.557 137.434 694.224 424.576 819.876 142.448" opacity=".925"/><polygon fill="#FC1CAE" points="976.057 714.668 774.601 664.23 972.223 723.37" opacity=".742"/><polygon fill="#FC1CAE" points="192.942 329.452 441.887 497.284 204.593 318.834" opacity=".865"/><polygon fill="#FC1CAE" points="313.284 1009.774 486.72 779.707 297.946 1001.958" opacity=".559"/><polygon fill="#FC1CAE" points="404.573 926.891 521.082 751.833 392.923 921.581" opacity=".6"/><polygon fill="#FC1CAE" points="493.946 842.09 556.035 723.812 486.13 839.288" opacity=".986"/><polygon fill="#FC1CAE" points="32.042 325.175 382.305 498.463 44.282 310.28" opacity=".673"/><polygon fill="#FC1CAE" points="902.169 836.191 739.794 717.175 893.91 842.975" opacity=".83"/><polygon fill="#FC1CAE" points="939.482 622.494 762.212 622.936 939.335 629.868" opacity=".757"/><polygon fill="#FC1CAE" points="713.839 386.084 662.811 511.589 722.245 388.591" opacity=".915"/><polygon fill="#FC1CAE" points="1022.66 355.261 787.726 511.441 1032.984 365.732" opacity=".866"/><polygon fill="#FC1CAE" points="292.342 733.84 481.706 667.18 288.803 727.204" opacity=".542"/><polygon fill="#FC1CAE" points="90.591 831.177 396.906 704.492 82.48 817.756" opacity=".699"/><polygon fill="#FC1CAE" points="828.578 177.401 706.17 439.324 846.128 183.005" opacity=".643"/><polygon fill="#FC1CAE" points="815.451 128.438 700.122 421.627 835.065 133.895" opacity=".782"/><polygon fill="#FC1CAE" points="130.558 506.132 411.211 569.548 135.13 494.039" opacity=".734"/><polygon fill="#FC1CAE" points="192.352 241.997 445.574 463.953 207.69 231.231" opacity=".781"/><polygon fill="#FC1CAE" points="838.606 1078.352 702.335 808.907 820.024 1083.809" opacity=".986"/><polygon fill="#FC1CAE" points="617.238 314.557 618.271 484.453 628.742 314.852" opacity=".956"/><polygon fill="#FC1CAE" points="348.089 834.569 500.878 707.737 340.863 828.522" opacity=".904"/><polygon fill="#FC1CAE" points="995.229 561.88 783.744 596.537 997.294 571.171" opacity=".6"/><polygon fill="#FC1CAE" points="687.145 180.646 648.21 437.997 704.547 182.71" opacity=".853"/><polygon fill="#FC1CAE" points="918.245 395.67 747.464 525.01 926.504 403.044" opacity=".646"/><polygon fill="#FC1CAE" points="1133.27 905.801 823.564 739.445 1121.62 919.074" opacity=".589"/><polygon fill="#FC1CAE" points="26.88 467.493 375.521 554.801 33.221 452.45" opacity=".895"/><polygon fill="#FC1CAE" points="294.259 283.733 483.18 477.816 307.68 275.77" opacity=".513"/><polygon fill="#FC1CAE" points="739.942 1083.366 662.22 811.414 721.359 1086.316" opacity=".684"/><polygon fill="#FC1CAE" points="1142.855 388.739 833.149 528.107 1151.851 402.454" opacity=".733"/><polygon fill="#FC1CAE" points="940.366 722.632 761.326 668.507 936.384 730.301" opacity=".7"/><polygon fill="#FC1CAE" points="941.25 688.564 750.56 649.925 939.038 695.201" opacity=".66"/><polygon fill="#FC1CAE" points="49.887 567.926 381.273 595.652 52.247 553.473" opacity=".801"/><polygon fill="#FC1CAE" points="1096.253 479.291 818.255 563.502 1101.563 491.532" opacity=".943"/><polygon fill="#FC1CAE" points="840.229 919.517 709.71 751.096 828.578 924.974" opacity=".988"/><polygon fill="#FC1CAE" points="832.411 398.03 709.266 528.844 839.638 402.897" opacity=".503"/><polygon fill="#FC1CAE" points="348.386 966.563 499.552 764.811 334.965 959.631" opacity=".795"/><polygon fill="#FC1CAE" points="11.838 752.57 367.411 671.162 6.824 737.085" opacity=".965"/><polygon fill="#FC1CAE" points="392.924 970.987 517.692 767.761 379.356 965.235" opacity=".849"/><polygon fill="#FC1CAE" points="232.612 362.34 455.306 509.377 242.788 352.901" opacity=".827"/><polygon fill="#FC1CAE" points="466.368 1138.081 550.283 829.112 445.573 1134.099" opacity=".706"/><polygon fill="#FC1CAE" points="202.085 247.601 449.113 466.018 217.275 237.277" opacity=".936"/><polygon fill="#FC1CAE" points="963.374 614.972 766.636 618.807 963.374 621.019" opacity=".884"/></g></g></g></svg>